<svg xmlns="http://www.w3.org/2000/svg" viewBox="0 0 619.05 176.76"><defs><style>.cls-1{fill:#232323;}</style></defs><g id="Layer_2" data-name="Layer 2"><g id="ART"><path class="cls-1" d="M84.8.08C69.4.08,57.31,5.82,46.32,16.74V4.22H0V172.55H46.32v-99a29.25,29.25,0,0,1,58.5,0v99h46.32v-98C151.14,30,124.39.08,84.8.08Z"/><path class="cls-1" d="M282.88,4.25v99a29.25,29.25,0,0,1-58.49,0v-99H178.06v97.09c0,45.81,29.48,75.42,75.1,75.42,44.77,0,76-31,76-75.42V4.25Z"/><path class="cls-1" d="M593.18,25.87a88.32,88.32,0,1,0,0,124.9A88.32,88.32,0,0,0,593.18,25.87Zm-27,68.36-29.65,29.66a29.25,29.25,0,0,1-41.36-41.36l29.65-29.66a29.25,29.25,0,1,1,41.36,41.36Z"/><path class="cls-1" d="M434.26.08h-2.09c-44.77,0-76,31-76,75.41v97.09h46.32v-99c0-16.16,13.57-29.25,29.72-29.25h2.09Z"/></g></g></svg>