<svg version="1.1" id="Layer_1" xmlns="http://www.w3.org/2000/svg" xmlns:xlink="http://www.w3.org/1999/xlink" x="0px" y="0px"
	 width="100%" viewBox="0 0 200 200" enable-background="new 0 0 200 200" xml:space="preserve">
<path fill="#FEFFFF" opacity="1.000000" stroke="none" 
	d="
M139.000000,201.000000 
	C92.666672,201.000000 46.833340,201.000000 1.000006,201.000000 
	C1.000004,134.333344 1.000004,67.666679 1.000002,1.000015 
	C67.666656,1.000010 134.333313,1.000010 200.999969,1.000005 
	C200.999985,67.666649 200.999985,134.333298 201.000000,200.999969 
	C180.500000,201.000000 160.000000,201.000000 139.000000,201.000000 
M101.641434,28.089979 
	C100.927017,28.785645 100.172470,29.444960 99.504333,30.182545 
	C91.979515,38.489475 90.953621,50.039810 96.866333,59.697811 
	C102.356140,68.665054 113.582962,73.090637 123.659767,70.259720 
	C134.863968,67.112083 141.997360,57.915791 141.917038,46.509342 
	C141.848694,36.805073 137.252823,29.526304 128.854950,25.113611 
	C119.645042,20.274237 110.572380,21.326212 101.641434,28.089979 
M126.795128,94.575836 
	C113.449409,87.339111 99.322113,90.736176 92.297615,103.156898 
	C87.231590,112.114639 87.867584,121.135506 93.822144,129.413528 
	C99.264053,136.978851 106.961388,140.524628 116.309441,139.286728 
	C127.064743,137.862473 134.302277,131.886841 137.055969,121.239716 
	C139.865005,110.378601 136.132904,101.716370 126.795128,94.575836 
M77.745285,152.938721 
	C77.950684,151.961075 78.154793,150.983154 78.361687,150.005829 
	C80.464096,140.074249 76.002228,130.052109 66.931931,124.333618 
	C59.127136,119.412979 47.116760,119.930664 40.083702,125.490868 
	C31.356586,132.390381 27.898087,142.763229 31.053766,152.573715 
	C34.242928,162.488281 42.816891,169.131775 53.334026,169.837509 
	C63.397392,170.512772 72.413773,164.467377 77.745285,152.938721 
M50.783066,56.927494 
	C40.269855,61.211895 33.870579,69.840309 34.205345,80.111984 
	C34.544411,90.515579 39.680393,98.149841 49.136116,102.470055 
	C57.849770,106.451248 69.323555,104.059204 75.964439,97.356148 
	C83.610184,89.638824 85.337334,77.718056 80.166794,68.351524 
	C74.505875,58.096661 63.958836,53.797367 50.783066,56.927494 
M109.267525,154.983398 
	C100.639450,151.271118 91.400650,160.108673 92.630035,168.156448 
	C93.636421,174.744492 98.546356,179.432510 104.937332,179.787918 
	C110.191063,180.080078 115.740723,175.817368 117.391472,170.221832 
	C119.188881,164.129166 116.479744,158.611145 109.267525,154.983398 
M158.657822,99.082771 
	C167.910934,98.696770 173.876495,91.266792 171.417847,83.190453 
	C169.515793,76.942459 163.683060,73.207275 157.214767,74.095016 
	C151.326202,74.903206 147.074524,79.725975 146.617157,86.116150 
	C146.163269,92.457550 150.384201,97.327835 158.657822,99.082771 
z"/>
<path fill="#74CAC4" opacity="1.000000" stroke="none" 
	d="
M101.922523,27.860371 
	C110.572380,21.326212 119.645042,20.274237 128.854950,25.113611 
	C137.252823,29.526304 141.848694,36.805073 141.917038,46.509342 
	C141.997360,57.915791 134.863968,67.112083 123.659767,70.259720 
	C113.582962,73.090637 102.356140,68.665054 96.866333,59.697811 
	C90.953621,50.039810 91.979515,38.489475 99.504333,30.182545 
	C100.172470,29.444960 100.927017,28.785645 101.922523,27.860371 
z"/>
<path fill="#74CAC4" opacity="1.000000" stroke="none" 
	d="
M127.093506,94.789482 
	C136.132904,101.716370 139.865005,110.378601 137.055969,121.239716 
	C134.302277,131.886841 127.064743,137.862473 116.309441,139.286728 
	C106.961388,140.524628 99.264053,136.978851 93.822144,129.413528 
	C87.867584,121.135506 87.231590,112.114639 92.297615,103.156898 
	C99.322113,90.736176 113.449409,87.339111 127.093506,94.789482 
z"/>
<path fill="#74CAC4" opacity="1.000000" stroke="none" 
	d="
M77.594818,153.305237 
	C72.413773,164.467377 63.397392,170.512772 53.334026,169.837509 
	C42.816891,169.131775 34.242928,162.488281 31.053766,152.573715 
	C27.898087,142.763229 31.356586,132.390381 40.083702,125.490868 
	C47.116760,119.930664 59.127136,119.412979 66.931931,124.333618 
	C76.002228,130.052109 80.464096,140.074249 78.361687,150.005829 
	C78.154793,150.983154 77.950684,151.961075 77.594818,153.305237 
z"/>
<path fill="#74CAC4" opacity="1.000000" stroke="none" 
	d="
M51.179394,56.812202 
	C63.958836,53.797367 74.505875,58.096661 80.166794,68.351524 
	C85.337334,77.718056 83.610184,89.638824 75.964439,97.356148 
	C69.323555,104.059204 57.849770,106.451248 49.136116,102.470055 
	C39.680393,98.149841 34.544411,90.515579 34.205345,80.111984 
	C33.870579,69.840309 40.269855,61.211895 51.179394,56.812202 
z"/>
<path fill="#76CBC5" opacity="1.000000" stroke="none" 
	d="
M109.641594,155.091003 
	C116.479744,158.611145 119.188881,164.129166 117.391472,170.221832 
	C115.740723,175.817368 110.191063,180.080078 104.937332,179.787918 
	C98.546356,179.432510 93.636421,174.744492 92.630035,168.156448 
	C91.400650,160.108673 100.639450,151.271118 109.641594,155.091003 
z"/>
<path fill="#75CBC4" opacity="1.000000" stroke="none" 
	d="
M158.239166,99.062920 
	C150.384201,97.327835 146.163269,92.457550 146.617157,86.116150 
	C147.074524,79.725975 151.326202,74.903206 157.214767,74.095016 
	C163.683060,73.207275 169.515793,76.942459 171.417847,83.190453 
	C173.876495,91.266792 167.910934,98.696770 158.239166,99.062920 
z"/>
</svg>