<svg version="1.1" id="Layer_1" xmlns="http://www.w3.org/2000/svg" x="0" y="0" viewBox="0 0 1720.4 621.9" style="enable-background:new 0 0 1720.4 621.9" xml:space="preserve"><style>.st0{fill-rule:evenodd;clip-rule:evenodd;fill:#014779}</style><g id="Style-_x2F_-Logo-Copy"><g id="Style-_x2F_-Logo"><path id="Fill-1" class="st0" d="M1524.4 505.6c-.8-1.5-1.4-2.6-1.9-3.2s-1.1-1.1-1.8-1.7c1.4-.3 2.5-.9 3.2-1.8.8-1 1.1-2.2 1.1-3.8 0-1.2-.2-2.2-.7-3.2-.4-.8-1.1-1.5-1.8-1.9-.8-.3-2-.5-3.8-.5h-6.9v19.8h3.3V501h.6c.8 0 1.4.1 1.6.2.4.2.7.4 1 .8s.9 1.4 1.7 3l2.4 4.3h3.9l-1.9-3.7zm-7-7.7h-2.4v-5h2.6c1.4 0 2.3.1 2.7.1.4.1.7.4 1 .8.2.4.3.9.3 1.5s-.1 1.1-.3 1.5c-.3.4-.6.7-1 .8-.4.3-1.4.3-2.9.3z"/><path id="Fill-2" class="st0" d="M1519 482.9c-9.2 0-16.6 7.5-16.6 16.6 0 9.2 7.5 16.6 16.6 16.6 9.2 0 16.7-7.5 16.7-16.6s-7.5-16.6-16.7-16.6zm0 29.5c-7.1 0-12.9-5.8-12.9-12.9s5.8-12.9 12.9-12.9c7.2 0 12.9 5.8 12.9 12.9.1 7.2-5.7 12.9-12.9 12.9z"/><g id="Group-6"><path id="Fill-3" class="st0" d="m1524.7 393.8-11.1-8.1-11.2 8.1 4.3-13.1-11.1-8.2h13.8l4.3-13.1 4.2 13.2 13.8.1-11.2 8 4.2 13.1zm-69.8.5-11.9-11.4-14.5 7.8 7.2-14.8-11.9-11.4 16.4 2.3 7.2-14.8 2.9 16.2 16.3 2.3-14.5 7.7 2.8 16.1zm265.5 4.3-9.4-3-5.7 8-.1-9.8-9.4-3 9.4-3.1-.1-9.8 5.8 7.9 9.4-3.1-5.7 8 5.8 7.9zm-231 17.2-9.4-3-5.7 8-.1-9.8-9.4-3 9.3-3.1v-9.8l5.8 7.9 9.4-3.1-5.8 8 5.9 7.9zm-164.8-4.7-4.3-12.3-13 .3 10.3-7.9-4.3-12.3 10.7 7.4 10.4-7.9-3.7 12.5 10.7 7.4-13 .3-3.8 12.5zm-61.3-.2-12.1-4.8-8.3 10 .9-13-12.1-4.8 12.6-3.2.9-13 7 11 12.6-3.3-8.4 10.1 6.9 11zm-65.2-7.1-10.7-7.3-10.3 8 3.6-12.5-10.7-7.3 13-.4 3.6-12.5 4.4 12.2 13-.4-10.2 8 4.3 12.2zm193.8 7.8-13.7-17.5-20.9 7.5 12.5-18.3-13.6-17.6 21.3 6.2 12.5-18.3.7 22.2 21.3 6.2-20.9 7.5.8 22.1zm-284-3.8-11.1-8.4-11.4 8 4.5-13.2-11.1-8.4 14 .2 4.5-13.2 4.1 13.4 14 .2-11.5 8 4 13.4zm56.1-1.2-8-3-5.3 6.7.4-8.5-8-3 8.2-2.3.3-8.5 4.7 7.1 8.2-2.3-5.3 6.7 4.8 7.1zm-142-1.2-8-3-5.3 6.7.4-8.5-8-3 8.2-2.2.4-8.5 4.7 7.1 8.2-2.2-5.3 6.7 4.7 6.9zm-260.9-4.1-13.3-10.2-13.8 9.5 5.7-15.9-13.5-10.1 16.8.4 5.6-15.8 4.8 16.1 16.8.4-13.8 9.6 4.7 16zm880.3-8.2-17.5-11.6-16.4 13.1 5.6-20.2-17.6-11.5 20.9-1 5.6-20.3 7.4 19.7 21-1-16.4 13.1 7.4 19.7zm-814.8 12.3-12.1-8.7-12 8.8 4.5-14.1-12.1-8.7 14.9-.1 4.5-14.2 4.7 14.1 14.9-.1-12 8.9 4.7 14.1zm-33 39.4-12.4-8.3-11.8 9.2 4.2-14.4-12.3-8.4 14.9-.4 4.2-14.3 5 14 14.9-.5-11.8 9.2 5.1 13.9zm276.8-36.4-21-15.5-21.3 15.2 8.3-24.8-21-15.5 26.1.2 8.3-24.8 7.8 25 26.2.2-21.3 15.2 7.9 24.8zm-571.9 7-11.6-9-12.1 8.3 4.9-13.8-11.6-8.9 14.6.3 4.9-13.8 4.2 14 14.6.4-12 8.3 4.1 14.2zm-72.7-21.7-11.4-9.2-12.3 8 5.2-13.7-11.4-9.1 14.6.7 5.2-13.7 3.9 14.1 14.6.7-12.2 8 3.8 14.2zm514.7 6.5-16.9-11.3-16 12.6 5.6-19.5-16.9-11.4 20.3-.8 5.5-19.6 7 19.1 20.4-.8-16 12.6 7 19.1zM885.2 432l-16.9-11.3-16 12.5 5.6-19.6-17-11.3 20.4-.7 5.5-19.6 7 19.2 20.3-.8-16 12.6 7.1 19zm-191.4-16.8-14.3-15.7-19.4 8.8 10.5-18.5-14.4-15.8 20.9 4.3 10.5-18.5 2.4 21.1 20.8 4.3-19.4 8.8 2.4 21.2zm-104.5-10-17.2-12.4-17.2 12.6 6.5-20.2-17.3-12.4 21.3-.1 6.5-20.2 6.7 20.2h21.3l-17.1 12.5 6.5 20zm-482.8-9.3-13.4-.1-4.3 12.6-4-12.7-13.4-.1 10.9-7.8-4-12.7 10.7 8 10.9-7.8-4.3 12.7 10.9 7.9zm370-2.6-12.3-10.8-14.1 8.4 6.5-15-12.3-10.9 16.3 1.5 6.5-15 3.5 16 16.3 1.6-14.1 8.4 3.7 15.8zM360 406.4l-16.9-11.8-16.5 12.4 6.1-19.7-16.9-11.8 20.6-.3 6.1-19.7 6.7 19.3 20.6-.3-16.4 12.3 6.6 19.6zm-80.5 5.4-16.9-11.9-16.5 12.4 6-19.7-16.8-11.9 20.6-.3 6-19.7 6.7 19.5 20.6-.3-16.5 12.4 6.8 19.5zM385.7 422l-5.6-8.3-9.5 2.8 6.1-7.8-5.6-8.2 9.3 3.4 6.1-7.9-.3 9.9 9.3 3.4-9.5 2.7-.3 10zm-360.9 8.2-9.5-3.1-5.9 8v-9.9L0 422.1l9.4-3.1v-10l5.8 8 9.5-3-5.9 8.1 6 8.1zm169.7 3.3-14.8-4.8-9.2 12.6v-15.5l-14.8-4.8 14.8-4.8.1-15.5 9.1 12.6 14.8-4.8-9.2 12.6 9.2 12.4z"/><path id="Fill-5" class="st0" d="M1236.7 70.1s3.4 13.1 7.8 15l-15-2.4c-.1 0 1.8-9.7 7.2-12.6zM620.5 55.6c8.1-10.5 14.1-8.3 14.1-8.3s0 2.4-2.9 2.9-4.4 3.4-5.3 8.7c-.6 3.3-4.5 8-6.8 9.2-4.4 2.4-4.4 4.3-4.4 4.3-2.4-.5-7.9-.1-7.9-.1l13.2-16.7zm43.2 169.2s-10.2 1-21.3-24.7l5.3-3.4 20.4 18-4.4 10.1zm7.7-26.2-7.8-10.2 8.3-5.3-.5 15.5zm205.8 71.3c-7.3 6.3-4.9 7.8-4.9 7.8l7.7 7.3c-5.8 2.9-18.4 2.4-18.4 2.4L880 252c11.2-20.4 21.4-17 21.4-17-1 10.7-24.2 34.9-24.2 34.9zm66.9-63.5c-10.2 12.1-35.4-4.9-35.4-4.9l-1 7.3c-9.2-1.4-21.3-9.7-21.3-9.7l62.1-15c1 23.7-4.4 22.3-4.4 22.3zm-260.1-80c-19.9 21.8-24.7 16.5-24.7 16.5l24.7-16.5zm-46.4 151.8c0-1.7 1-3.3 2.4-4l3.8-.3c1.7.6 2.9 2.3 2.9 4.3 0 2.5-2 4.5-4.5 4.5-2.6.1-4.6-2-4.6-4.5zm-1.1-56.6c-11 1-21 5.1-29.3 11.4l-23.6-9.1 7.8-14.5 32-3.4c0-.1 5.4 8 13.1 15.6zm42.8 13.6-1.2-1 .2-.2c14.1-19.9 12.6-45.1 11.6-55.3s2.9-11.1 2.9-11.1l10.7 9.2 9.7-7.8-12.6-13.1c-10.2-9.2-23.3.5-23.3.5L654 174.3l-11.6-12.6c-2.9-10.7-11.2-14-11.2-14S605 137.5 600.6 136c-4.4-1.5-1.5-2.9-1.5-2.9l35.9-22.3c3.9-4.4 10.2-1.5 10.2-1.5l15.5 7.3c7.3 3.4 22.8 2.4 22.8 2.4s-18.9 12.2-27.7 17.5c-8.7 5.4-8.7 11.1-8.7 11.1 26.2 8.7 42.2-16.5 42.2-16.5l21.4-19.4c22.8-.5 24.7-11.7 24.7-11.7L796 83c112.1-32 173.7-26.7 173.7-26.7 77.6 6.8 160.6 26.2 160.6 26.2l-5.3 5.3 14.6.5c-19.4 35.4-96.1 27.2-96.1 27.2s-17.9-3.4-43.2-2.4c-25.2 1-34.9 14-34.9 14-12.6-28.1-43.7-16-43.7-16l-46.1 17c-46.1 22.4-104.3 27.7-104.3 27.7 16.5 17 51.4 16 51.4 16l-11.6 7.7c68.9 16 106.7-18.9 106.7-18.9 7.3-4.9 25.7-19.4 25.7-19.4 5.8-5.8 11.6 1 11.6 1-6.3 10.2-5.8 32-5.8 32s-250.9 58.2-262.5 60.1c-4 .9-6.3 1-7.5.9zm-95.1 43.9c0 31.8 25.9 57.7 57.7 57.7s57.7-25.9 57.7-57.7c0-13.5-4.6-25.9-12.4-35.8l43.2-9.5 152.1-34.2s-6.2 48-51.3 74.6c0 0 12.1 5.3 9.7 7.8 0 0 0 3.4-25.2 3.9l-4.8 42.6s34-17.9 45.6-33.9V329s39.8-24.7 45.1-46.6c0 0 7.3-43.2 28.1-45.6 0 0 93.7 16.5 104.3-32 0 0 104.8 30.6 140.2 4.4 0 0 1 15 22.8 11.1 0 0 35.4-7.8 42.2-8.7 6.8-1 37.3-3.4 46.1 4.4 8.7 7.8 24.8 20.4 24.8 20.4s4.4 3.4 9.2 3.4h15.1v15.5s-.5 2.9 4.8 4.4c5.3 1.4 42.7 7.3 42.7 7.3s-10.2-32.5-34.9-33l-1.5-9.2s0-4.4-6.8-5.4c0 0-17.9-.9-29.1-12.1 0 0-9.2-8.3-10.2-12.2s-4.9-8.7-13.6-8.7-33-.5-33-.5l32.1-24.3 29.6 24.7s3.9 2.9 9.2 3.4c5.3.5 9.7 1 9.7 1l.5 14s-.4 2.9 3.4 3.9c3.9 1 39.8 7.3 39.8 7.3s-12.6-28.1-27.2-30.6l-.5-12.6s-.5-2-3.4-2.4c-2.9-.5-28.6-7.3-36.4-20.4l-11.6-12.6s-6.3-7.8-16-2.4l-40.3 27.7s-8.2-30.1-13.1-40.7l11.1-3.4-1-10.2-11.6 2.9 1.5-22.8 23.8 5.3s4.9 1 4.4 5.8c0 0-.9 12.6 3.9 14.5 0 0 9.2 5.4 9.7-3.4 0 0 2.4-11.7 5.3-3.4l2.9 8.7s11.1 4.8 14-6.8c0 0 0-7.8-1-16.5 0 0-1.5-18.9 2.9-20.8 0 0 3-3.9 1-14.1l-1.5-15s17-1.5 12.1-27.2l-12.1 3.9.5-17s-13.1 3.9-19.4 14.1c0 0-13.6-14.1-38.8-16.5v3.9s-21.3-5.8-42.2.5l4.9 7.7s-29.1 12.1-33.5 16c0 0-13.1 13.1-14.5 17.5h9.2L1147.1 66S1029.7 35 1003 34c0 0-94.6-9.7-167.9 12.6 0 0-87.8 25.7-133.4 60.1 0 0-22.8 1-32-4.8l-23.8-13.1 1.9-4.3V68l7.3 3.9s11.3-11-.5-18.4L665 37.3l-5.5-1.5-2.4 3.7s-11.8-7.1-25.9-4.7c0 0-13.6 2-25.7 16.8l-11.4 16.2s-53.9-10.8-80.5-8.1c0 0-36.7 4.6-36.3 17.4 0 0-.2 5.9 4.6 9.9 0 0 2.4 3.4-1 3.7 0 0-88.2 8.1-87.5 24.6 0 0-2.7 4.7 10.8 10.5 0 0 4.4 1.7-11.4 3.7 0 0-29.9 6-42.1 12.1 0 0-55.5 31.6-58.2 32.7-2.7 1-18.9 8.4-24.2 9.1 0 0 10.4 1.3 33-5.1 0 0 49.4-15.3 62.3-19.8 0 0 27.6-7.4 40.4-6.7 12.8.7 53.8 1.7 51.8-5.7 0 0 1-4.4-3.7-10.5 0 0-2.7-7.7 5.4-9.8 8.1-2 18.9-4.3 29.6-4 10.8.3 55.9-1.7 53.5-10.1 0 0 1.7-2.4-4-8.8 0 0-1-4.7 3.4-5.7s25.6-8.4 56.9-1.7l-35 34s-10.8 18.8 2.7 29.6c0 0 12.1 9.1 32 15.8l19.9 8.8s4 2.7 2.7 7.7c0 0-41.1 12.1-104-6.7 0 0-16.5 14.1-18.2 22.5 0 0-4.7 17.2-4.4 21.9 0 0 42.1-3.7 56.5 0 14.3 3.7 45.6 16.6 46.1 16.8-2.4 3.4-4.4 7-6 10.8l-12.2 2.7 2.7 8.4 6.4-1.5c-1.4 4.1-1.9 8.4-1.9 12.8zM619 237c6.8-3.7 14.6-5.8 22.8-5.8 2.7 0 5.4.2 8 .7 1.7.9 3.4 1.6 5.1 2.2 0-.1-8 10.7-35.9 2.9zm-17.9 17c1-1.7 2.2-3.3 3.4-4.8l7.4 2.4-10.8 2.4zm-7.1 25.1c0-5.4.9-10.6 2.6-15.4l11.9-2.9 1.7 10.8s14.8-3 18.5-.7l7.1 4.5c-.4.9-.6 1.8-.6 2.9 0 3.8 3.1 6.9 6.9 6.9 3.8 0 6.9-3.1 6.9-6.9 0-2.4-1.2-4.5-3-5.7.5-.8 1.2-1.8 1.8-3.4 1.3-3.4 6.4-7.7 11.8-8.1 5.4-.3 5.7-1 5.7-1l-1-11.8 11.8-2.6c8.4 8.6 13.5 20.4 13.5 33.4 0 26.4-21.5 47.8-47.8 47.8-26.3 0-47.8-21.4-47.8-47.8zm543.7-202.2s-134.4-29.6-198.5-26.7c0 0-54.3 2.5-110.6 17l-91.2 25.7s101.4-54.3 201.4-54.8c0 0 88.3-4.9 203.3 34.9l-4.4 3.9zm257.7 541.5h28.1l4.8-22.5h28.6l5.4 22.5h28.2L1458.4 484h-30.7l-32.3 134.4zm47-103.7h.3l.7 6.8c1.3 11.5 3 23.3 4.7 33.6 1.3 6.6 1.6 9.5 3.3 16.7h-18.2c1.5-5.4 3.1-13.4 4.2-20.8l5-36.3zM940.7 618.4h27.7V484h-27.7v134.4zm-257.6 0h27.7v-61.2h.4l22.1 61.2h28.9l-21.9-60.6c4.3-2.7 5.9-4.1 8.3-7.2 5.2-6.6 8.3-15.9 8.3-25.4 0-25.6-16.1-41.2-41.9-41.2h-31.9v134.4zm516.3-137.6c9.6-.4 17.3.7 23.4 2.9v28.9c-3.9-2.3-8.3-3.6-13-3.6-22.7 0-27.5 19.6-27.5 43.7 0 21.7 4.9 44.7 21 43.1v-27.7h-8.4v-20.3h32.2v70.7c-6.8 2.6-15.7 3.6-27.6 3.3-29-.7-47.9-31.6-47.9-70.6-.1-38.8 21.4-69.2 47.8-70.4zm-488.7 29.1c12.8.4 18 5.2 18 17.7 0 9-6.3 14-18 14.2v-31.9zm-291.8-26.2h27.7v94.6c0 8.9 5 14.4 12.2 14.4 7.4 0 12.2-6 12.2-15.4v-93.6h27.7v88.2c0 19.6-3.7 32.8-11.7 40.6-6.7 6.8-14.5 9.3-28.2 9.3-28.9 0-39.9-14.8-39.9-54.6v-83.5zM157 618.4h28l4.8-22.5h28.6l5.4 22.5H252L219.9 484h-30.8L157 618.4zm46.9-103.7h.4l.7 6.8c1.3 11.5 3 23.3 4.7 33.6 1.3 6.6 1.7 9.5 3.4 16.7h-18.2c1.5-5.4 3.2-13.4 4.3-20.8l4.7-36.3z"/></g></g></g></svg>