<?xml version="1.0" encoding="UTF-8"?>
<!DOCTYPE svg PUBLIC "-//W3C//DTD SVG 1.1//EN" "http://www.w3.org/Graphics/SVG/1.1/DTD/svg11.dtd">
<svg xmlns="http://www.w3.org/2000/svg" version="1.1" width="330px" height="300px" style="shape-rendering:geometricPrecision; text-rendering:geometricPrecision; image-rendering:optimizeQuality; fill-rule:evenodd; clip-rule:evenodd" xmlns:xlink="http://www.w3.org/1999/xlink">
<g><path style="opacity:0.928" fill="#c9a252" d="M 186.5,-0.5 C 188.5,-0.5 190.5,-0.5 192.5,-0.5C 199.918,0.688296 206.084,4.35496 211,10.5C 212.103,12.7579 212.936,15.0912 213.5,17.5C 213.43,18.7716 213.097,19.9383 212.5,21C 216.702,21.597 221.035,22.097 225.5,22.5C 229.79,19.4575 234.457,17.9575 239.5,18C 241.636,20.8997 243.303,24.0664 244.5,27.5C 245.748,28.0402 246.915,28.7069 248,29.5C 249.279,32.1117 250.945,34.4451 253,36.5C 253.494,38.1341 253.66,39.8008 253.5,41.5C 254.552,41.3505 255.552,41.5172 256.5,42C 258.606,45.0005 261.106,47.5005 264,49.5C 264.675,53.8651 265.508,58.1984 266.5,62.5C 266.61,64.374 265.944,65.874 264.5,67C 267.699,71.893 270.532,77.0597 273,82.5C 276.466,85.6874 280.466,86.3541 285,84.5C 291.119,85.9046 297.286,87.0713 303.5,88C 305.189,90.5068 307.522,92.0068 310.5,92.5C 314.548,97.0685 315.215,102.069 312.5,107.5C 313.866,110.692 314.699,114.026 315,117.5C 319.971,119.66 324.804,121.994 329.5,124.5C 329.5,126.5 329.5,128.5 329.5,130.5C 327.714,134.525 325.048,138.025 321.5,141C 320.167,141.333 318.833,141.667 317.5,142C 318.772,144.044 318.439,145.878 316.5,147.5C 311.886,148.756 307.219,149.756 302.5,150.5C 302.67,151.822 302.337,152.989 301.5,154C 299.5,154.833 297.5,155.667 295.5,156.5C 292.386,160.39 293.052,161.89 297.5,161C 300.928,163.425 304.594,165.425 308.5,167C 309.983,170.934 311.649,174.767 313.5,178.5C 312.554,181.726 311.054,184.726 309,187.5C 307.336,192.457 307.003,197.457 308,202.5C 306.566,206.603 303.733,208.603 299.5,208.5C 299.579,209.93 299.246,211.264 298.5,212.5C 296.947,213.439 295.613,214.606 294.5,216C 296.934,218.434 299.434,220.934 302,223.5C 302.684,228.452 301.518,232.952 298.5,237C 299.441,246.178 295.108,251.012 285.5,251.5C 285.462,254.181 286.129,256.681 287.5,259C 284.853,266.985 279.353,271.152 271,271.5C 268.739,271.561 266.739,270.894 265,269.5C 260.196,271.898 257.696,275.898 257.5,281.5C 264.503,280.673 267.003,283.673 265,290.5C 263.758,291.872 262.258,292.872 260.5,293.5C 259.794,295.704 258.794,297.704 257.5,299.5C 255.5,299.5 253.5,299.5 251.5,299.5C 250.386,298.115 249.386,296.615 248.5,295C 245.54,295.32 242.54,295.32 239.5,295C 238.667,294.167 237.833,293.333 237,292.5C 236.116,289.065 234.949,285.732 233.5,282.5C 229.367,280.867 226.867,277.867 226,273.5C 225.079,269.531 223.912,265.698 222.5,262C 222.933,260.072 223.6,258.239 224.5,256.5C 223.611,253.721 222.444,251.055 221,248.5C 216.222,245.56 212.722,241.56 210.5,236.5C 206.469,235.687 204.136,233.354 203.5,229.5C 200.729,229.421 198.063,229.921 195.5,231C 192.568,233.614 189.401,235.781 186,237.5C 182.865,236.424 179.698,235.424 176.5,234.5C 175.433,232.441 174.1,230.608 172.5,229C 168.541,228.721 164.708,227.887 161,226.5C 155.547,230.801 150.047,234.967 144.5,239C 140.952,240.59 137.452,242.09 134,243.5C 131.855,243.604 130.021,242.937 128.5,241.5C 121.433,243.088 115.433,241.255 110.5,236C 107.993,235.907 105.826,235.074 104,233.5C 102.333,234.833 100.667,234.833 99,233.5C 100.315,238.217 98.8146,241.884 94.5,244.5C 96.667,247.794 96.8337,251.127 95,254.5C 88.1607,260.014 80.994,265.181 73.5,270C 69.0038,272.167 64.8371,271.667 61,268.5C 57.5829,270.786 54.0829,270.952 50.5,269C 49.0813,265.837 49.4146,262.837 51.5,260C 48.5399,260.32 45.5399,260.32 42.5,260C 38.4992,257.893 37.4992,254.727 39.5,250.5C 37.1952,249.769 35.3618,248.436 34,246.5C 34.095,243.356 33.9283,240.356 33.5,237.5C 31.8561,237.714 30.3561,237.38 29,236.5C 26.8273,233.654 25.3273,230.488 24.5,227C 25.2705,224.729 26.2705,222.562 27.5,220.5C 26.411,214.52 24.7443,208.687 22.5,203C 23.5,200.667 24.5,198.333 25.5,196C 23.3878,190.022 21.0545,184.189 18.5,178.5C 18.7858,174.881 20.7858,172.881 24.5,172.5C 25.8333,170.167 25.8333,167.833 24.5,165.5C 20.841,160.397 16.341,156.064 11,152.5C 9.20434,145.562 5.37101,140.228 -0.5,136.5C -0.5,134.167 -0.5,131.833 -0.5,129.5C 1.21328,127.15 3.54661,126.15 6.5,126.5C 9.00223,118.967 12.0022,111.467 15.5,104C 20.5849,103.361 25.4182,104.195 30,106.5C 31.7373,104.375 33.904,103.542 36.5,104C 40.2211,106.527 44.2211,108.527 48.5,110C 51.6201,112.408 52.9534,115.574 52.5,119.5C 55.8621,119.07 58.6954,120.07 61,122.5C 64.8181,121.141 68.4848,121.474 72,123.5C 75.1235,122.568 77.9568,121.068 80.5,119C 82.4727,118.505 84.4727,118.338 86.5,118.5C 87.1047,113.336 90.1047,110.669 95.5,110.5C 99.1601,107.524 100.16,103.858 98.5,99.5C 99.8674,94.5378 103.034,92.8711 108,94.5C 109.768,92.0688 112.101,90.4021 115,89.5C 115.873,89.7355 116.707,90.0688 117.5,90.5C 118.819,86.9223 119.819,83.2556 120.5,79.5C 123.193,77.7298 126.193,77.0632 129.5,77.5C 129.597,67.9726 133.43,60.306 141,54.5C 144.251,47.6059 149.417,42.6059 156.5,39.5C 153.247,34.599 154.247,30.9323 159.5,28.5C 160.022,24.2533 161.189,20.2533 163,16.5C 165.627,12.8473 168.96,11.8473 173,13.5C 174.044,11.2852 174.71,8.9519 175,6.5C 177.624,4.96484 180.457,3.79817 183.5,3C 184.71,1.9609 185.71,0.794229 186.5,-0.5 Z"/></g>
<g><path style="opacity:1" fill="#4b70b6" d="M 307.5,182.5 C 307.338,180.176 306.172,178.509 304,177.5C 303.845,175.144 303.845,172.811 304,170.5C 302.644,171.38 301.144,171.714 299.5,171.5C 298.219,166.621 296.052,165.955 293,169.5C 291.54,167.534 289.873,165.868 288,164.5C 286.403,165.885 284.57,166.551 282.5,166.5C 282.5,168.5 282.5,170.5 282.5,172.5C 279.833,172.5 277.167,172.5 274.5,172.5C 274.819,174.75 274.319,176.75 273,178.5C 269.707,177.469 266.54,177.969 263.5,180C 258.825,183.664 255.325,188.164 253,193.5C 251.989,194.337 250.822,194.67 249.5,194.5C 249.843,196.483 249.176,197.817 247.5,198.5C 246.756,195.05 248.09,193.384 251.5,193.5C 251.393,191.097 252.393,189.264 254.5,188C 251.774,187.818 249.107,187.318 246.5,186.5C 249.06,183.473 248.227,181.473 244,180.5C 236.96,182.692 233.127,187.359 232.5,194.5C 231.662,194.158 231.328,193.492 231.5,192.5C 233.968,186.985 232.301,183.652 226.5,182.5C 225.336,178.839 223.67,175.506 221.5,172.5C 221.833,171.5 222.5,170.833 223.5,170.5C 224.833,174.167 226.167,177.833 227.5,181.5C 230.092,181.546 232.259,182.546 234,184.5C 237.32,182.716 240.486,180.716 243.5,178.5C 245.413,179.373 247.247,180.373 249,181.5C 249.72,183.112 249.554,184.612 248.5,186C 250.833,186.667 253.167,186.667 255.5,186C 259.271,180.858 264.104,177.358 270,175.5C 271.162,176.187 272.328,176.353 273.5,176C 272.167,174.333 272.167,172.667 273.5,171C 276.226,170.818 278.893,170.318 281.5,169.5C 280.691,167.929 280.357,166.262 280.5,164.5C 281.93,164.421 283.264,164.754 284.5,165.5C 285.719,164.354 287.052,163.354 288.5,162.5C 287.469,161.3 286.635,159.966 286,158.5C 285.667,158.833 285.333,159.167 285,159.5C 284.517,158.552 284.351,157.552 284.5,156.5C 285.5,156.5 286.5,156.5 287.5,156.5C 287.579,153.729 287.079,151.063 286,148.5C 284.364,150.898 282.198,152.065 279.5,152C 278.884,149.821 277.717,147.988 276,146.5C 276.298,141.991 274.298,139.324 270,138.5C 269.591,136.009 268.424,134.009 266.5,132.5C 267.936,131.066 269.602,129.9 271.5,129C 269.863,122.514 266.196,121.014 260.5,124.5C 257.021,126.812 254.021,129.646 251.5,133C 247.081,133.412 243.415,135.246 240.5,138.5C 239.702,136.922 239.202,135.256 239,133.5C 238.888,136.447 237.388,137.78 234.5,137.5C 236.286,140.641 235.786,143.308 233,145.5C 230.599,144.398 228.099,144.231 225.5,145C 223.848,147.778 222.514,150.611 221.5,153.5C 221.084,144.742 225.084,141.242 233.5,143C 233.833,142.667 234.167,142.333 234.5,142C 232.032,140.412 231.866,138.578 234,136.5C 236.739,133.992 239.239,131.325 241.5,128.5C 241.631,127.624 241.298,126.957 240.5,126.5C 237.917,127.938 235.583,127.604 233.5,125.5C 234.167,124.5 234.833,123.5 235.5,122.5C 232.031,120.201 228.698,117.701 225.5,115C 218.261,112.613 211.594,113.78 205.5,118.5C 204.158,116.995 202.492,116.328 200.5,116.5C 200.833,119.5 199.5,120.833 196.5,120.5C 196.5,120.167 196.5,119.833 196.5,119.5C 198.054,118.086 199.388,116.419 200.5,114.5C 202.5,115.167 204.5,115.833 206.5,116.5C 207.833,115.833 208.833,114.833 209.5,113.5C 211.5,112.833 213.5,112.167 215.5,111.5C 214.652,109.591 214.318,107.591 214.5,105.5C 210.192,106.368 205.859,106.534 201.5,106C 199.212,103.257 197.045,100.423 195,97.5C 193.855,98.6843 192.688,98.6843 191.5,97.5C 190.662,97.1583 190.328,96.4916 190.5,95.5C 191.695,95.6775 192.862,96.0109 194,96.5C 195.737,95.3802 197.571,94.3802 199.5,93.5C 205.552,93.8882 211.386,95.2215 217,97.5C 221.778,92.1438 223.778,85.8104 223,78.5C 225.252,77.0926 226.418,75.0926 226.5,72.5C 225.833,69.8333 225.167,67.1667 224.5,64.5C 226.246,58.2139 225.579,52.2139 222.5,46.5C 219.147,44.8232 216.147,42.6566 213.5,40C 211.193,39.7287 210.026,40.8953 210,43.5C 206.122,44.5877 204.956,46.921 206.5,50.5C 204.441,51.9512 203.441,53.9512 203.5,56.5C 202.167,56.5 200.833,56.5 199.5,56.5C 199.5,57.5 199.5,58.5 199.5,59.5C 198.178,59.33 197.011,59.6634 196,60.5C 195.859,64.3082 194.359,67.4749 191.5,70C 190.594,72.7906 189.927,75.6239 189.5,78.5C 188.5,78.5 187.5,78.5 186.5,78.5C 185.833,78.5 185.5,78.1667 185.5,77.5C 186.5,77.5 187.5,77.5 188.5,77.5C 187.928,72.0233 189.761,67.6899 194,64.5C 194.333,62.8333 194.667,61.1667 195,59.5C 196.011,58.6634 197.178,58.33 198.5,58.5C 198.5,57.5 198.5,56.5 198.5,55.5C 201.205,55.6198 201.872,54.6198 200.5,52.5C 194.922,51.6201 190.922,48.7868 188.5,44C 184.865,43.1836 181.865,41.3502 179.5,38.5C 178.167,39.8333 176.833,39.8333 175.5,38.5C 174.034,36.1791 172.201,34.1791 170,32.5C 168.675,34.3382 166.841,35.3382 164.5,35.5C 163.164,34.5772 161.83,34.0772 160.5,34C 161.787,37.1247 161.787,40.2913 160.5,43.5C 156.428,44.2322 153.095,46.2322 150.5,49.5C 150.024,52.1191 148.691,54.1191 146.5,55.5C 148.665,56.8804 148.999,58.5471 147.5,60.5C 146.926,59.4719 146.593,58.4719 146.5,57.5C 143.467,58.482 141.8,60.482 141.5,63.5C 137.946,63.6584 136.613,65.3251 137.5,68.5C 136.855,69.646 136.022,70.646 135,71.5C 134.384,74.7576 134.717,77.7576 136,80.5C 133.398,81.8356 130.731,83.169 128,84.5C 126.739,84.2409 125.739,83.5742 125,82.5C 123.816,86.4489 123.482,90.4489 124,94.5C 127.417,97.2554 131.084,99.5888 135,101.5C 135.015,103.791 135.182,105.958 135.5,108C 145.471,107.807 150.804,112.64 151.5,122.5C 155.372,122.758 159.039,122.091 162.5,120.5C 162.443,121.609 162.11,122.609 161.5,123.5C 159.139,123.674 156.806,124.007 154.5,124.5C 154.215,126.288 154.548,127.955 155.5,129.5C 157.288,130.283 158.288,131.616 158.5,133.5C 158.5,133.833 158.5,134.167 158.5,134.5C 157.609,135.11 156.609,135.443 155.5,135.5C 154.508,135.672 153.842,135.338 153.5,134.5C 154.766,133.91 156.099,133.41 157.5,133C 152.762,127.237 149.262,120.737 147,113.5C 145.601,112.773 144.101,112.273 142.5,112C 141.874,111.25 141.374,110.416 141,109.5C 137.506,110.612 134.673,109.612 132.5,106.5C 133.681,104.802 133.681,103.135 132.5,101.5C 130.79,102.687 129.29,102.354 128,100.5C 126.535,99.6705 125.035,99.5038 123.5,100C 122.66,101.666 123.16,101.833 125,100.5C 125.74,103.176 126.073,105.842 126,108.5C 122.511,111.337 119.344,111.004 116.5,107.5C 114.697,108.594 114.364,110.261 115.5,112.5C 114.79,115.589 113.79,118.589 112.5,121.5C 112.555,126.575 114.888,128.575 119.5,127.5C 120.902,127.865 121.902,128.699 122.5,130C 121.922,131.811 121.422,133.645 121,135.5C 118.52,136.982 116.353,138.815 114.5,141C 118.543,145.188 122.876,145.355 127.5,141.5C 128.833,142.833 130.167,142.833 131.5,141.5C 132.068,144.412 132.068,147.412 131.5,150.5C 135.198,150.448 138.865,150.114 142.5,149.5C 142.5,149.833 142.5,150.167 142.5,150.5C 139.64,151.244 136.64,151.911 133.5,152.5C 129.157,151.14 128.157,148.474 130.5,144.5C 129.178,144.67 128.011,144.337 127,143.5C 122.656,146.829 118.489,146.829 114.5,143.5C 113.614,144.325 113.281,145.325 113.5,146.5C 109.568,147.571 105.735,148.904 102,150.5C 101.333,149.833 100.667,149.167 100,148.5C 99.5506,151.132 98.7173,153.632 97.5,156C 98.464,157.964 99.7974,159.63 101.5,161C 100.846,162.987 99.513,164.32 97.5,165C 99.8208,168.165 102.154,171.332 104.5,174.5C 105.736,175.246 107.07,175.579 108.5,175.5C 108.5,177.167 108.5,178.833 108.5,180.5C 110.766,180.141 112.599,180.808 114,182.5C 115.11,180.757 116.61,179.424 118.5,178.5C 118.291,177.914 117.957,177.414 117.5,177C 118.64,175.027 119.973,173.193 121.5,171.5C 123.844,173.02 126.011,174.687 128,176.5C 131.454,175.727 134.954,175.727 138.5,176.5C 138.672,177.492 138.338,178.158 137.5,178.5C 134.145,177.382 130.812,177.382 127.5,178.5C 125.517,177.018 123.684,175.351 122,173.5C 119.832,174.629 119.332,176.129 120.5,178C 118.833,180 117.167,182 115.5,184C 111.138,182.29 106.471,181.456 101.5,181.5C 101.735,178.188 100.735,177.355 98.5,179C 101.847,185.222 103.513,191.722 103.5,198.5C 101.885,199.154 100.218,199.654 98.5,200C 97.9781,200.561 97.6448,201.228 97.5,202C 100.211,205.755 103.711,208.589 108,210.5C 108.562,212.866 108.396,215.199 107.5,217.5C 108.523,219.003 109.523,220.503 110.5,222C 108.937,224.06 106.937,225.56 104.5,226.5C 109.985,229.193 115.151,232.527 120,236.5C 122.185,235.242 124.352,235.242 126.5,236.5C 130.143,233.368 132.643,234.034 134,238.5C 135.509,236.081 137.675,235.081 140.5,235.5C 140.581,232.284 141.081,229.284 142,226.5C 140.204,225.233 138.371,225.233 136.5,226.5C 135.752,224.668 134.752,223.001 133.5,221.5C 134.833,220.167 134.833,218.833 133.5,217.5C 136.931,214.716 140.765,212.716 145,211.5C 143.954,209.098 143.454,206.432 143.5,203.5C 144.167,203.5 144.833,203.5 145.5,203.5C 145.877,206.525 146.044,209.525 146,212.5C 142.653,214.553 139.153,216.387 135.5,218C 135.258,220.072 135.591,222.239 136.5,224.5C 141.058,223.38 143.891,225.047 145,229.5C 145.308,228.692 145.808,228.025 146.5,227.5C 147.768,228.428 149.101,228.595 150.5,228C 152.955,226.058 154.288,223.558 154.5,220.5C 159.548,220.44 164.382,221.44 169,223.5C 170.865,223.294 172.532,222.628 174,221.5C 175.882,222.093 176.882,223.427 177,225.5C 178.365,224.407 178.699,223.074 178,221.5C 172.749,218.967 170.082,214.967 170,209.5C 172.982,207.804 174.316,205.137 174,201.5C 176.306,200.863 177.473,199.363 177.5,197C 176.465,195.162 175.465,193.329 174.5,191.5C 174.846,190.151 175.179,188.817 175.5,187.5C 175.5,186.833 175.833,186.5 176.5,186.5C 176.338,188.527 176.505,190.527 177,192.5C 180.713,196.696 180.047,200.03 175,202.5C 175.037,206.217 173.871,209.384 171.5,212C 173.228,216.066 176.061,219.233 180,221.5C 180.483,222.448 180.649,223.448 180.5,224.5C 185.34,225.188 185.673,226.855 181.5,229.5C 182.328,230.415 183.328,231.081 184.5,231.5C 188.788,228.018 193.455,225.185 198.5,223C 200.797,222.982 203.131,223.149 205.5,223.5C 205.5,219.5 205.5,215.5 205.5,211.5C 212.833,211.822 220.166,211.322 227.5,210C 229.834,208.158 230.168,205.991 228.5,203.5C 229.167,203.5 229.833,203.5 230.5,203.5C 230.708,205.92 230.374,208.253 229.5,210.5C 222.522,212.446 215.522,213.279 208.5,213C 207.267,218.478 207.434,223.978 209,229.5C 214.711,229.712 217.544,232.712 217.5,238.5C 220.152,239.653 222.152,241.487 223.5,244C 224.793,244.49 226.127,244.657 227.5,244.5C 227.201,246.604 227.534,248.604 228.5,250.5C 230.401,252.006 232.068,253.673 233.5,255.5C 232.624,255.369 231.957,255.702 231.5,256.5C 230.877,258.711 229.877,260.711 228.5,262.5C 229.213,264.776 229.713,267.109 230,269.5C 231.675,271.773 232.842,274.273 233.5,277C 235.134,277.494 236.801,277.66 238.5,277.5C 238.833,280.167 239.167,282.833 239.5,285.5C 240.5,285.5 241.5,285.5 242.5,285.5C 242.579,286.93 242.246,288.264 241.5,289.5C 241.957,290.298 242.624,290.631 243.5,290.5C 242.458,291.791 241.292,291.791 240,290.5C 239.383,289.551 239.549,288.718 240.5,288C 238.811,285.443 237.644,282.609 237,279.5C 235.601,278.773 234.101,278.273 232.5,278C 229.597,272.995 227.597,267.662 226.5,262C 227.421,259.55 228.421,257.05 229.5,254.5C 227.04,252.364 225.373,249.698 224.5,246.5C 221.931,244.014 219.264,241.68 216.5,239.5C 215.692,237.577 215.192,235.577 215,233.5C 211.968,232.908 209.302,231.574 207,229.5C 207.379,227.925 207.212,226.425 206.5,225C 204.126,225.402 201.793,225.236 199.5,224.5C 197.383,226.831 194.716,227.997 191.5,228C 190.005,230.161 188.172,231.995 186,233.5C 183.681,232.129 181.181,231.462 178.5,231.5C 178.736,229.027 180.069,227.36 182.5,226.5C 180.602,225.266 178.935,225.599 177.5,227.5C 175.407,226.303 174.24,224.969 174,223.5C 172.374,224.018 170.707,224.352 169,224.5C 164.798,223.598 160.632,222.598 156.5,221.5C 156.657,222.873 156.49,224.207 156,225.5C 152.889,228.944 149.056,231.111 144.5,232C 142.963,233.11 142.297,234.61 142.5,236.5C 138.667,237.025 135,238.025 131.5,239.5C 131.762,238.022 131.429,236.689 130.5,235.5C 129.73,237.272 128.397,238.272 126.5,238.5C 123.525,237.861 120.525,237.361 117.5,237C 113.121,232.177 107.788,230.01 101.5,230.5C 99.3894,229.051 97.0561,228.051 94.5,227.5C 93.2555,228.955 93.4222,230.289 95,231.5C 95.6667,234.167 95.6667,236.833 95,239.5C 93.6012,240.227 92.1012,240.727 90.5,241C 89.9781,241.561 89.6448,242.228 89.5,243C 90.3266,245.407 91.3266,247.74 92.5,250C 91.5925,252.543 89.7592,254.043 87,254.5C 86.6905,255.766 86.1905,256.933 85.5,258C 79.402,260.801 73.5687,263.968 68,267.5C 65.5396,266.687 63.0396,266.02 60.5,265.5C 58.1678,266.172 55.8344,266.339 53.5,266C 53.0426,265.586 52.7093,265.086 52.5,264.5C 54.6049,262.408 56.2716,260.075 57.5,257.5C 58.0967,257.735 58.4301,258.235 58.5,259C 57.7113,260.626 56.7113,262.126 55.5,263.5C 55.8333,263.833 56.1667,264.167 56.5,264.5C 58.7676,263.456 61.1009,263.289 63.5,264C 68.1713,267.408 71.838,266.408 74.5,261C 80.0976,259.711 84.431,256.711 87.5,252C 88.7932,251.51 90.1266,251.343 91.5,251.5C 91.5,250.5 91.5,249.5 91.5,248.5C 90.5,248.5 89.5,248.5 88.5,248.5C 88.3735,246.085 88.2068,243.751 88,241.5C 90.1005,240.076 92.2672,238.742 94.5,237.5C 93.2238,234.148 92.3905,230.815 92,227.5C 95.1948,226.576 98.3615,226.91 101.5,228.5C 102.281,227.271 102.781,225.938 103,224.5C 105.176,224.012 107.009,223.012 108.5,221.5C 107.5,220.833 106.5,220.167 105.5,219.5C 106.177,216.815 106.177,213.982 105.5,211C 102.706,209.536 100.206,207.702 98,205.5C 95.6003,204.956 93.267,204.289 91,203.5C 91.4087,205.225 91.2421,206.892 90.5,208.5C 88.1455,206.812 86.1455,204.812 84.5,202.5C 81.5231,203.071 78.6897,204.071 76,205.5C 75.0853,204.672 74.4186,203.672 74,202.5C 72.4219,205.657 71.4219,208.991 71,212.5C 69.9805,213.687 68.8139,214.687 67.5,215.5C 66.5481,217.045 66.2148,218.712 66.5,220.5C 65.5,220.5 64.5,220.5 63.5,220.5C 62.3527,225.244 63.3527,229.578 66.5,233.5C 62.8383,234.997 59.1717,236.497 55.5,238C 54.9152,239.302 54.2485,240.469 53.5,241.5C 53.7692,243.429 53.2692,245.095 52,246.5C 49.6194,245.565 47.1194,245.232 44.5,245.5C 44.7771,248.448 44.4438,251.281 43.5,254C 44.5634,255.188 45.8967,255.688 47.5,255.5C 45.2051,256.928 43.2051,256.428 41.5,254C 42.435,251.619 42.7683,249.119 42.5,246.5C 40.8561,246.714 39.3561,246.38 38,245.5C 37.7305,242.776 37.2305,240.109 36.5,237.5C 36.8333,236.833 37.1667,236.167 37.5,235.5C 28.2824,232.417 26.6157,227.084 32.5,219.5C 31.1667,217.5 29.8333,215.5 28.5,213.5C 31.1667,212.167 31.1667,210.833 28.5,209.5C 30.0863,207.827 30.7529,205.827 30.5,203.5C 29.1667,203.5 27.8333,203.5 26.5,203.5C 27.5576,200.587 28.8909,197.754 30.5,195C 27.6033,189.509 24.6033,184.009 21.5,178.5C 23.2447,176.541 25.4114,175.208 28,174.5C 28.8544,170.56 29.3544,166.56 29.5,162.5C 26.2699,162.439 24.4365,160.772 24,157.5C 17.1493,154.149 12.6493,148.816 10.5,141.5C 8,139.167 5.5,136.833 3,134.5C 2.90966,129.788 5.07633,128.455 9.5,130.5C 8.45365,126.221 9.95365,123.555 14,122.5C 13.6948,120.557 13.6948,118.557 14,116.5C 15.2862,113.595 16.2862,110.595 17,107.5C 21.7322,106.972 26.2322,107.972 30.5,110.5C 31.9285,109.065 33.5952,108.065 35.5,107.5C 38.7383,109.245 42.0716,110.745 45.5,112C 49.0482,114.591 50.3815,118.091 49.5,122.5C 51.9464,123.203 54.2797,123.537 56.5,123.5C 58.9887,125.811 61.822,126.144 65,124.5C 68.1201,126.027 71.4534,127.027 75,127.5C 77.4475,125.596 79.9475,123.763 82.5,122C 87.6302,122.695 90.6302,120.529 91.5,115.5C 97.3167,113.858 101.483,110.192 104,104.5C 103.86,102.149 103.36,99.8155 102.5,97.5C 105.48,97.6203 108.313,98.287 111,99.5C 112.122,97.5795 112.956,95.5795 113.5,93.5C 115.592,93.5614 117.092,94.5614 118,96.5C 120.407,93.2612 122.24,89.7612 123.5,86C 122.446,84.6124 122.28,83.1124 123,81.5C 126.659,81.2797 130.492,80.613 134.5,79.5C 132.605,77.1329 132.105,74.4663 133,71.5C 134.924,69.1779 136.257,66.5112 137,63.5C 138.959,62.2519 140.459,60.5852 141.5,58.5C 142.325,57.6143 143.325,57.281 144.5,57.5C 146.77,50.2315 151.603,45.2315 159,42.5C 159.741,39.438 159.575,36.438 158.5,33.5C 161.857,33.1912 165.19,32.8578 168.5,32.5C 168.5,31.5 168.5,30.5 168.5,29.5C 167.5,29.5 166.5,29.5 165.5,29.5C 165.214,27.7231 164.547,26.0564 163.5,24.5C 165.514,22.2935 166.514,19.6268 166.5,16.5C 169.565,15.9619 172.565,15.9619 175.5,16.5C 176.959,14.417 178.292,12.2503 179.5,10C 179.043,9.58605 178.709,9.08605 178.5,8.5C 182.85,7.91051 186.35,5.91051 189,2.5C 190.261,2.75908 191.261,3.42575 192,4.5C 193.682,4.19316 195.348,3.85982 197,3.5C 198.225,3.86229 199.391,4.36229 200.5,5C 204.01,8.01438 207.01,11.5144 209.5,15.5C 208.931,18.2103 208.931,21.0436 209.5,24C 213.814,25.5683 218.148,25.7349 222.5,24.5C 222.5,25.5 222.5,26.5 222.5,27.5C 227.161,25.177 231.827,22.8437 236.5,20.5C 239.427,23.0877 240.927,26.421 241,30.5C 242.356,31.3802 243.856,31.7135 245.5,31.5C 244.843,34.8408 246.176,36.8408 249.5,37.5C 250.189,39.444 250.689,41.444 251,43.5C 252.356,44.3802 253.856,44.7135 255.5,44.5C 255.057,48.5291 256.891,50.5291 261,50.5C 261.743,52.4406 261.576,54.2739 260.5,56C 261.944,57.126 262.61,58.626 262.5,60.5C 259.865,66.4775 261.031,71.8108 266,76.5C 266.333,78.1667 266.667,79.8333 267,81.5C 269.375,84.2737 271.875,86.9404 274.5,89.5C 280.341,87.8606 286.007,88.1939 291.5,90.5C 295.096,89.921 298.763,89.921 302.5,90.5C 302.5,91.8333 302.5,93.1667 302.5,94.5C 304.5,94.5 306.5,94.5 308.5,94.5C 307.907,97.5959 308.907,99.9292 311.5,101.5C 310.261,103.311 309.594,105.311 309.5,107.5C 310.082,111.155 310.582,114.822 311,118.5C 312.353,119.685 313.52,121.019 314.5,122.5C 316.48,121.617 318.48,121.783 320.5,123C 321.924,125.218 323.924,126.718 326.5,127.5C 325.138,131.056 323.138,134.222 320.5,137C 318.512,137.18 316.512,137.014 314.5,136.5C 314.5,139.167 314.5,141.833 314.5,144.5C 311.421,144.658 308.254,144.658 305,144.5C 304.692,145.308 304.192,145.975 303.5,146.5C 302.108,145.395 300.941,144.061 300,142.5C 300.375,145.486 299.875,148.486 298.5,151.5C 296.374,147.792 294.041,147.626 291.5,151C 292.059,151.725 292.392,152.558 292.5,153.5C 291.366,155.469 290.033,157.302 288.5,159C 290.017,161.843 291.517,164.677 293,167.5C 296.912,163.753 299.745,164.753 301.5,170.5C 302.503,168.458 303.837,168.125 305.5,169.5C 305.599,172.121 305.933,174.788 306.5,177.5C 308.017,176.089 309.351,176.256 310.5,178C 309.601,179.652 308.601,181.152 307.5,182.5 Z"/></g>
<g><path style="opacity:1" fill="#fcfcfd" d="M 84.5,202.5 C 84.607,200.097 83.607,198.264 81.5,197C 84.2981,194.934 83.9648,193.434 80.5,192.5C 79.4688,189.3 77.8021,186.467 75.5,184C 74.2068,183.51 72.8734,183.343 71.5,183.5C 70.7647,186.928 69.098,187.094 66.5,184C 62.7916,183.162 59.1249,182.329 55.5,181.5C 55.6309,180.624 55.2975,179.957 54.5,179.5C 52.5914,180.348 50.5914,180.682 48.5,180.5C 48.6621,178.473 48.4955,176.473 48,174.5C 47.2496,173.874 46.4162,173.374 45.5,173C 47.1554,171.556 47.822,169.722 47.5,167.5C 52.351,167.975 55.6844,165.975 57.5,161.5C 55.2727,158.381 56.2727,157.714 60.5,159.5C 64.7596,156.421 68.9262,153.087 73,149.5C 79.854,147.408 84.6873,149.575 87.5,156C 91.2171,157.349 94.8838,158.682 98.5,160C 96.8131,161.913 96.3131,164.08 97,166.5C 99.9369,170.721 103.104,174.721 106.5,178.5C 105.758,179.287 104.925,179.953 104,180.5C 102.898,178.619 101.565,176.952 100,175.5C 98.1667,176 97,177.167 96.5,179C 99.2602,182.692 100.76,186.859 101,191.5C 101.5,192.667 102.333,193.5 103.5,194C 102.663,195.011 102.33,196.178 102.5,197.5C 97.7064,196.627 95.373,198.627 95.5,203.5C 93.5,203.167 91.5,202.833 89.5,202.5C 89.6495,203.552 89.4828,204.552 89,205.5C 87.871,203.859 86.371,202.859 84.5,202.5 Z"/></g>
<g><path style="opacity:1" fill="#c32236" d="M 172.5,146.5 C 174.833,146.5 177.167,146.5 179.5,146.5C 179.833,146.5 180.167,146.5 180.5,146.5C 182.833,146.5 185.167,146.5 187.5,146.5C 191.5,147.5 195.5,148.5 199.5,149.5C 200.132,157.573 199.465,165.24 197.5,172.5C 194.272,171.454 190.939,170.788 187.5,170.5C 180.646,170.176 173.979,170.509 167.5,171.5C 165.708,171.366 164.042,171.699 162.5,172.5C 160.537,165.576 159.87,158.243 160.5,150.5C 164.146,148.326 168.146,146.993 172.5,146.5 Z"/></g>
<g><path style="opacity:1" fill="#fafbfc" d="M 142.5,150.5 C 143.933,152.519 145.267,154.686 146.5,157C 140.381,158.529 134.381,160.362 128.5,162.5C 132.387,166.042 136.22,169.709 140,173.5C 140.585,174.998 140.085,175.998 138.5,176.5C 134.954,175.727 131.454,175.727 128,176.5C 126.011,174.687 123.844,173.02 121.5,171.5C 119.973,173.193 118.64,175.027 117.5,177C 117.957,177.414 118.291,177.914 118.5,178.5C 116.61,179.424 115.11,180.757 114,182.5C 112.599,180.808 110.766,180.141 108.5,180.5C 108.5,178.833 108.5,177.167 108.5,175.5C 107.07,175.579 105.736,175.246 104.5,174.5C 102.154,171.332 99.8208,168.165 97.5,165C 99.513,164.32 100.846,162.987 101.5,161C 99.7974,159.63 98.464,157.964 97.5,156C 98.7173,153.632 99.5506,151.132 100,148.5C 100.667,149.167 101.333,149.833 102,150.5C 105.735,148.904 109.568,147.571 113.5,146.5C 113.281,145.325 113.614,144.325 114.5,143.5C 118.489,146.829 122.656,146.829 127,143.5C 128.011,144.337 129.178,144.67 130.5,144.5C 128.157,148.474 129.157,151.14 133.5,152.5C 136.64,151.911 139.64,151.244 142.5,150.5 Z"/></g>
<g><path style="opacity:1" fill="#3461b3" d="M 117.5,148.5 C 118.995,148.415 119.995,149.081 120.5,150.5C 119.68,152.111 118.346,152.778 116.5,152.5C 116.433,151.041 116.766,149.708 117.5,148.5 Z"/></g>
<g><path style="opacity:1" fill="#f4e8d1" d="M 172.5,146.5 C 168.146,146.993 164.146,148.326 160.5,150.5C 159.674,154.982 159.174,159.649 159,164.5C 158.283,163.956 157.783,163.289 157.5,162.5C 154.311,152.923 149.978,143.423 144.5,134C 147.815,133.989 150.981,134.822 154,136.5C 154.765,136.43 155.265,136.097 155.5,135.5C 156.609,135.443 157.609,135.11 158.5,134.5C 158.423,135.75 157.756,136.583 156.5,137C 159.684,138.757 163.018,140.257 166.5,141.5C 169.107,127.527 171.607,113.527 174,99.5C 173.629,115.158 173.129,130.825 172.5,146.5 Z"/></g>
<g><path style="opacity:1" fill="#f4e7d2" d="M 205.5,135.5 C 208.221,134.859 210.888,134.359 213.5,134C 209.086,141.993 205.086,150.16 201.5,158.5C 200.833,155.5 200.167,152.5 199.5,149.5C 195.5,148.5 191.5,147.5 187.5,146.5C 186.915,131.155 186.415,115.822 186,100.5C 187.793,114.261 190.127,127.927 193,141.5C 197.382,139.772 201.548,137.772 205.5,135.5 Z"/></g>
<g><path style="opacity:1" fill="#d9b672" d="M 187.5,86.5 C 188.64,89.3676 189.64,92.3676 190.5,95.5C 190.328,96.4916 190.662,97.1583 191.5,97.5C 192.852,104.907 194.519,112.241 196.5,119.5C 196.5,119.833 196.5,120.167 196.5,120.5C 197.613,124.233 198.613,127.9 199.5,131.5C 201.582,132.585 201.916,134.085 200.5,136C 201.437,136.692 202.103,136.525 202.5,135.5C 203.5,135.5 204.5,135.5 205.5,135.5C 201.548,137.772 197.382,139.772 193,141.5C 190.127,127.927 187.793,114.261 186,100.5C 186.415,115.822 186.915,131.155 187.5,146.5C 185.167,146.5 182.833,146.5 180.5,146.5C 180.5,135.5 180.5,124.5 180.5,113.5C 181.47,120.659 182.136,127.993 182.5,135.5C 183.5,135.5 184.5,135.5 185.5,135.5C 185.823,129.31 185.49,123.31 184.5,117.5C 184.443,111.149 184.11,104.815 183.5,98.5C 184.552,94.3481 185.386,90.0148 186,85.5C 186.333,86.1667 186.667,86.8333 187,87.5C 187.399,87.2716 187.565,86.9382 187.5,86.5 Z"/></g>
<g><path style="opacity:1" fill="#5577bb" d="M 199.5,131.5 C 203.241,130.258 204.241,131.591 202.5,135.5C 202.103,136.525 201.437,136.692 200.5,136C 201.916,134.085 201.582,132.585 199.5,131.5 Z"/></g>
<g><path style="opacity:1" fill="#e5cd9d" d="M 183.5,96.5 C 182.177,106.674 182.177,117.007 183.5,127.5C 184.487,124.232 184.82,120.898 184.5,117.5C 185.49,123.31 185.823,129.31 185.5,135.5C 184.5,135.5 183.5,135.5 182.5,135.5C 182.136,127.993 181.47,120.659 180.5,113.5C 180.175,106.313 180.509,99.3134 181.5,92.5C 181.369,93.2389 181.536,93.9056 182,94.5C 182.333,92.5 182.667,90.5 183,88.5C 183.497,91.146 183.664,93.8127 183.5,96.5 Z"/></g>
<g><path style="opacity:1" fill="#fafbfd" d="M 56.5,123.5 C 56.33,124.822 56.6634,125.989 57.5,127C 60.3471,127.944 62.8471,127.444 65,125.5C 66.9251,127.213 69.0918,128.547 71.5,129.5C 72,130.5 72.5,131.5 73,132.5C 73.2213,137.22 73.7213,141.887 74.5,146.5C 73.2713,147.281 71.938,147.781 70.5,148C 68.5613,152.458 65.228,154.625 60.5,154.5C 60.719,155.675 60.3857,156.675 59.5,157.5C 55.4924,156.18 54.1591,157.513 55.5,161.5C 53.4732,165.239 50.3065,167.239 46,167.5C 45.1112,170.279 43.9445,172.945 42.5,175.5C 39.8542,172.628 39.0208,169.295 40,165.5C 41.0113,164.663 42.1779,164.33 43.5,164.5C 43.9861,160.431 42.6528,157.264 39.5,155C 40.8333,153.667 40.8333,152.333 39.5,151C 41.7536,149.946 42.087,148.446 40.5,146.5C 42.0152,144.453 42.8485,142.119 43,139.5C 44.0672,138.057 45.2338,136.724 46.5,135.5C 46.7827,132.268 46.7827,128.935 46.5,125.5C 49.8208,124.67 53.1542,124.003 56.5,123.5 Z"/></g>
<g><path style="opacity:1" fill="#2056ae" d="M 58.5,141.5 C 59.5,141.5 60.5,141.5 61.5,141.5C 61.5,142.5 61.5,143.5 61.5,144.5C 60.5,144.5 59.5,144.5 58.5,144.5C 58.5,143.5 58.5,142.5 58.5,141.5 Z"/></g>
<g><path style="opacity:1" fill="#f8f9fb" d="M 161.5,123.5 C 160.79,127.025 159.79,130.358 158.5,133.5C 158.288,131.616 157.288,130.283 155.5,129.5C 154.548,127.955 154.215,126.288 154.5,124.5C 156.806,124.007 159.139,123.674 161.5,123.5 Z"/></g>
<g><path style="opacity:1" fill="#fcfdfd" d="M 223.5,170.5 C 225.962,167.536 228.629,164.703 231.5,162C 229.26,161.023 226.927,160.523 224.5,160.5C 224.158,159.662 223.492,159.328 222.5,159.5C 222.167,157.5 221.833,155.5 221.5,153.5C 222.514,150.611 223.848,147.778 225.5,145C 228.099,144.231 230.599,144.398 233,145.5C 235.786,143.308 236.286,140.641 234.5,137.5C 237.388,137.78 238.888,136.447 239,133.5C 239.202,135.256 239.702,136.922 240.5,138.5C 243.415,135.246 247.081,133.412 251.5,133C 254.021,129.646 257.021,126.812 260.5,124.5C 266.196,121.014 269.863,122.514 271.5,129C 269.602,129.9 267.936,131.066 266.5,132.5C 268.424,134.009 269.591,136.009 270,138.5C 274.298,139.324 276.298,141.991 276,146.5C 277.717,147.988 278.884,149.821 279.5,152C 282.198,152.065 284.364,150.898 286,148.5C 287.079,151.063 287.579,153.729 287.5,156.5C 286.5,156.5 285.5,156.5 284.5,156.5C 284.351,157.552 284.517,158.552 285,159.5C 285.333,159.167 285.667,158.833 286,158.5C 286.635,159.966 287.469,161.3 288.5,162.5C 287.052,163.354 285.719,164.354 284.5,165.5C 283.264,164.754 281.93,164.421 280.5,164.5C 280.357,166.262 280.691,167.929 281.5,169.5C 278.893,170.318 276.226,170.818 273.5,171C 272.167,172.667 272.167,174.333 273.5,176C 272.328,176.353 271.162,176.187 270,175.5C 264.104,177.358 259.271,180.858 255.5,186C 253.167,186.667 250.833,186.667 248.5,186C 249.554,184.612 249.72,183.112 249,181.5C 247.247,180.373 245.413,179.373 243.5,178.5C 240.486,180.716 237.32,182.716 234,184.5C 232.259,182.546 230.092,181.546 227.5,181.5C 226.167,177.833 224.833,174.167 223.5,170.5 Z"/></g>
<g><path style="opacity:1" fill="#fafbfc" d="M 241.5,128.5 C 239.239,131.325 236.739,133.992 234,136.5C 231.866,138.578 232.032,140.412 234.5,142C 234.167,142.333 233.833,142.667 233.5,143C 225.084,141.242 221.084,144.742 221.5,153.5C 220.607,155.297 219.274,156.63 217.5,157.5C 216.833,157.5 216.167,157.5 215.5,157.5C 214.624,157.631 213.957,157.298 213.5,156.5C 217.557,149.552 221.224,142.386 224.5,135C 222.203,132.6 219.369,131.1 216,130.5C 212.182,131.706 208.682,133.372 205.5,135.5C 204.5,135.5 203.5,135.5 202.5,135.5C 204.241,131.591 203.241,130.258 199.5,131.5C 198.613,127.9 197.613,124.233 196.5,120.5C 199.5,120.833 200.833,119.5 200.5,116.5C 202.492,116.328 204.158,116.995 205.5,118.5C 211.594,113.78 218.261,112.613 225.5,115C 228.698,117.701 232.031,120.201 235.5,122.5C 234.833,123.5 234.167,124.5 233.5,125.5C 235.583,127.604 237.917,127.938 240.5,126.5C 241.298,126.957 241.631,127.624 241.5,128.5 Z"/></g>
<g><path style="opacity:1" fill="#3f68b7" d="M 206.5,119.5 C 207.833,119.5 209.167,119.5 210.5,119.5C 210.778,121.346 210.111,122.68 208.5,123.5C 206.889,122.68 206.222,121.346 206.5,119.5 Z"/></g>
<g><path style="opacity:1" fill="#f7f0e1" d="M 183.5,96.5 C 183.5,97.1667 183.5,97.8333 183.5,98.5C 184.11,104.815 184.443,111.149 184.5,117.5C 184.82,120.898 184.487,124.232 183.5,127.5C 182.177,117.007 182.177,106.674 183.5,96.5 Z"/></g>
<g><path style="opacity:1" fill="#fcfcfd" d="M 29.5,162.5 C 26.9093,161.009 25.9093,158.675 26.5,155.5C 21.699,154.846 17.8657,152.512 15,148.5C 14.1263,143.841 11.793,140.174 8,137.5C 6.30554,135.76 5.13888,133.76 4.5,131.5C 9.93132,132.906 12.2647,130.906 11.5,125.5C 16.246,124.576 17.246,122.242 14.5,118.5C 15.9351,115.357 17.2685,112.19 18.5,109C 22.4841,109.466 26.4841,110.3 30.5,111.5C 32.4048,110.935 34.0715,109.935 35.5,108.5C 39.2516,111.05 43.0849,113.383 47,115.5C 49.6096,119.388 48.9429,122.388 45,124.5C 44.4242,126.377 44.5909,128.211 45.5,130C 45.0459,131.622 44.0459,132.788 42.5,133.5C 41.7408,136.157 41.0742,138.823 40.5,141.5C 40.7093,142.086 41.0426,142.586 41.5,143C 39.8829,145.37 38.8829,148.036 38.5,151C 39.8333,152.333 39.8333,153.667 38.5,155C 40.0017,156.752 41.0017,158.752 41.5,161C 39.1909,163.471 37.5243,166.304 36.5,169.5C 34.9579,168.253 33.4579,168.253 32,169.5C 30.957,167.167 30.1237,164.834 29.5,162.5 Z"/></g>
<g><path style="opacity:1" fill="#3a65b5" d="M 33.5,135.5 C 34.5,135.5 35.5,135.5 36.5,135.5C 36.5,136.833 36.5,138.167 36.5,139.5C 33.0464,139.733 32.0464,138.4 33.5,135.5 Z"/></g>
<g><path style="opacity:1" fill="#f6eddb" d="M 186.5,89.5 C 190.068,99.1105 192.401,109.11 193.5,119.5C 192.5,119.5 191.5,119.5 190.5,119.5C 189.166,109.497 187.833,99.4966 186.5,89.5 Z"/></g>
<g><path style="opacity:1" fill="#fafbfc" d="M 153.5,134.5 C 149.963,133.733 146.629,132.4 143.5,130.5C 141.249,131.695 138.915,132.695 136.5,133.5C 135.814,137.813 137.147,141.48 140.5,144.5C 140.893,146.284 141.559,147.95 142.5,149.5C 138.865,150.114 135.198,150.448 131.5,150.5C 132.068,147.412 132.068,144.412 131.5,141.5C 130.167,142.833 128.833,142.833 127.5,141.5C 122.876,145.355 118.543,145.188 114.5,141C 116.353,138.815 118.52,136.982 121,135.5C 121.422,133.645 121.922,131.811 122.5,130C 121.902,128.699 120.902,127.865 119.5,127.5C 114.888,128.575 112.555,126.575 112.5,121.5C 113.79,118.589 114.79,115.589 115.5,112.5C 114.364,110.261 114.697,108.594 116.5,107.5C 119.344,111.004 122.511,111.337 126,108.5C 126.073,105.842 125.74,103.176 125,100.5C 123.16,101.833 122.66,101.666 123.5,100C 125.035,99.5038 126.535,99.6705 128,100.5C 129.29,102.354 130.79,102.687 132.5,101.5C 133.681,103.135 133.681,104.802 132.5,106.5C 134.673,109.612 137.506,110.612 141,109.5C 141.374,110.416 141.874,111.25 142.5,112C 144.101,112.273 145.601,112.773 147,113.5C 149.262,120.737 152.762,127.237 157.5,133C 156.099,133.41 154.766,133.91 153.5,134.5 Z"/></g>
<g><path style="opacity:1" fill="#f9fbfd" d="M 191.5,97.5 C 192.688,98.6843 193.855,98.6843 195,97.5C 197.045,100.423 199.212,103.257 201.5,106C 205.859,106.534 210.192,106.368 214.5,105.5C 214.318,107.591 214.652,109.591 215.5,111.5C 213.5,112.167 211.5,112.833 209.5,113.5C 208.833,114.833 207.833,115.833 206.5,116.5C 204.5,115.833 202.5,115.167 200.5,114.5C 199.388,116.419 198.054,118.086 196.5,119.5C 194.519,112.241 192.852,104.907 191.5,97.5 Z"/></g>
<g><path style="opacity:1" fill="#fafbfd" d="M 114.5,94.5 C 116.175,97.8897 118.341,98.223 121,95.5C 124.841,96.4168 125.174,97.7501 122,99.5C 121.517,100.448 121.351,101.448 121.5,102.5C 124.276,102.089 124.943,102.922 123.5,105C 123.905,105.945 124.572,106.612 125.5,107C 124.034,107.635 122.7,108.469 121.5,109.5C 120.019,108.52 118.685,107.353 117.5,106C 115.397,105.749 114.063,106.749 113.5,109C 114.409,110.789 114.576,112.623 114,114.5C 109.553,118.833 109.387,123.333 113.5,128C 115.804,128.895 118.138,129.729 120.5,130.5C 119.251,134.75 116.584,137.75 112.5,139.5C 111.652,141.409 111.318,143.409 111.5,145.5C 109.406,146.242 107.239,146.909 105,147.5C 103.104,147.13 101.271,146.963 99.5,147C 98.7142,149.96 97.5475,152.794 96,155.5C 95.4387,156.022 94.772,156.355 94,156.5C 89.9902,155.103 86.8235,152.603 84.5,149C 81.4645,148.291 78.6312,147.124 76,145.5C 75.3623,144.391 74.8623,143.225 74.5,142C 76.1619,137.3 75.4953,132.966 72.5,129C 75.5574,129.107 77.8907,127.94 79.5,125.5C 80.7678,126.428 82.1011,126.595 83.5,126C 84.8333,125.333 84.8333,124.667 83.5,124C 88.6395,124.025 91.3061,121.525 91.5,116.5C 93.5914,116.682 95.5914,116.348 97.5,115.5C 101.581,111.007 104.914,106.007 107.5,100.5C 109.278,100.431 111.111,100.097 113,99.5C 114.009,97.9751 114.509,96.3084 114.5,94.5 Z"/></g>
<g><path style="opacity:1" fill="#3b66b6" d="M 104.5,119.5 C 105.5,119.5 106.5,119.5 107.5,119.5C 107.5,120.833 107.5,122.167 107.5,123.5C 104.046,123.733 103.046,122.4 104.5,119.5 Z"/></g>
<g><path style="opacity:1" fill="#fbfcfd" d="M 295.5,91.5 C 297.435,92.1495 299.435,92.4828 301.5,92.5C 301.5,93.5 301.5,94.5 301.5,95.5C 302.873,95.3433 304.207,95.51 305.5,96C 306.104,98.4675 307.438,100.468 309.5,102C 308.056,103.126 307.39,104.626 307.5,106.5C 309.068,111.571 309.401,116.571 308.5,121.5C 311.487,122.258 314.487,123.091 317.5,124C 319.5,125.667 321.5,127.333 323.5,129C 322.898,131.036 321.898,132.87 320.5,134.5C 318.339,134.734 316.172,135.067 314,135.5C 313.023,137.74 312.523,140.073 312.5,142.5C 309.373,143.391 306.373,143.725 303.5,143.5C 302.15,142.05 300.484,141.383 298.5,141.5C 298.898,145.759 296.898,147.592 292.5,147C 289.463,152.752 288.13,152.585 288.5,146.5C 287.127,146.343 285.793,146.51 284.5,147C 283.845,148.487 282.845,149.653 281.5,150.5C 280.185,148.684 278.685,147.017 277,145.5C 277.158,141.584 275.491,138.918 272,137.5C 270.147,133.967 270.647,131.133 273.5,129C 272.13,127.559 271.13,125.892 270.5,124C 274.495,118.334 278.495,112.667 282.5,107C 284.333,105.833 286.167,104.667 288,103.5C 288.71,104.973 289.876,105.64 291.5,105.5C 291.331,100.959 291.998,100.626 293.5,104.5C 296.936,103.397 298.936,101.064 299.5,97.5C 298.349,96.269 297.183,96.269 296,97.5C 295.505,95.5273 295.338,93.5273 295.5,91.5 Z"/></g>
<g><path style="opacity:1" fill="#3f68b7" d="M 296.5,120.5 C 298.346,120.222 299.68,120.889 300.5,122.5C 299.68,124.111 298.346,124.778 296.5,124.5C 296.5,123.167 296.5,121.833 296.5,120.5 Z"/></g>
<g><path style="opacity:1" fill="#d2aa5a" d="M 185.5,77.5 C 185.5,78.1667 185.833,78.5 186.5,78.5C 186.833,81.1667 187.167,83.8333 187.5,86.5C 187.565,86.9382 187.399,87.2716 187,87.5C 186.667,86.8333 186.333,86.1667 186,85.5C 185.386,90.0148 184.552,94.3481 183.5,98.5C 183.5,97.8333 183.5,97.1667 183.5,96.5C 183.664,93.8127 183.497,91.146 183,88.5C 182.667,90.5 182.333,92.5 182,94.5C 181.536,93.9056 181.369,93.2389 181.5,92.5C 181.334,86.8236 181.501,81.1569 182,75.5C 184.351,72.9568 185.517,73.6235 185.5,77.5 Z"/></g>
<g><path style="opacity:1" fill="#d5b066" d="M 179.5,146.5 C 177.167,146.5 174.833,146.5 172.5,146.5C 173.129,130.825 173.629,115.158 174,99.5C 171.607,113.527 169.107,127.527 166.5,141.5C 163.018,140.257 159.684,138.757 156.5,137C 157.756,136.583 158.423,135.75 158.5,134.5C 158.5,134.167 158.5,133.833 158.5,133.5C 159.79,130.358 160.79,127.025 161.5,123.5C 162.11,122.609 162.443,121.609 162.5,120.5C 166.01,105.458 169.677,90.4582 173.5,75.5C 173.5,75.1667 173.5,74.8333 173.5,74.5C 175.138,73.0864 176.472,73.4197 177.5,75.5C 179.219,99.1318 179.886,122.798 179.5,146.5 Z"/></g>
<g><path style="opacity:1" fill="#f1e3c6" d="M 176.5,87.5 C 177.496,102.324 177.829,117.324 177.5,132.5C 176.5,132.5 175.5,132.5 174.5,132.5C 175.167,117.5 175.833,102.5 176.5,87.5 Z"/></g>
<g><path style="opacity:1" fill="#f3e7cf" d="M 171.5,89.5 C 172.147,90.2739 172.48,91.2739 172.5,92.5C 170.925,103.525 169.258,114.525 167.5,125.5C 166.167,125.5 164.833,125.5 163.5,125.5C 165.535,113.359 168.202,101.359 171.5,89.5 Z"/></g>
<g><path style="opacity:1" fill="#fcfcfd" d="M 241.5,128.5 C 242.404,127.791 242.737,126.791 242.5,125.5C 240.143,125.663 237.81,125.497 235.5,125C 236.26,123.559 236.926,122.059 237.5,120.5C 236.349,119.269 235.183,119.269 234,120.5C 230.047,114.774 224.547,112.107 217.5,112.5C 216.593,109.579 216.26,106.579 216.5,103.5C 211.528,104.422 206.528,104.588 201.5,104C 200.36,102.027 199.027,100.193 197.5,98.5C 198.452,96.4884 200.119,95.4884 202.5,95.5C 208.22,96.5484 213.887,97.3817 219.5,98C 220.855,94.7882 222.355,91.6215 224,88.5C 224.333,85.1667 224.667,81.8333 225,78.5C 226.074,77.3816 227.24,76.3816 228.5,75.5C 232.54,75.074 236.207,73.7406 239.5,71.5C 239.833,71.8333 240.167,72.1667 240.5,72.5C 238.28,74.5509 237.614,76.8843 238.5,79.5C 239.5,78.8333 240.5,78.1667 241.5,77.5C 244.109,78.2305 246.776,78.7305 249.5,79C 250.866,81.3818 250.533,83.5485 248.5,85.5C 249.167,85.8333 249.833,86.1667 250.5,86.5C 252.336,85.0667 254.336,84.5667 256.5,85C 258.022,86.5218 259.522,88.0218 261,89.5C 263.54,88.7935 264.707,87.1268 264.5,84.5C 265.978,84.238 267.311,84.5713 268.5,85.5C 270.5,87.1667 272.5,88.8333 274.5,90.5C 278.023,89.9379 281.523,89.6045 285,89.5C 286.95,90.2825 288.783,91.2825 290.5,92.5C 291.442,92.3918 292.275,92.0585 293,91.5C 293.497,94.146 293.664,96.8127 293.5,99.5C 294.822,99.67 295.989,99.3366 297,98.5C 297.617,99.4491 297.451,100.282 296.5,101C 291.352,100.267 286.685,101.6 282.5,105C 279.014,111.135 274.847,116.635 270,121.5C 266.861,120.717 263.694,120.884 260.5,122C 257.264,124.781 254.264,127.781 251.5,131C 247.875,131.588 244.708,133.088 242,135.5C 241.503,133.19 241.337,130.857 241.5,128.5 Z"/></g>
<g><path style="opacity:1" fill="#3d67b6" d="M 274.5,93.5 C 275.833,93.5 277.167,93.5 278.5,93.5C 278.778,95.3464 278.111,96.6798 276.5,97.5C 274.889,96.6798 274.222,95.3464 274.5,93.5 Z"/></g>
<g><path style="opacity:1" fill="#295bb0" d="M 232.5,84.5 C 235.861,85.2032 236.194,86.5365 233.5,88.5C 231.358,87.5629 231.024,86.2296 232.5,84.5 Z"/></g>
<g><path style="opacity:1" fill="#476eba" d="M 155.5,60.5 C 156.158,61.3984 156.824,62.3984 157.5,63.5C 158.736,62.7542 160.07,62.4208 161.5,62.5C 161.343,63.8734 161.51,65.2068 162,66.5C 166.199,68.832 170.032,71.4987 173.5,74.5C 173.5,74.8333 173.5,75.1667 173.5,75.5C 169.874,72.6814 165.874,70.3481 161.5,68.5C 160.754,67.2638 160.421,65.9305 160.5,64.5C 158.401,65.2309 156.401,65.2309 154.5,64.5C 155.246,63.2638 155.579,61.9305 155.5,60.5 Z"/></g>
<g><path style="opacity:1" fill="#3c6ab7" d="M 155.5,60.5 C 152.843,60.162 150.51,60.8287 148.5,62.5C 147.702,62.0431 147.369,61.3764 147.5,60.5C 150.307,59.3433 152.974,59.3433 155.5,60.5 Z"/></g>
<g><path style="opacity:1" fill="#fcfdfe" d="M 147.5,60.5 C 147.369,61.3764 147.702,62.0431 148.5,62.5C 150.51,60.8287 152.843,60.162 155.5,60.5C 155.579,61.9305 155.246,63.2638 154.5,64.5C 156.401,65.2309 158.401,65.2309 160.5,64.5C 160.421,65.9305 160.754,67.2638 161.5,68.5C 165.874,70.3481 169.874,72.6814 173.5,75.5C 169.677,90.4582 166.01,105.458 162.5,120.5C 159.039,122.091 155.372,122.758 151.5,122.5C 150.804,112.64 145.471,107.807 135.5,108C 135.182,105.958 135.015,103.791 135,101.5C 131.084,99.5888 127.417,97.2554 124,94.5C 123.482,90.4489 123.816,86.4489 125,82.5C 125.739,83.5742 126.739,84.2409 128,84.5C 130.731,83.169 133.398,81.8356 136,80.5C 134.717,77.7576 134.384,74.7576 135,71.5C 136.022,70.646 136.855,69.646 137.5,68.5C 136.613,65.3251 137.946,63.6584 141.5,63.5C 141.8,60.482 143.467,58.482 146.5,57.5C 146.593,58.4719 146.926,59.4719 147.5,60.5 Z"/></g>
<g><path style="opacity:1" fill="#3c66b6" d="M 157.5,85.5 C 159.912,85.6941 160.912,87.0274 160.5,89.5C 159.167,89.5 157.833,89.5 156.5,89.5C 156.433,88.0413 156.766,86.7079 157.5,85.5 Z"/></g>
<g><path style="opacity:1" fill="#fcfcfd" d="M 190.5,95.5 C 189.64,92.3676 188.64,89.3676 187.5,86.5C 187.167,83.8333 186.833,81.1667 186.5,78.5C 187.5,78.5 188.5,78.5 189.5,78.5C 189.927,75.6239 190.594,72.7906 191.5,70C 194.359,67.4749 195.859,64.3082 196,60.5C 197.011,59.6634 198.178,59.33 199.5,59.5C 199.5,58.5 199.5,57.5 199.5,56.5C 200.833,56.5 202.167,56.5 203.5,56.5C 203.441,53.9512 204.441,51.9512 206.5,50.5C 204.956,46.921 206.122,44.5877 210,43.5C 210.026,40.8953 211.193,39.7287 213.5,40C 216.147,42.6566 219.147,44.8232 222.5,46.5C 225.579,52.2139 226.246,58.2139 224.5,64.5C 225.167,67.1667 225.833,69.8333 226.5,72.5C 226.418,75.0926 225.252,77.0926 223,78.5C 223.778,85.8104 221.778,92.1438 217,97.5C 211.386,95.2215 205.552,93.8882 199.5,93.5C 197.571,94.3802 195.737,95.3802 194,96.5C 192.862,96.0109 191.695,95.6775 190.5,95.5 Z"/></g>
<g><path style="opacity:1" fill="#436ab8" d="M 192.5,75.5 C 194.346,75.2222 195.68,75.8888 196.5,77.5C 195.68,79.1112 194.346,79.7778 192.5,79.5C 192.5,78.1667 192.5,76.8333 192.5,75.5 Z"/></g>
<g><path style="opacity:1" fill="#f9fafb" d="M 185.5,77.5 C 185.517,73.6235 184.351,72.9568 182,75.5C 181.501,81.1569 181.334,86.8236 181.5,92.5C 180.509,99.3134 180.175,106.313 180.5,113.5C 180.5,124.5 180.5,135.5 180.5,146.5C 180.167,146.5 179.833,146.5 179.5,146.5C 179.886,122.798 179.219,99.1318 177.5,75.5C 176.472,73.4197 175.138,73.0864 173.5,74.5C 170.032,71.4987 166.199,68.832 162,66.5C 161.51,65.2068 161.343,63.8734 161.5,62.5C 160.07,62.4208 158.736,62.7542 157.5,63.5C 156.824,62.3984 156.158,61.3984 155.5,60.5C 152.974,59.3433 150.307,59.3433 147.5,60.5C 148.999,58.5471 148.665,56.8804 146.5,55.5C 148.691,54.1191 150.024,52.1191 150.5,49.5C 153.095,46.2322 156.428,44.2322 160.5,43.5C 161.787,40.2913 161.787,37.1247 160.5,34C 161.83,34.0772 163.164,34.5772 164.5,35.5C 166.841,35.3382 168.675,34.3382 170,32.5C 172.201,34.1791 174.034,36.1791 175.5,38.5C 176.833,39.8333 178.167,39.8333 179.5,38.5C 181.865,41.3502 184.865,43.1836 188.5,44C 190.922,48.7868 194.922,51.6201 200.5,52.5C 201.872,54.6198 201.205,55.6198 198.5,55.5C 198.5,56.5 198.5,57.5 198.5,58.5C 197.178,58.33 196.011,58.6634 195,59.5C 194.667,61.1667 194.333,62.8333 194,64.5C 189.761,67.6899 187.928,72.0233 188.5,77.5C 187.5,77.5 186.5,77.5 185.5,77.5 Z"/></g>
<g><path style="opacity:1" fill="#4069b7" d="M 181.5,46.5 C 183.912,46.6941 184.912,48.0274 184.5,50.5C 183.167,50.5 181.833,50.5 180.5,50.5C 180.433,49.0413 180.766,47.7079 181.5,46.5 Z"/></g>
<g><path style="opacity:1" fill="#fbfcfd" d="M 235.5,22.5 C 236.75,22.5774 237.583,23.244 238,24.5C 238.287,26.8907 238.787,29.2241 239.5,31.5C 241.045,32.4519 242.712,32.7852 244.5,32.5C 244.5,34.1667 244.5,35.8333 244.5,37.5C 245.833,37.5 247.167,37.5 248.5,37.5C 248.248,40.3198 248.748,42.9865 250,45.5C 251.356,46.3802 252.856,46.7135 254.5,46.5C 254.424,49.7673 255.757,51.1007 258.5,50.5C 259.135,54.0033 260.135,57.3366 261.5,60.5C 258.13,67.5384 259.464,73.5384 265.5,78.5C 264.167,79.8333 264.167,81.1667 265.5,82.5C 263.726,83.1867 262.059,84.0201 260.5,85C 261.517,86.0495 261.684,87.2161 261,88.5C 259.067,83.9913 255.901,81.9913 251.5,82.5C 252.833,80.8333 252.833,79.1667 251.5,77.5C 247.765,76.8473 244.099,76.0139 240.5,75C 242.422,73.54 243.089,71.8733 242.5,70C 238.958,70.2567 235.624,71.4234 232.5,73.5C 231.264,72.7542 229.93,72.4208 228.5,72.5C 227.288,63.4745 225.788,54.4745 224,45.5C 220.656,43.9961 217.656,41.9961 215,39.5C 215.498,37.4731 215.331,35.4731 214.5,33.5C 213.5,32.1667 212.5,32.1667 211.5,33.5C 209.744,31.8087 209.244,29.8087 210,27.5C 210.674,28.5784 211.674,29.2451 213,29.5C 215.845,28.5499 218.512,27.2166 221,25.5C 221.483,26.448 221.649,27.448 221.5,28.5C 223.288,28.7852 224.955,28.4519 226.5,27.5C 229.541,25.6852 232.541,24.0185 235.5,22.5 Z"/></g>
<g><path style="opacity:1" fill="#3360b3" d="M 233.5,61.5 C 234.833,61.5 236.167,61.5 237.5,61.5C 237.5,62.5 237.5,63.5 237.5,64.5C 236.167,64.5 234.833,64.5 233.5,64.5C 233.5,63.5 233.5,62.5 233.5,61.5 Z"/></g>
<g><path style="opacity:1" fill="#fbfcfd" d="M 189.5,4.5 C 192.747,5.25154 196.081,5.75154 199.5,6C 201.167,9 203.5,11.3333 206.5,13C 206.043,13.414 205.709,13.914 205.5,14.5C 206.244,17.443 206.744,20.443 207,23.5C 207.833,24.3333 208.667,25.1667 209.5,26C 208.572,26.3879 207.905,27.0546 207.5,28C 208,29.5 208.5,31 209,32.5C 210.589,34.0264 212.423,35.1931 214.5,36C 213.5,36.3333 212.5,36.6667 211.5,37C 207.29,40.7978 204.623,45.2978 203.5,50.5C 201.278,49.6138 199.112,49.6138 197,50.5C 195.629,49.4188 194.129,48.5855 192.5,48C 191.419,43.922 188.752,41.5887 184.5,41C 183.185,36.9779 180.685,35.8112 177,37.5C 176.667,36.1667 176.333,34.8333 176,33.5C 175.259,32.3595 174.425,32.3595 173.5,33.5C 172.571,32.3112 172.238,30.9778 172.5,29.5C 169.317,29.071 166.984,27.4043 165.5,24.5C 168.279,23.3265 168.946,21.4932 167.5,19C 168.416,18.6258 169.25,18.1258 170,17.5C 171.427,19.7871 173.261,20.1205 175.5,18.5C 178.999,16.0223 180.666,12.6889 180.5,8.5C 182.262,8.35729 183.929,8.69063 185.5,9.5C 186.578,7.53877 187.911,5.8721 189.5,4.5 Z"/></g>
<g><path style="opacity:1" fill="#3b65b5" d="M 199.5,32.5 C 200.5,32.5 201.5,32.5 202.5,32.5C 202.5,33.8333 202.5,35.1667 202.5,36.5C 199.046,36.7332 198.046,35.3999 199.5,32.5 Z"/></g>
<g><path style="opacity:1" fill="#3360af" d="M 221.5,153.5 C 221.833,155.5 222.167,157.5 222.5,159.5C 220.597,159.204 218.93,158.537 217.5,157.5C 219.274,156.63 220.607,155.297 221.5,153.5 Z"/></g>
<g><path style="opacity:1" fill="#426ab8" d="M 247.5,161.5 C 249.346,161.222 250.68,161.889 251.5,163.5C 250.68,165.111 249.346,165.778 247.5,165.5C 247.5,164.167 247.5,162.833 247.5,161.5 Z"/></g>
<g><path style="opacity:1" fill="#fbfcfd" d="M 307.5,182.5 C 305.883,183.038 304.216,183.371 302.5,183.5C 302.679,188.798 303.013,194.131 303.5,199.5C 302.158,202.392 299.825,203.725 296.5,203.5C 289.331,202.861 282.164,202.194 275,201.5C 272.245,201.41 269.745,202.076 267.5,203.5C 266.311,203.244 265.144,202.911 264,202.5C 261.178,203.578 258.512,204.911 256,206.5C 253.609,203.856 251.275,203.856 249,206.5C 248.803,204.139 247.636,202.472 245.5,201.5C 246.193,200.482 246.859,199.482 247.5,198.5C 249.176,197.817 249.843,196.483 249.5,194.5C 250.822,194.67 251.989,194.337 253,193.5C 255.325,188.164 258.825,183.664 263.5,180C 266.54,177.969 269.707,177.469 273,178.5C 274.319,176.75 274.819,174.75 274.5,172.5C 277.167,172.5 279.833,172.5 282.5,172.5C 282.5,170.5 282.5,168.5 282.5,166.5C 284.57,166.551 286.403,165.885 288,164.5C 289.873,165.868 291.54,167.534 293,169.5C 296.052,165.955 298.219,166.621 299.5,171.5C 301.144,171.714 302.644,171.38 304,170.5C 303.845,172.811 303.845,175.144 304,177.5C 306.172,178.509 307.338,180.176 307.5,182.5 Z"/></g>
<g><path style="opacity:1" fill="#efe1c2" d="M 215.5,157.5 C 216.167,157.5 216.833,157.5 217.5,157.5C 218.93,158.537 220.597,159.204 222.5,159.5C 223.492,159.328 224.158,159.662 224.5,160.5C 225.808,161.232 227.142,162.066 228.5,163C 225.333,166.167 222.167,169.333 219,172.5C 216.451,169.235 214.284,165.735 212.5,162C 213.315,160.357 214.315,158.857 215.5,157.5 Z"/></g>
<g><path style="opacity:1" fill="#fbfcfd" d="M 55.5,181.5 C 55.9704,182.693 56.9704,183.36 58.5,183.5C 60.8183,183.997 63.1516,184.33 65.5,184.5C 65.5,185.5 65.5,186.5 65.5,187.5C 67.2624,187.357 68.9291,187.691 70.5,188.5C 71.8524,187.482 72.8524,186.149 73.5,184.5C 74.4287,185.689 74.762,187.022 74.5,188.5C 75.5,188.5 76.5,188.5 77.5,188.5C 76.9435,191.895 78.2768,194.062 81.5,195C 78.9557,196.563 78.9557,198.063 81.5,199.5C 80.3237,201.677 78.4904,203.011 76,203.5C 75.5172,202.552 75.3505,201.552 75.5,200.5C 74.1779,200.33 73.0113,200.663 72,201.5C 70.5921,205.057 69.5921,208.724 69,212.5C 67.1509,213.561 65.1509,214.227 63,214.5C 59.1692,213.54 55.3359,213.374 51.5,214C 47.3447,210.915 45.178,206.749 45,201.5C 43.3005,200.594 41.4672,200.261 39.5,200.5C 39.5,198.833 39.5,197.167 39.5,195.5C 35.3029,196.25 31.9695,194.917 29.5,191.5C 28.2465,186.813 26.2465,182.48 23.5,178.5C 25.1128,177.573 26.7795,176.739 28.5,176C 29.4291,173.609 30.9291,171.775 33,170.5C 37.9556,170.291 40.4556,172.624 40.5,177.5C 42.7224,177.822 44.5557,177.155 46,175.5C 46.2511,177.433 46.7511,179.266 47.5,181C 50.146,181.497 52.8127,181.664 55.5,181.5 Z"/></g>
<g><path style="opacity:1" fill="#fcfcfd" d="M 137.5,178.5 C 133.262,185.973 128.762,193.306 124,200.5C 123.517,201.448 123.351,202.448 123.5,203.5C 130.167,203.5 136.833,203.5 143.5,203.5C 143.454,206.432 143.954,209.098 145,211.5C 140.765,212.716 136.931,214.716 133.5,217.5C 134.833,218.833 134.833,220.167 133.5,221.5C 134.752,223.001 135.752,224.668 136.5,226.5C 138.371,225.233 140.204,225.233 142,226.5C 141.081,229.284 140.581,232.284 140.5,235.5C 137.675,235.081 135.509,236.081 134,238.5C 132.643,234.034 130.143,233.368 126.5,236.5C 124.352,235.242 122.185,235.242 120,236.5C 115.151,232.527 109.985,229.193 104.5,226.5C 106.937,225.56 108.937,224.06 110.5,222C 109.523,220.503 108.523,219.003 107.5,217.5C 108.396,215.199 108.562,212.866 108,210.5C 103.711,208.589 100.211,205.755 97.5,202C 97.6448,201.228 97.9781,200.561 98.5,200C 100.218,199.654 101.885,199.154 103.5,198.5C 103.513,191.722 101.847,185.222 98.5,179C 100.735,177.355 101.735,178.188 101.5,181.5C 106.471,181.456 111.138,182.29 115.5,184C 117.167,182 118.833,180 120.5,178C 119.332,176.129 119.832,174.629 122,173.5C 123.684,175.351 125.517,177.018 127.5,178.5C 130.812,177.382 134.145,177.382 137.5,178.5 Z"/></g>
<g><path style="opacity:1" fill="#e9d1a8" d="M 160.5,150.5 C 159.87,158.243 160.537,165.576 162.5,172.5C 167.664,173.352 172.997,173.352 178.5,172.5C 178.665,175.85 178.498,179.183 178,182.5C 176.601,183.227 175.101,183.727 173.5,184C 174.902,185.342 174.569,186.176 172.5,186.5C 163.661,185.414 156.328,181.748 150.5,175.5C 152.583,171 154.916,166.666 157.5,162.5C 157.783,163.289 158.283,163.956 159,164.5C 159.174,159.649 159.674,154.982 160.5,150.5 Z"/></g>
<g><path style="opacity:1" fill="#e9d2a6" d="M 199.5,149.5 C 200.167,152.5 200.833,155.5 201.5,158.5C 204.327,165.652 207.994,172.319 212.5,178.5C 212.607,180.903 211.607,182.736 209.5,184C 204.068,187.05 198.402,189.55 192.5,191.5C 189.147,188.313 185.647,185.313 182,182.5C 181.502,179.183 181.335,175.85 181.5,172.5C 187.01,173.211 192.343,173.211 197.5,172.5C 199.465,165.24 200.132,157.573 199.5,149.5 Z"/></g>
<g><path style="opacity:1" fill="#3c66b6" d="M 81.5,175.5 C 82.5,175.5 83.5,175.5 84.5,175.5C 84.5,176.833 84.5,178.167 84.5,179.5C 81.0464,179.733 80.0464,178.4 81.5,175.5 Z"/></g>
<g><path style="opacity:1" fill="#e2c68e" d="M 167.5,171.5 C 171.5,171.5 175.5,171.5 179.5,171.5C 179.666,175.514 179.499,179.514 179,183.5C 177.955,184.373 177.122,185.373 176.5,186.5C 175.833,186.5 175.5,186.833 175.5,187.5C 174.167,188.5 172.833,189.5 171.5,190.5C 171.103,189.475 170.437,189.308 169.5,190C 167.284,192.553 164.784,194.72 162,196.5C 155.747,194.541 150.08,191.541 145,187.5C 145.206,184.394 146.039,181.394 147.5,178.5C 148.728,177.694 149.728,176.694 150.5,175.5C 156.328,181.748 163.661,185.414 172.5,186.5C 174.569,186.176 174.902,185.342 173.5,184C 175.101,183.727 176.601,183.227 178,182.5C 178.498,179.183 178.665,175.85 178.5,172.5C 172.997,173.352 167.664,173.352 162.5,172.5C 164.042,171.699 165.708,171.366 167.5,171.5 Z"/></g>
<g><path style="opacity:1" fill="#fafbfd" d="M 247.5,198.5 C 244.703,198.967 243.369,200.633 243.5,203.5C 245.948,203.085 247.281,204.085 247.5,206.5C 245.411,209.378 243.077,212.045 240.5,214.5C 244.464,216.88 248.797,217.88 253.5,217.5C 254.384,221.49 253.051,224.323 249.5,226C 250.978,228.039 252.978,228.872 255.5,228.5C 255.313,230.564 254.813,232.564 254,234.5C 253.586,234.043 253.086,233.709 252.5,233.5C 248.48,235.786 244.313,237.786 240,239.5C 239.322,241.902 239.822,244.068 241.5,246C 240.852,247.44 240.519,248.94 240.5,250.5C 237.09,250.384 235.756,252.05 236.5,255.5C 235.5,255.5 234.5,255.5 233.5,255.5C 232.068,253.673 230.401,252.006 228.5,250.5C 227.534,248.604 227.201,246.604 227.5,244.5C 226.127,244.657 224.793,244.49 223.5,244C 222.152,241.487 220.152,239.653 217.5,238.5C 217.544,232.712 214.711,229.712 209,229.5C 207.434,223.978 207.267,218.478 208.5,213C 215.522,213.279 222.522,212.446 229.5,210.5C 230.374,208.253 230.708,205.92 230.5,203.5C 232.5,203.5 234.5,203.5 236.5,203.5C 235.447,200.393 234.114,197.393 232.5,194.5C 233.127,187.359 236.96,182.692 244,180.5C 248.227,181.473 249.06,183.473 246.5,186.5C 249.107,187.318 251.774,187.818 254.5,188C 252.393,189.264 251.393,191.097 251.5,193.5C 248.09,193.384 246.756,195.05 247.5,198.5 Z"/></g>
<g><path style="opacity:1" fill="#fbfbfc" d="M 167.5,171.5 C 173.979,170.509 180.646,170.176 187.5,170.5C 185.393,171.468 183.059,171.802 180.5,171.5C 180.334,175.514 180.501,179.514 181,183.5C 188.167,190 195.333,196.5 202.5,203C 211.16,203.5 219.827,203.666 228.5,203.5C 230.168,205.991 229.834,208.158 227.5,210C 220.166,211.322 212.833,211.822 205.5,211.5C 205.5,215.5 205.5,219.5 205.5,223.5C 203.131,223.149 200.797,222.982 198.5,223C 193.455,225.185 188.788,228.018 184.5,231.5C 183.328,231.081 182.328,230.415 181.5,229.5C 185.673,226.855 185.34,225.188 180.5,224.5C 180.649,223.448 180.483,222.448 180,221.5C 176.061,219.233 173.228,216.066 171.5,212C 173.871,209.384 175.037,206.217 175,202.5C 180.047,200.03 180.713,196.696 177,192.5C 176.505,190.527 176.338,188.527 176.5,186.5C 177.122,185.373 177.955,184.373 179,183.5C 179.499,179.514 179.666,175.514 179.5,171.5C 175.5,171.5 171.5,171.5 167.5,171.5 Z"/></g>
<g><path style="opacity:1" fill="#f7f6f6" d="M 221.5,172.5 C 223.67,175.506 225.336,178.839 226.5,182.5C 232.301,183.652 233.968,186.985 231.5,192.5C 226.969,186.778 222.969,180.611 219.5,174C 220.044,173.283 220.711,172.783 221.5,172.5 Z"/></g>
<g><path style="opacity:1" fill="#fafbfc" d="M 175.5,187.5 C 175.179,188.817 174.846,190.151 174.5,191.5C 175.465,193.329 176.465,195.162 177.5,197C 177.473,199.363 176.306,200.863 174,201.5C 174.316,205.137 172.982,207.804 170,209.5C 170.082,214.967 172.749,218.967 178,221.5C 178.699,223.074 178.365,224.407 177,225.5C 176.882,223.427 175.882,222.093 174,221.5C 172.532,222.628 170.865,223.294 169,223.5C 164.382,221.44 159.548,220.44 154.5,220.5C 154.288,223.558 152.955,226.058 150.5,228C 149.101,228.595 147.768,228.428 146.5,227.5C 145.808,228.025 145.308,228.692 145,229.5C 143.891,225.047 141.058,223.38 136.5,224.5C 135.591,222.239 135.258,220.072 135.5,218C 139.153,216.387 142.653,214.553 146,212.5C 146.044,209.525 145.877,206.525 145.5,203.5C 149.514,203.666 153.514,203.499 157.5,203C 159.323,202.003 160.99,200.836 162.5,199.5C 163.209,200.404 164.209,200.737 165.5,200.5C 165.737,199.209 165.404,198.209 164.5,197.5C 166.5,194.833 168.833,192.5 171.5,190.5C 172.833,189.5 174.167,188.5 175.5,187.5 Z"/></g>
<g><path style="opacity:1" fill="#3f68b7" d="M 113.5,191.5 C 114.5,191.5 115.5,191.5 116.5,191.5C 116.5,192.833 116.5,194.167 116.5,195.5C 113.046,195.733 112.046,194.4 113.5,191.5 Z"/></g>
<g><path style="opacity:1" fill="#3f68b7" d="M 266.5,192.5 C 267.833,192.5 269.167,192.5 270.5,192.5C 270.778,194.346 270.111,195.68 268.5,196.5C 266.889,195.68 266.222,194.346 266.5,192.5 Z"/></g>
<g><path style="opacity:1" fill="#fafbfd" d="M 53.5,241.5 C 52.596,242.209 52.2627,243.209 52.5,244.5C 47.8882,243.806 43.2215,243.806 38.5,244.5C 39.4196,242.119 39.4196,239.786 38.5,237.5C 38.9767,236.522 39.6433,235.689 40.5,235C 38.1918,233.133 35.5251,232.133 32.5,232C 31.5,230.333 30.5,228.667 29.5,227C 34.1531,222.811 34.4864,218.478 30.5,214C 31.5742,213.261 32.2409,212.261 32.5,211C 31.3099,209.192 31.3099,207.359 32.5,205.5C 32.363,203.893 31.6964,202.559 30.5,201.5C 29.549,202.326 28.549,202.492 27.5,202C 29.0488,200.786 30.2155,199.286 31,197.5C 31.414,197.957 31.914,198.291 32.5,198.5C 34.1727,196.914 36.1727,196.247 38.5,196.5C 38.5,198.167 38.5,199.833 38.5,201.5C 40.1667,201.5 41.8333,201.5 43.5,201.5C 44.1211,207.129 46.4544,211.963 50.5,216C 53.3044,216.46 55.9711,215.96 58.5,214.5C 60.9252,215.308 63.2585,216.308 65.5,217.5C 64.3717,218.262 63.2051,218.929 62,219.5C 61.6892,221.556 61.1892,223.556 60.5,225.5C 62.1174,227.632 62.6174,229.965 62,232.5C 59.3063,234.024 56.6396,235.69 54,237.5C 53.51,238.793 53.3433,240.127 53.5,241.5 Z"/></g>
<g><path style="opacity:1" fill="#3d67b6" d="M 55.5,197.5 C 57.3464,197.222 58.6798,197.889 59.5,199.5C 58.6798,201.111 57.3464,201.778 55.5,201.5C 55.5,200.167 55.5,198.833 55.5,197.5 Z"/></g>
<g><path style="opacity:1" fill="#325fb1" d="M 164.5,197.5 C 165.404,198.209 165.737,199.209 165.5,200.5C 164.209,200.737 163.209,200.404 162.5,199.5C 162.833,198.5 163.5,197.833 164.5,197.5 Z"/></g>
<g><path style="opacity:1" fill="#d6b26a" d="M 153.5,134.5 C 153.842,135.338 154.508,135.672 155.5,135.5C 155.265,136.097 154.765,136.43 154,136.5C 150.981,134.822 147.815,133.989 144.5,134C 149.978,143.423 154.311,152.923 157.5,162.5C 154.916,166.666 152.583,171 150.5,175.5C 149.728,176.694 148.728,177.694 147.5,178.5C 146.039,181.394 145.206,184.394 145,187.5C 150.08,191.541 155.747,194.541 162,196.5C 164.784,194.72 167.284,192.553 169.5,190C 170.437,189.308 171.103,189.475 171.5,190.5C 168.833,192.5 166.5,194.833 164.5,197.5C 163.5,197.833 162.833,198.5 162.5,199.5C 160.99,200.836 159.323,202.003 157.5,203C 153.514,203.499 149.514,203.666 145.5,203.5C 144.833,203.5 144.167,203.5 143.5,203.5C 136.833,203.5 130.167,203.5 123.5,203.5C 123.351,202.448 123.517,201.448 124,200.5C 128.762,193.306 133.262,185.973 137.5,178.5C 138.338,178.158 138.672,177.492 138.5,176.5C 140.085,175.998 140.585,174.998 140,173.5C 136.22,169.709 132.387,166.042 128.5,162.5C 134.381,160.362 140.381,158.529 146.5,157C 145.267,154.686 143.933,152.519 142.5,150.5C 142.5,150.167 142.5,149.833 142.5,149.5C 141.559,147.95 140.893,146.284 140.5,144.5C 137.147,141.48 135.814,137.813 136.5,133.5C 138.915,132.695 141.249,131.695 143.5,130.5C 146.629,132.4 149.963,133.733 153.5,134.5 Z"/></g>
<g><path style="opacity:1" fill="#ebd6ac" d="M 135.5,185.5 C 135.746,188.47 137.412,189.803 140.5,189.5C 139.223,192.553 137.556,195.386 135.5,198C 132.989,198.582 130.989,197.749 129.5,195.5C 131.165,191.865 133.165,188.531 135.5,185.5 Z"/></g>
<g><path style="opacity:1" fill="#f8f0e1" d="M 142.5,173.5 C 145.91,173.384 147.244,175.05 146.5,178.5C 144.754,182.327 142.754,185.993 140.5,189.5C 137.412,189.803 135.746,188.47 135.5,185.5C 137.833,181.5 140.167,177.5 142.5,173.5 Z"/></g>
<g><path style="opacity:1" fill="#ecd9b2" d="M 147.5,178.5 C 147.167,178.5 146.833,178.5 146.5,178.5C 147.244,175.05 145.91,173.384 142.5,173.5C 144.032,170.943 145.699,168.443 147.5,166C 149.925,165.014 151.591,165.681 152.5,168C 150.429,171.309 148.762,174.809 147.5,178.5 Z"/></g>
<g><path style="opacity:1" fill="#f1e3c6" d="M 142.5,159.5 C 144.849,159.458 146.182,160.625 146.5,163C 145.305,166.56 143.471,169.726 141,172.5C 138.115,169.952 135.615,167.118 133.5,164C 133.645,163.228 133.978,162.561 134.5,162C 137.379,161.454 140.046,160.621 142.5,159.5 Z"/></g>
<g><path style="opacity:1" fill="#f1e3c6" d="M 140.5,144.5 C 139.572,141.87 138.572,139.204 137.5,136.5C 138.779,133.68 140.779,133.013 143.5,134.5C 146.894,142.288 150.561,149.955 154.5,157.5C 152.724,159.447 150.724,159.78 148.5,158.5C 146.312,153.445 143.645,148.778 140.5,144.5 Z"/></g>
<g><path style="opacity:1" fill="#d8b46e" d="M 215.5,157.5 C 214.315,158.857 213.315,160.357 212.5,162C 214.284,165.735 216.451,169.235 219,172.5C 222.167,169.333 225.333,166.167 228.5,163C 227.142,162.066 225.808,161.232 224.5,160.5C 226.927,160.523 229.26,161.023 231.5,162C 228.629,164.703 225.962,167.536 223.5,170.5C 222.5,170.833 221.833,171.5 221.5,172.5C 220.711,172.783 220.044,173.283 219.5,174C 222.969,180.611 226.969,186.778 231.5,192.5C 231.328,193.492 231.662,194.158 232.5,194.5C 234.114,197.393 235.447,200.393 236.5,203.5C 234.5,203.5 232.5,203.5 230.5,203.5C 229.833,203.5 229.167,203.5 228.5,203.5C 219.827,203.666 211.16,203.5 202.5,203C 195.333,196.5 188.167,190 181,183.5C 180.501,179.514 180.334,175.514 180.5,171.5C 183.059,171.802 185.393,171.468 187.5,170.5C 190.939,170.788 194.272,171.454 197.5,172.5C 192.343,173.211 187.01,173.211 181.5,172.5C 181.335,175.85 181.502,179.183 182,182.5C 185.647,185.313 189.147,188.313 192.5,191.5C 198.402,189.55 204.068,187.05 209.5,184C 211.607,182.736 212.607,180.903 212.5,178.5C 207.994,172.319 204.327,165.652 201.5,158.5C 205.086,150.16 209.086,141.993 213.5,134C 210.888,134.359 208.221,134.859 205.5,135.5C 208.682,133.372 212.182,131.706 216,130.5C 219.369,131.1 222.203,132.6 224.5,135C 221.224,142.386 217.557,149.552 213.5,156.5C 213.957,157.298 214.624,157.631 215.5,157.5 Z"/></g>
<g><path style="opacity:1" fill="#ebd7ad" d="M 224.5,185.5 C 226.652,188.503 228.652,191.67 230.5,195C 229.507,196.967 227.84,198.134 225.5,198.5C 222.779,195.106 220.446,191.439 218.5,187.5C 221.01,187.946 223.01,187.28 224.5,185.5 Z"/></g>
<g><path style="opacity:1" fill="#f8f0e2" d="M 224.5,185.5 C 223.01,187.28 221.01,187.946 218.5,187.5C 216.735,184.291 214.735,181.291 212.5,178.5C 211.177,175.183 209.843,171.85 208.5,168.5C 208.747,165.918 210.08,165.085 212.5,166C 216.636,172.444 220.636,178.944 224.5,185.5 Z"/></g>
<g><path style="opacity:1" fill="#f6eedc" d="M 211.5,140.5 C 215.56,139.848 217.56,141.515 217.5,145.5C 216.092,148.758 214.426,151.924 212.5,155C 207.9,156.583 206.066,155.083 207,150.5C 208.604,147.179 210.104,143.846 211.5,140.5 Z"/></g>
<g><path style="opacity:1" fill="#ebd7ae" d="M 217.5,145.5 C 217.56,141.515 215.56,139.848 211.5,140.5C 212.693,137.948 214.027,135.448 215.5,133C 217.553,132.675 219.553,133.009 221.5,134C 222.517,135.049 222.684,136.216 222,137.5C 220.726,140.391 219.226,143.058 217.5,145.5 Z"/></g>
<g><path style="opacity:1" fill="#fcfcfd" d="M 84.5,202.5 C 86.1455,204.812 88.1455,206.812 90.5,208.5C 91.2421,206.892 91.4087,205.225 91,203.5C 93.267,204.289 95.6003,204.956 98,205.5C 100.206,207.702 102.706,209.536 105.5,211C 106.177,213.982 106.177,216.815 105.5,219.5C 106.5,220.167 107.5,220.833 108.5,221.5C 107.009,223.012 105.176,224.012 103,224.5C 102.781,225.938 102.281,227.271 101.5,228.5C 98.3615,226.91 95.1948,226.576 92,227.5C 92.3905,230.815 93.2238,234.148 94.5,237.5C 92.2672,238.742 90.1005,240.076 88,241.5C 88.2068,243.751 88.3735,246.085 88.5,248.5C 89.5,248.5 90.5,248.5 91.5,248.5C 91.5,249.5 91.5,250.5 91.5,251.5C 90.1266,251.343 88.7932,251.51 87.5,252C 84.431,256.711 80.0976,259.711 74.5,261C 71.838,266.408 68.1713,267.408 63.5,264C 61.1009,263.289 58.7676,263.456 56.5,264.5C 56.1667,264.167 55.8333,263.833 55.5,263.5C 56.7113,262.126 57.7113,260.626 58.5,259C 58.4301,258.235 58.0967,257.735 57.5,257.5C 55.4534,255.804 53.1201,254.47 50.5,253.5C 48.9623,253.453 47.9623,254.12 47.5,255.5C 45.8967,255.688 44.5634,255.188 43.5,254C 44.4438,251.281 44.7771,248.448 44.5,245.5C 47.1194,245.232 49.6194,245.565 52,246.5C 53.2692,245.095 53.7692,243.429 53.5,241.5C 54.2485,240.469 54.9152,239.302 55.5,238C 59.1717,236.497 62.8383,234.997 66.5,233.5C 63.3527,229.578 62.3527,225.244 63.5,220.5C 64.5,220.5 65.5,220.5 66.5,220.5C 66.2148,218.712 66.5481,217.045 67.5,215.5C 68.8139,214.687 69.9805,213.687 71,212.5C 71.4219,208.991 72.4219,205.657 74,202.5C 74.4186,203.672 75.0853,204.672 76,205.5C 78.6897,204.071 81.5231,203.071 84.5,202.5 Z"/></g>
<g><path style="opacity:1" fill="#3260b3" d="M 42.5,215.5 C 43.5,215.5 44.5,215.5 45.5,215.5C 45.5,216.833 45.5,218.167 45.5,219.5C 44.5,219.5 43.5,219.5 42.5,219.5C 42.5,218.167 42.5,216.833 42.5,215.5 Z"/></g>
<g><path style="opacity:1" fill="#315fb2" d="M 85.5,215.5 C 86.5,215.5 87.5,215.5 88.5,215.5C 88.5,216.833 88.5,218.167 88.5,219.5C 87.5,219.5 86.5,219.5 85.5,219.5C 85.5,218.167 85.5,216.833 85.5,215.5 Z"/></g>
<g><path style="opacity:1" fill="#436ab8" d="M 226.5,229.5 C 227.833,229.5 229.167,229.5 230.5,229.5C 230.778,231.346 230.111,232.68 228.5,233.5C 226.889,232.68 226.222,231.346 226.5,229.5 Z"/></g>
<g><path style="opacity:1" fill="#fbfcfd" d="M 243.5,290.5 C 242.624,290.631 241.957,290.298 241.5,289.5C 242.246,288.264 242.579,286.93 242.5,285.5C 241.5,285.5 240.5,285.5 239.5,285.5C 239.167,282.833 238.833,280.167 238.5,277.5C 236.801,277.66 235.134,277.494 233.5,277C 232.842,274.273 231.675,271.773 230,269.5C 229.713,267.109 229.213,264.776 228.5,262.5C 229.877,260.711 230.877,258.711 231.5,256.5C 231.957,255.702 232.624,255.369 233.5,255.5C 233.369,256.376 233.702,257.043 234.5,257.5C 237.833,256.833 239.167,254.833 238.5,251.5C 239.833,251.5 241.167,251.5 242.5,251.5C 242.511,249.453 242.844,247.453 243.5,245.5C 243.41,243.575 242.41,242.408 240.5,242C 240.957,241.586 241.291,241.086 241.5,240.5C 250.397,236.777 258.897,233.111 267,229.5C 268.261,229.759 269.261,230.426 270,231.5C 270.197,234.692 271.03,237.692 272.5,240.5C 271.833,241.167 271.167,241.833 270.5,242.5C 272.25,245.627 274.75,247.96 278,249.5C 280.072,252.355 281.239,255.355 281.5,258.5C 280.365,262.457 277.698,264.29 273.5,264C 273.002,265.158 272.169,265.991 271,266.5C 269.244,265.104 267.744,263.437 266.5,261.5C 263.01,264.411 259.344,267.078 255.5,269.5C 254.772,272.212 253.939,274.879 253,277.5C 250.877,277.966 249.377,279.133 248.5,281C 251.813,282.649 254.813,284.982 257.5,288C 255.113,288.976 253.946,290.809 254,293.5C 252.187,290.587 249.52,288.921 246,288.5C 244.624,288.684 243.791,289.351 243.5,290.5 Z"/></g>
<g><path style="opacity:1" fill="#5372b0" d="M 57.5,257.5 C 54.3061,256.242 50.9728,255.576 47.5,255.5C 47.9623,254.12 48.9623,253.453 50.5,253.5C 53.1201,254.47 55.4534,255.804 57.5,257.5 Z"/></g>
<g><path style="opacity:1" fill="#4c6eb1" d="M 307.5,182.5 C 306.713,184.104 305.38,184.771 303.5,184.5C 303.48,186.143 304.147,187.476 305.5,188.5C 304.735,190.295 304.068,192.128 303.5,194C 305.965,200.522 303.799,204.355 297,205.5C 297.184,208.797 295.684,210.797 292.5,211.5C 292.077,214.603 291.077,217.436 289.5,220C 290,220.5 290.5,221 291,221.5C 292.458,220.253 293.958,220.253 295.5,221.5C 296.731,222.651 296.731,223.817 295.5,225C 296.549,225.492 297.549,225.326 298.5,224.5C 298.394,229.571 296.394,234.071 292.5,238C 296.973,239.02 297.306,240.187 293.5,241.5C 292.405,246.735 289.071,249.068 283.5,248.5C 283.33,247.178 283.663,246.011 284.5,245C 277.625,245.266 276.791,247.766 282,252.5C 282.5,254.5 283,256.5 283.5,258.5C 280.468,264.585 275.468,267.418 268.5,267C 267.789,265.745 266.956,264.579 266,263.5C 263,265.833 260,268.167 257,270.5C 256.558,275.074 254.391,278.407 250.5,280.5C 253.426,281.922 255.926,283.922 258,286.5C 259.789,283.821 260.955,283.987 261.5,287C 261.167,287.833 260.833,288.667 260.5,289.5C 258.775,290.015 257.108,290.682 255.5,291.5C 257.023,293.586 256.69,295.252 254.5,296.5C 253.376,295.086 252.376,293.586 251.5,292C 249.956,291.71 248.623,291.044 247.5,290C 246.072,289.421 244.738,289.588 243.5,290.5C 243.791,289.351 244.624,288.684 246,288.5C 249.52,288.921 252.187,290.587 254,293.5C 253.946,290.809 255.113,288.976 257.5,288C 254.813,284.982 251.813,282.649 248.5,281C 249.377,279.133 250.877,277.966 253,277.5C 253.939,274.879 254.772,272.212 255.5,269.5C 259.344,267.078 263.01,264.411 266.5,261.5C 267.744,263.437 269.244,265.104 271,266.5C 272.169,265.991 273.002,265.158 273.5,264C 277.698,264.29 280.365,262.457 281.5,258.5C 281.239,255.355 280.072,252.355 278,249.5C 274.75,247.96 272.25,245.627 270.5,242.5C 271.167,241.833 271.833,241.167 272.5,240.5C 271.03,237.692 270.197,234.692 270,231.5C 269.261,230.426 268.261,229.759 267,229.5C 258.897,233.111 250.397,236.777 241.5,240.5C 241.291,241.086 240.957,241.586 240.5,242C 242.41,242.408 243.41,243.575 243.5,245.5C 242.844,247.453 242.511,249.453 242.5,251.5C 241.167,251.5 239.833,251.5 238.5,251.5C 239.167,254.833 237.833,256.833 234.5,257.5C 233.702,257.043 233.369,256.376 233.5,255.5C 234.5,255.5 235.5,255.5 236.5,255.5C 235.756,252.05 237.09,250.384 240.5,250.5C 240.519,248.94 240.852,247.44 241.5,246C 239.822,244.068 239.322,241.902 240,239.5C 244.313,237.786 248.48,235.786 252.5,233.5C 253.086,233.709 253.586,234.043 254,234.5C 254.813,232.564 255.313,230.564 255.5,228.5C 252.978,228.872 250.978,228.039 249.5,226C 253.051,224.323 254.384,221.49 253.5,217.5C 248.797,217.88 244.464,216.88 240.5,214.5C 243.077,212.045 245.411,209.378 247.5,206.5C 247.281,204.085 245.948,203.085 243.5,203.5C 243.369,200.633 244.703,198.967 247.5,198.5C 246.859,199.482 246.193,200.482 245.5,201.5C 247.636,202.472 248.803,204.139 249,206.5C 251.275,203.856 253.609,203.856 256,206.5C 258.512,204.911 261.178,203.578 264,202.5C 265.144,202.911 266.311,203.244 267.5,203.5C 269.745,202.076 272.245,201.41 275,201.5C 282.164,202.194 289.331,202.861 296.5,203.5C 299.825,203.725 302.158,202.392 303.5,199.5C 303.013,194.131 302.679,188.798 302.5,183.5C 304.216,183.371 305.883,183.038 307.5,182.5 Z"/></g>
<g><path style="opacity:1" fill="#486cb9" d="M 258.5,250.5 C 259.833,250.5 261.167,250.5 262.5,250.5C 262.778,252.346 262.111,253.68 260.5,254.5C 258.889,253.68 258.222,252.346 258.5,250.5 Z"/></g>
<g><path style="opacity:1" fill="#fbfcfd" d="M 275.5,202.5 C 282.004,204.269 288.67,204.935 295.5,204.5C 295.579,205.93 295.246,207.264 294.5,208.5C 290.699,211.097 288.699,214.764 288.5,219.5C 289.253,223.284 291.253,224.284 294.5,222.5C 294.321,224.954 294.987,227.121 296.5,229C 295.065,232.262 293.065,235.096 290.5,237.5C 293.563,241.583 292.729,244.583 288,246.5C 284.172,241.221 280.339,241.221 276.5,246.5C 272.313,244.765 271.98,242.932 275.5,241C 272.717,237.697 271.051,233.863 270.5,229.5C 269.5,228.833 268.5,228.167 267.5,227.5C 264.563,229.813 261.23,231.146 257.5,231.5C 257.657,230.127 257.49,228.793 257,227.5C 255.467,227.056 253.967,226.723 252.5,226.5C 254.301,223.465 254.968,220.131 254.5,216.5C 250.753,216.608 247.086,216.108 243.5,215C 242.167,214.333 242.167,213.667 243.5,213C 245.167,212.667 246.833,212.333 248.5,212C 252.723,209.521 257.056,207.187 261.5,205C 263.527,204.502 265.527,204.669 267.5,205.5C 270.152,204.248 272.819,203.248 275.5,202.5 Z"/></g>
<g><path style="opacity:1" fill="#3f67b6" d="M 283.5,214.5 C 284.5,214.5 285.5,214.5 286.5,214.5C 286.426,218.541 285.093,219.208 282.5,216.5C 282.863,215.817 283.196,215.15 283.5,214.5 Z"/></g>
</svg>
