<?xml version="1.0" encoding="UTF-8"?>
<!DOCTYPE svg PUBLIC "-//W3C//DTD SVG 1.1//EN" "http://www.w3.org/Graphics/SVG/1.1/DTD/svg11.dtd">
<svg xmlns="http://www.w3.org/2000/svg" version="1.1" width="225px" height="82px" style="shape-rendering:geometricPrecision; text-rendering:geometricPrecision; image-rendering:optimizeQuality; fill-rule:evenodd; clip-rule:evenodd" xmlns:xlink="http://www.w3.org/1999/xlink">
<g><path style="opacity:0.683" fill="#1e1a16" d="M 1.5,-0.5 C 2.5,-0.5 3.5,-0.5 4.5,-0.5C 4.4049,5.79529 5.4049,5.79529 7.5,-0.5C 8.83333,-0.5 10.1667,-0.5 11.5,-0.5C 10.5865,1.83479 9.2532,4.00146 7.5,6C 9.20946,7.91569 10.5428,10.0824 11.5,12.5C 10.277,13.6139 8.94371,13.7805 7.5,13C 5.28538,6.94218 4.28538,7.10884 4.5,13.5C 3.5,13.5 2.5,13.5 1.5,13.5C 1.5,8.83333 1.5,4.16667 1.5,-0.5 Z"/></g>
<g><path style="opacity:0.658" fill="#1e1a16" d="M 18.5,-0.5 C 21.1667,-0.5 23.8333,-0.5 26.5,-0.5C 30.4884,3.79913 30.4884,8.13246 26.5,12.5C 19.3966,14.5633 15.8966,11.8966 16,4.5C 16.8466,2.80678 17.6799,1.14011 18.5,-0.5 Z M 21.5,2.5 C 24.1213,2.4772 25.4546,3.81053 25.5,6.5C 23.5,11.8333 21.5,11.8333 19.5,6.5C 19.7517,4.92714 20.4183,3.5938 21.5,2.5 Z"/></g>
<g><path style="opacity:0.613" fill="#1e1a16" d="M 33.5,-0.5 C 35.5,-0.5 37.5,-0.5 39.5,-0.5C 40.4343,6.09807 41.4343,6.09807 42.5,-0.5C 44.1667,-0.5 45.8333,-0.5 47.5,-0.5C 47.5,4.16667 47.5,8.83333 47.5,13.5C 46.1667,13.5 44.8333,13.5 43.5,13.5C 43.1667,9.5 42.8333,9.5 42.5,13.5C 41.1667,13.5 39.8333,13.5 38.5,13.5C 38.1667,8.16667 37.8333,8.16667 37.5,13.5C 36.1667,13.5 34.8333,13.5 33.5,13.5C 33.5,8.83333 33.5,4.16667 33.5,-0.5 Z"/></g>
<g><path style="opacity:0.612" fill="#1e1a16" d="M 52.5,-0.5 C 56.5,-0.5 60.5,-0.5 64.5,-0.5C 64.6657,3.84611 64.499,8.17944 64,12.5C 62.9887,13.3366 61.8221,13.67 60.5,13.5C 60.5,9.83333 60.5,6.16667 60.5,2.5C 59.1667,2.5 57.8333,2.5 56.5,2.5C 56.5,6.16667 56.5,9.83333 56.5,13.5C 55.1667,13.5 53.8333,13.5 52.5,13.5C 52.5,8.83333 52.5,4.16667 52.5,-0.5 Z"/></g>
<g><path style="opacity:0.709" fill="#1e1a16" d="M 71.5,-0.5 C 72.5,-0.5 73.5,-0.5 74.5,-0.5C 74.5,1.16667 74.5,2.83333 74.5,4.5C 81.9974,3.80383 83.9974,6.63716 80.5,13C 77.5184,13.498 74.5184,13.6646 71.5,13.5C 71.5,8.83333 71.5,4.16667 71.5,-0.5 Z M 74.5,7.5 C 79.579,7.7825 79.7457,8.7825 75,10.5C 74.5172,9.55198 74.3505,8.55198 74.5,7.5 Z"/></g>
<g><path style="opacity:0.658" fill="#1e1a16" d="M 88.5,-0.5 C 89.8333,-0.5 91.1667,-0.5 92.5,-0.5C 92.3398,1.19919 92.5065,2.86586 93,4.5C 93.3661,2.54826 94.1995,0.88159 95.5,-0.5C 97.8333,-0.5 100.167,-0.5 102.5,-0.5C 106.47,3.92969 106.47,8.42969 102.5,13C 97.8309,14.5383 94.6643,13.0383 93,8.5C 92.5065,10.1341 92.3398,11.8008 92.5,13.5C 91.1667,13.5 89.8333,13.5 88.5,13.5C 88.5,8.83333 88.5,4.16667 88.5,-0.5 Z M 97.5,2.5 C 98.8221,2.33003 99.9887,2.66337 101,3.5C 101.667,5.5 101.667,7.5 101,9.5C 98.4633,10.5071 96.9633,9.50711 96.5,6.5C 96.8457,5.15082 97.179,3.81748 97.5,2.5 Z"/></g>
<g><path style="opacity:0.632" fill="#1e1a16" d="M 109.5,-0.5 C 113.167,-0.5 116.833,-0.5 120.5,-0.5C 120.5,0.5 120.5,1.5 120.5,2.5C 119.5,2.5 118.5,2.5 117.5,2.5C 117.5,6.16667 117.5,9.83333 117.5,13.5C 116.167,13.5 114.833,13.5 113.5,13.5C 113.5,9.83333 113.5,6.16667 113.5,2.5C 112.167,2.5 110.833,2.5 109.5,2.5C 109.5,1.5 109.5,0.5 109.5,-0.5 Z"/></g>
<g><path style="opacity:0.603" fill="#1e1a16" d="M 125.5,-0.5 C 129.167,-0.5 132.833,-0.5 136.5,-0.5C 136.5,0.5 136.5,1.5 136.5,2.5C 127.167,3.16667 127.167,3.83333 136.5,4.5C 136.5,5.5 136.5,6.5 136.5,7.5C 134.167,7.5 131.833,7.5 129.5,7.5C 129.351,8.55198 129.517,9.55198 130,10.5C 132.041,9.57692 134.208,9.24358 136.5,9.5C 136.5,10.8333 136.5,12.1667 136.5,13.5C 132.833,13.5 129.167,13.5 125.5,13.5C 125.5,8.83333 125.5,4.16667 125.5,-0.5 Z"/></g>
<g><path style="opacity:0.656" fill="#1e1a16" d="M 142.5,-0.5 C 145.5,-0.5 148.5,-0.5 151.5,-0.5C 154.822,5.18704 153.155,8.18704 146.5,8.5C 146.5,10.1667 146.5,11.8333 146.5,13.5C 145.167,13.5 143.833,13.5 142.5,13.5C 142.5,8.83333 142.5,4.16667 142.5,-0.5 Z M 146.5,2.5 C 149.674,2.95221 150.007,3.95221 147.5,5.5C 146.614,4.67504 146.281,3.67504 146.5,2.5 Z"/></g>
<g><path style="opacity:0.686" fill="#1e1a16" d="M 158.5,-0.5 C 159.833,-0.5 161.167,-0.5 162.5,-0.5C 162.5,1.16667 162.5,2.83333 162.5,4.5C 163.833,4.5 165.167,4.5 166.5,4.5C 166.5,2.83333 166.5,1.16667 166.5,-0.5C 167.5,-0.5 168.5,-0.5 169.5,-0.5C 169.5,4.16667 169.5,8.83333 169.5,13.5C 168.5,13.5 167.5,13.5 166.5,13.5C 166.5,11.5 166.5,9.5 166.5,7.5C 165.167,7.5 163.833,7.5 162.5,7.5C 162.5,9.5 162.5,11.5 162.5,13.5C 161.167,13.5 159.833,13.5 158.5,13.5C 158.5,8.83333 158.5,4.16667 158.5,-0.5 Z"/></g>
<g><path style="opacity:0.606" fill="#1e1a16" d="M 175.5,-0.5 C 176.833,-0.5 178.167,-0.5 179.5,-0.5C 179.5,1.16667 179.5,2.83333 179.5,4.5C 182.365,4.05484 184.865,4.7215 187,6.5C 187.497,4.19018 187.663,1.85684 187.5,-0.5C 188.833,-0.5 190.167,-0.5 191.5,-0.5C 191.5,4.16667 191.5,8.83333 191.5,13.5C 189.549,13.7733 188.049,13.1066 187,11.5C 186.5,12 186,12.5 185.5,13C 182.183,13.4983 178.85,13.665 175.5,13.5C 175.5,8.83333 175.5,4.16667 175.5,-0.5 Z M 179.5,7.5 C 184.579,7.7825 184.746,8.7825 180,10.5C 179.517,9.55198 179.351,8.55198 179.5,7.5 Z"/></g>
<g><path style="opacity:0.621" fill="#1e1a16" d="M 197.5,-0.5 C 201.167,-0.5 204.833,-0.5 208.5,-0.5C 208.5,0.5 208.5,1.5 208.5,2.5C 206.076,2.19244 203.743,2.52577 201.5,3.5C 203.396,4.46557 205.396,4.7989 207.5,4.5C 207.5,5.5 207.5,6.5 207.5,7.5C 205.5,7.5 203.5,7.5 201.5,7.5C 201.351,8.55198 201.517,9.55198 202,10.5C 204.041,9.57692 206.208,9.24358 208.5,9.5C 208.5,10.8333 208.5,12.1667 208.5,13.5C 204.833,13.5 201.167,13.5 197.5,13.5C 197.5,8.83333 197.5,4.16667 197.5,-0.5 Z"/></g>
<g><path style="opacity:0.122" fill="#241d19" d="M -0.5,15.5 C 69.1675,15.3333 138.834,15.5 208.5,16C 209.491,32.0891 209.825,48.2558 209.5,64.5C 139.5,64.5 69.5,64.5 -0.5,64.5C -0.5,48.1667 -0.5,31.8333 -0.5,15.5 Z"/></g>
<g><path style="opacity:0.973" fill="#581c16" d="M 65.5,17.5 C 65.8333,17.5 66.1667,17.5 66.5,17.5C 66.5,32.5 66.5,47.5 66.5,62.5C 113.5,62.5 160.5,62.5 207.5,62.5C 160.336,63.4988 113.003,63.8321 65.5,63.5C 65.5,48.1667 65.5,32.8333 65.5,17.5 Z"/></g>
<g><path style="opacity:0.984" fill="#686764" d="M 64.5,17.5 C 64.8333,17.5 65.1667,17.5 65.5,17.5C 65.5,32.8333 65.5,48.1667 65.5,63.5C 43.6602,63.8307 21.9936,63.4973 0.5,62.5C 21.8333,62.5 43.1667,62.5 64.5,62.5C 64.5,47.5 64.5,32.5 64.5,17.5 Z"/></g>
<g><path style="opacity:1" fill="#da271e" d="M 66.5,17.5 C 113.5,17.5 160.5,17.5 207.5,17.5C 207.5,32.5 207.5,47.5 207.5,62.5C 160.5,62.5 113.5,62.5 66.5,62.5C 66.5,47.5 66.5,32.5 66.5,17.5 Z"/></g>
<g><path style="opacity:1" fill="#ee9d99" d="M 181.5,44.5 C 182.483,48.2984 182.817,52.2984 182.5,56.5C 185.833,56.5 189.167,56.5 192.5,56.5C 189.038,57.4816 185.371,57.815 181.5,57.5C 181.5,53.1667 181.5,48.8333 181.5,44.5 Z"/></g>
<g><path style="opacity:1" fill="#ec8c87" d="M 99.5,29.5 C 100.477,32.2869 100.81,35.2869 100.5,38.5C 96.2984,38.8168 92.2984,38.4834 88.5,37.5C 92.1667,37.5 95.8333,37.5 99.5,37.5C 99.5,34.8333 99.5,32.1667 99.5,29.5 Z"/></g>
<g><path style="opacity:1" fill="#ec908c" d="M 162.5,29.5 C 160.735,30.4614 158.735,30.7947 156.5,30.5C 156.5,39.5 156.5,48.5 156.5,57.5C 152.5,57.5 148.5,57.5 144.5,57.5C 144.5,57.1667 144.5,56.8333 144.5,56.5C 148.167,56.5 151.833,56.5 155.5,56.5C 155.5,47.5 155.5,38.5 155.5,29.5C 157.833,29.5 160.167,29.5 162.5,29.5 Z"/></g>
<g><path style="opacity:1" fill="#e35951" d="M 137.5,29.5 C 139.833,29.5 142.167,29.5 144.5,29.5C 144.5,38.5 144.5,47.5 144.5,56.5C 144.5,56.8333 144.5,57.1667 144.5,57.5C 143.507,48.6822 143.173,39.6822 143.5,30.5C 141.265,30.7947 139.265,30.4614 137.5,29.5 Z"/></g>
<g><path style="opacity:1" fill="#fefafa" d="M 184.5,23.5 C 185.638,26.7193 186.471,30.0526 187,33.5C 188.17,30.1427 189.337,26.8094 190.5,23.5C 194.042,23.1872 197.375,23.5206 200.5,24.5C 198.104,30.8491 195.604,37.1825 193,43.5C 192.501,47.8206 192.334,52.1539 192.5,56.5C 189.167,56.5 185.833,56.5 182.5,56.5C 182.817,52.2984 182.483,48.2984 181.5,44.5C 179.167,37.8333 176.833,31.1667 174.5,24.5C 177.625,23.5206 180.958,23.1872 184.5,23.5 Z"/></g>
<g><path style="opacity:1" fill="#fefefe" d="M 162.5,29.5 C 160.167,29.5 157.833,29.5 155.5,29.5C 155.5,38.5 155.5,47.5 155.5,56.5C 151.833,56.5 148.167,56.5 144.5,56.5C 144.5,47.5 144.5,38.5 144.5,29.5C 142.167,29.5 139.833,29.5 137.5,29.5C 137.5,27.5 137.5,25.5 137.5,23.5C 145.833,23.5 154.167,23.5 162.5,23.5C 162.5,25.5 162.5,27.5 162.5,29.5 Z"/></g>
<g><path style="opacity:1" fill="#f7d1cf" d="M 114.5,23.5 C 114.5,34.5 114.5,45.5 114.5,56.5C 117.833,56.5 121.167,56.5 124.5,56.5C 124.5,45.5 124.5,34.5 124.5,23.5C 125.495,34.6544 125.828,45.9877 125.5,57.5C 121.5,57.5 117.5,57.5 113.5,57.5C 113.172,45.9877 113.505,34.6544 114.5,23.5 Z"/></g>
<g><path style="opacity:1" fill="#fefffe" d="M 114.5,23.5 C 117.833,23.5 121.167,23.5 124.5,23.5C 124.5,34.5 124.5,45.5 124.5,56.5C 121.167,56.5 117.833,56.5 114.5,56.5C 114.5,45.5 114.5,34.5 114.5,23.5 Z"/></g>
<g><path style="opacity:1" fill="#fef7f7" d="M 99.5,29.5 C 99.5,32.1667 99.5,34.8333 99.5,37.5C 95.8333,37.5 92.1667,37.5 88.5,37.5C 88.5,34.5 88.5,31.5 88.5,28.5C 87.1667,28.5 85.8333,28.5 84.5,28.5C 84.5,36.1667 84.5,43.8333 84.5,51.5C 85.8333,51.5 87.1667,51.5 88.5,51.5C 88.5,48.8333 88.5,46.1667 88.5,43.5C 92.5,43.5 96.5,43.5 100.5,43.5C 101.613,50.7801 98.6131,55.2801 91.5,57C 85.9031,58.0909 80.5698,57.4242 75.5,55C 74.1068,53.8289 73.2735,52.3289 73,50.5C 72.3333,43.1667 72.3333,35.8333 73,28.5C 77.84,22.7768 84.0067,20.9434 91.5,23C 95.5662,23.5761 98.2329,25.7427 99.5,29.5 Z"/></g>
<g><path style="opacity:1" fill="#e7706a" d="M 190.5,23.5 C 194.019,22.1923 197.685,22.1923 201.5,23.5C 201.376,24.1067 201.043,24.44 200.5,24.5C 197.375,23.5206 194.042,23.1872 190.5,23.5 Z"/></g>
<g><path style="opacity:1" fill="#e7706b" d="M 184.5,23.5 C 180.958,23.1872 177.625,23.5206 174.5,24.5C 173.957,24.44 173.624,24.1067 173.5,23.5C 177.315,22.1923 180.981,22.1923 184.5,23.5 Z"/></g>
<g><path style="opacity:1" fill="#fbfbfb" d="M 64.5,17.5 C 64.5,32.5 64.5,47.5 64.5,62.5C 43.1667,62.5 21.8333,62.5 0.5,62.5C 0.5,47.5 0.5,32.5 0.5,17.5C 21.8333,17.5 43.1667,17.5 64.5,17.5 Z"/></g>
<g><path style="opacity:1" fill="#1f1b18" d="M 35.5,23.5 C 42.175,23.3337 48.8417,23.5004 55.5,24C 57.286,24.7845 58.786,25.9512 60,27.5C 63.1644,39.494 58.6644,44.8274 46.5,43.5C 46.5,47.8333 46.5,52.1667 46.5,56.5C 42.8333,56.5 39.1667,56.5 35.5,56.5C 35.5,45.5 35.5,34.5 35.5,23.5 Z"/></g>
<g><path style="opacity:1" fill="#e5e4e4" d="M 46.5,28.5 C 49.7343,28.2366 51.0676,29.7366 50.5,33C 51.0676,36.2634 49.7343,37.7634 46.5,37.5C 46.5,34.5 46.5,31.5 46.5,28.5 Z"/></g>
<g><path style="opacity:1" fill="#92908f" d="M 35.5,23.5 C 35.5,34.5 35.5,45.5 35.5,56.5C 39.1667,56.5 42.8333,56.5 46.5,56.5C 42.7016,57.4834 38.7016,57.8168 34.5,57.5C 34.1719,45.9877 34.5052,34.6544 35.5,23.5 Z"/></g>
<g><path style="opacity:1" fill="#918e8c" d="M 20.5,23.5 C 21.4948,34.6544 21.8281,45.9877 21.5,57.5C 17.2984,57.8168 13.2984,57.4834 9.5,56.5C 13.1667,56.5 16.8333,56.5 20.5,56.5C 20.5,45.5 20.5,34.5 20.5,23.5 Z"/></g>
<g><path style="opacity:1" fill="#1d1815" d="M 20.5,23.5 C 20.5,34.5 20.5,45.5 20.5,56.5C 16.8333,56.5 13.1667,56.5 9.5,56.5C 9.5,45.5 9.5,34.5 9.5,23.5C 13.1667,23.5 16.8333,23.5 20.5,23.5 Z"/></g>
<g><path style="opacity:0.579" fill="#1e1a16" d="M 7.5,81.5 C 6.16667,81.5 4.83333,81.5 3.5,81.5C 3.5,78.1667 3.5,74.8333 3.5,71.5C 2.5,71.5 1.5,71.5 0.5,71.5C 0.5,70.1667 0.5,68.8333 0.5,67.5C 4.16667,67.5 7.83333,67.5 11.5,67.5C 11.5,68.8333 11.5,70.1667 11.5,71.5C 10.1667,71.5 8.83333,71.5 7.5,71.5C 7.5,74.8333 7.5,78.1667 7.5,81.5 Z"/></g>
<g><path style="opacity:0.584" fill="#1e1a16" d="M 33.5,81.5 C 29.8333,81.5 26.1667,81.5 22.5,81.5C 22.5,76.8333 22.5,72.1667 22.5,67.5C 26.1667,67.5 29.8333,67.5 33.5,67.5C 33.5,68.8333 33.5,70.1667 33.5,71.5C 31.1432,71.3367 28.8098,71.5034 26.5,72C 28.4727,72.4955 30.4727,72.6621 32.5,72.5C 32.5,73.8333 32.5,75.1667 32.5,76.5C 30.396,76.2011 28.396,76.5344 26.5,77.5C 28.7427,78.4742 31.076,78.8076 33.5,78.5C 33.5,79.5 33.5,80.5 33.5,81.5 Z"/></g>
<g><path style="opacity:0.627" fill="#1e1a16" d="M 57.5,81.5 C 55.8333,81.5 54.1667,81.5 52.5,81.5C 51.6272,76.4645 50.2939,76.4645 48.5,81.5C 47.1667,81.5 45.8333,81.5 44.5,81.5C 45.5566,79.0587 46.89,76.7254 48.5,74.5C 47.0413,72.417 45.7079,70.2503 44.5,68C 47.8039,66.9581 49.9705,68.1247 51,71.5C 51.687,68.5744 53.5203,67.2411 56.5,67.5C 56.0198,70.0046 55.0198,72.3379 53.5,74.5C 54.8611,76.8505 56.1944,79.1838 57.5,81.5 Z"/></g>
<g><path style="opacity:0.66" fill="#1e1a16" d="M 78.5,81.5 C 77.1667,81.5 75.8333,81.5 74.5,81.5C 74.5,79.8333 74.5,78.1667 74.5,76.5C 73.1667,76.5 71.8333,76.5 70.5,76.5C 70.5,78.1667 70.5,79.8333 70.5,81.5C 69.5,81.5 68.5,81.5 67.5,81.5C 67.5,76.8333 67.5,72.1667 67.5,67.5C 68.5,67.5 69.5,67.5 70.5,67.5C 70.5,69.1667 70.5,70.8333 70.5,72.5C 71.8333,72.5 73.1667,72.5 74.5,72.5C 74.5,70.8333 74.5,69.1667 74.5,67.5C 75.8333,67.5 77.1667,67.5 78.5,67.5C 78.5,72.1667 78.5,76.8333 78.5,81.5 Z"/></g>
<g><path style="opacity:0.66" fill="#1e1a16" d="M 96.5,81.5 C 94.1667,81.5 91.8333,81.5 89.5,81.5C 85.9317,77.6652 85.5984,73.4985 88.5,69C 97.2621,66.0898 100.762,69.2564 99,78.5C 97.955,79.3734 97.1217,80.3734 96.5,81.5 Z M 90.5,71.5 C 92.1667,71.5 93.8333,71.5 95.5,71.5C 95.6621,73.5273 95.4955,75.5273 95,77.5C 93.6667,78.8333 92.3333,78.8333 91,77.5C 90.5045,75.5273 90.3379,73.5273 90.5,71.5 Z"/></g>
<g><path style="opacity:0.605" fill="#1e1a16" d="M 120.5,81.5 C 119.167,81.5 117.833,81.5 116.5,81.5C 116.132,68.2785 115.132,68.2785 113.5,81.5C 111.833,81.5 110.167,81.5 108.5,81.5C 110.102,77.0138 110.768,72.3471 110.5,67.5C 113.833,67.5 117.167,67.5 120.5,67.5C 120.5,72.1667 120.5,76.8333 120.5,81.5 Z"/></g>
<g><path style="opacity:0.655" fill="#1e1a16" d="M 141.5,81.5 C 139.167,81.5 136.833,81.5 134.5,81.5C 130.94,77.7079 130.606,73.5412 133.5,69C 142.262,66.0898 145.762,69.2564 144,78.5C 142.955,79.3734 142.122,80.3734 141.5,81.5 Z M 135.5,71.5 C 137.167,71.5 138.833,71.5 140.5,71.5C 140.662,73.5273 140.495,75.5273 140,77.5C 138.667,78.8333 137.333,78.8333 136,77.5C 135.505,75.5273 135.338,73.5273 135.5,71.5 Z"/></g>
<g><path style="opacity:0.57" fill="#1e1a16" d="M 159.5,81.5 C 158.167,81.5 156.833,81.5 155.5,81.5C 155.5,76.8333 155.5,72.1667 155.5,67.5C 158.518,67.3354 161.518,67.502 164.5,68C 165.337,69.0113 165.67,70.1779 165.5,71.5C 163.5,71.5 161.5,71.5 159.5,71.5C 159.5,74.8333 159.5,78.1667 159.5,81.5 Z"/></g>
<g><path style="opacity:0.598" fill="#1e1a16" d="M 186.5,81.5 C 185.167,81.5 183.833,81.5 182.5,81.5C 182.662,79.4727 182.495,77.4727 182,75.5C 181.074,77.6917 179.907,79.6917 178.5,81.5C 177.167,81.5 175.833,81.5 174.5,81.5C 174.5,76.8333 174.5,72.1667 174.5,67.5C 175.833,67.5 177.167,67.5 178.5,67.5C 178.138,75.0807 179.471,75.2474 182.5,68C 183.793,67.51 185.127,67.3433 186.5,67.5C 186.5,72.1667 186.5,76.8333 186.5,81.5 Z"/></g>
<g><path style="opacity:0.666" fill="#1e1a16" d="M 208.5,81.5 C 207.167,81.5 205.833,81.5 204.5,81.5C 204.569,75.2579 203.569,75.2579 201.5,81.5C 200.167,81.5 198.833,81.5 197.5,81.5C 197.5,76.8333 197.5,72.1667 197.5,67.5C 198.5,67.5 199.5,67.5 200.5,67.5C 199.824,76.4779 201.157,76.8112 204.5,68.5C 205.689,67.5713 207.022,67.238 208.5,67.5C 208.5,72.1667 208.5,76.8333 208.5,81.5 Z"/></g>
</svg>
