<?xml version="1.0" encoding="UTF-8"?>
<!DOCTYPE svg PUBLIC "-//W3C//DTD SVG 1.1//EN" "http://www.w3.org/Graphics/SVG/1.1/DTD/svg11.dtd">
<svg xmlns="http://www.w3.org/2000/svg" version="1.1" width="360px" height="198px" style="shape-rendering:geometricPrecision; text-rendering:geometricPrecision; image-rendering:optimizeQuality; fill-rule:evenodd; clip-rule:evenodd" xmlns:xlink="http://www.w3.org/1999/xlink">
<g><path style="opacity:1" fill="#37569b" d="M -0.5,-0.5 C 40.5,-0.5 81.5,-0.5 122.5,-0.5C 122.5,2.5 122.5,5.5 122.5,8.5C 124.099,8.23219 125.432,8.56552 126.5,9.5C 123.482,9.33537 120.482,9.50204 117.5,10C 110.968,16.1975 104.801,22.6975 99,29.5C 98.5004,22.8417 98.3337,16.175 98.5,9.5C 95.5,9.5 92.5,9.5 89.5,9.5C 89.5,20.1667 89.5,30.8333 89.5,41.5C 92.9783,41.8158 96.3117,41.3158 99.5,40C 105.699,34.1356 111.532,27.9689 117,21.5C 117.5,28.1583 117.666,34.825 117.5,41.5C 120.5,41.5 123.5,41.5 126.5,41.5C 125.432,42.4345 124.099,42.7678 122.5,42.5C 122.5,50.1667 122.5,57.8333 122.5,65.5C 121.206,67.0478 120.539,69.0478 120.5,71.5C 120.401,75.0242 121.067,78.3575 122.5,81.5C 122.193,91.5824 122.526,101.582 123.5,111.5C 114.131,106.832 104.464,106.332 94.5,110C 88.8765,111.415 88.0431,114.249 92,118.5C 97.4657,125.814 104.632,130.481 113.5,132.5C 113.5,149.5 113.5,166.5 113.5,183.5C 108.821,183.666 104.155,183.499 99.5,183C 99,182.5 98.5,182 98,181.5C 97.5003,173.841 97.3336,166.174 97.5,158.5C 94.8333,158.5 92.1667,158.5 89.5,158.5C 89.0505,168.605 89.5505,178.605 91,188.5C 92.4194,189.46 93.9194,190.293 95.5,191C 104.202,191.744 112.868,191.578 121.5,190.5C 122.468,192.607 122.802,194.941 122.5,197.5C 81.5,197.5 40.5,197.5 -0.5,197.5C -0.5,131.5 -0.5,65.5 -0.5,-0.5 Z"/></g>
<g><path style="opacity:1" fill="#355395" d="M 122.5,-0.5 C 155.167,-0.5 187.833,-0.5 220.5,-0.5C 220.5,16.8333 220.5,34.1667 220.5,51.5C 200.5,51.5 180.5,51.5 160.5,51.5C 160.5,55.5 160.5,59.5 160.5,63.5C 180.5,63.5 200.5,63.5 220.5,63.5C 220.5,66.5 220.5,69.5 220.5,72.5C 200.5,72.5 180.5,72.5 160.5,72.5C 160.5,76.5 160.5,80.5 160.5,84.5C 180.5,84.5 200.5,84.5 220.5,84.5C 220.5,87.5 220.5,90.5 220.5,93.5C 243.167,93.5 265.833,93.5 288.5,93.5C 298.681,93.1726 308.681,93.506 318.5,94.5C 265.833,94.5 213.167,94.5 160.5,94.5C 160.5,98.1667 160.5,101.833 160.5,105.5C 213.167,105.5 265.833,105.5 318.5,105.5C 308.681,106.494 298.681,106.827 288.5,106.5C 265.833,106.5 243.167,106.5 220.5,106.5C 220.5,109.5 220.5,112.5 220.5,115.5C 200.5,115.5 180.5,115.5 160.5,115.5C 160.5,119.5 160.5,123.5 160.5,127.5C 180.5,127.5 200.5,127.5 220.5,127.5C 220.5,130.5 220.5,133.5 220.5,136.5C 226.026,136.179 231.36,136.512 236.5,137.5C 211.167,137.5 185.833,137.5 160.5,137.5C 160.5,141.167 160.5,144.833 160.5,148.5C 185.5,148.5 210.5,148.5 235.5,148.5C 230.695,149.487 225.695,149.821 220.5,149.5C 220.183,153.702 220.517,157.702 221.5,161.5C 218.864,170.474 218.864,179.474 221.5,188.5C 220.523,191.287 220.19,194.287 220.5,197.5C 187.833,197.5 155.167,197.5 122.5,197.5C 122.802,194.941 122.468,192.607 121.5,190.5C 123.901,189.254 125.401,187.254 126,184.5C 126.5,175.84 126.666,167.173 126.5,158.5C 123.5,158.5 120.5,158.5 117.5,158.5C 117.666,166.507 117.5,174.507 117,182.5C 115.989,183.337 114.822,183.67 113.5,183.5C 113.5,166.5 113.5,149.5 113.5,132.5C 122.193,133.732 130.193,132.065 137.5,127.5C 133.871,121.207 129.204,115.874 123.5,111.5C 122.526,101.582 122.193,91.5824 122.5,81.5C 130.803,84.5155 138.469,83.1822 145.5,77.5C 139.668,70.0832 132.001,66.0832 122.5,65.5C 122.5,57.8333 122.5,50.1667 122.5,42.5C 124.099,42.7678 125.432,42.4345 126.5,41.5C 126.5,30.8333 126.5,20.1667 126.5,9.5C 125.432,8.56552 124.099,8.23219 122.5,8.5C 122.5,5.5 122.5,2.5 122.5,-0.5 Z"/></g>
<g><path style="opacity:1" fill="#2e4d8e" d="M 220.5,-0.5 C 253.167,-0.5 285.833,-0.5 318.5,-0.5C 318.5,2.83333 318.5,6.16667 318.5,9.5C 314.167,9.5 309.833,9.5 305.5,9.5C 305.5,20.1667 305.5,30.8333 305.5,41.5C 308.5,41.5 311.5,41.5 314.5,41.5C 314.334,34.1591 314.5,26.8258 315,19.5C 316.513,22.5266 318.013,25.5266 319.5,28.5C 318.508,35.9818 318.175,43.6484 318.5,51.5C 301.163,51.3334 283.83,51.5001 266.5,52C 263.791,55.5208 261.791,59.3541 260.5,63.5C 269.833,63.5 279.167,63.5 288.5,63.5C 288.5,66.5 288.5,69.5 288.5,72.5C 276.495,72.3335 264.495,72.5001 252.5,73C 250.291,76.586 247.957,80.086 245.5,83.5C 259.818,84.4993 274.151,84.8326 288.5,84.5C 288.5,87.5 288.5,90.5 288.5,93.5C 265.833,93.5 243.167,93.5 220.5,93.5C 220.5,90.5 220.5,87.5 220.5,84.5C 225.833,84.5 231.167,84.5 236.5,84.5C 236.5,80.5 236.5,76.5 236.5,72.5C 231.167,72.5 225.833,72.5 220.5,72.5C 220.5,69.5 220.5,66.5 220.5,63.5C 225.833,63.5 231.167,63.5 236.5,63.5C 236.5,59.5 236.5,55.5 236.5,51.5C 231.167,51.5 225.833,51.5 220.5,51.5C 220.5,34.1667 220.5,16.8333 220.5,-0.5 Z"/></g>
<g><path style="opacity:1" fill="#2b4989" d="M 318.5,-0.5 C 332.167,-0.5 345.833,-0.5 359.5,-0.5C 359.5,65.5 359.5,131.5 359.5,197.5C 335.833,197.5 312.167,197.5 288.5,197.5C 288.5,195.5 288.5,193.5 288.5,191.5C 296.5,189.023 299.833,183.523 298.5,175C 300.21,166.188 296.877,160.688 288.5,158.5C 288.5,155.5 288.5,152.5 288.5,149.5C 308.007,149.83 327.341,149.497 346.5,148.5C 347.525,148.103 347.692,147.437 347,146.5C 344.812,143.433 342.645,140.433 340.5,137.5C 323.341,136.503 306.008,136.17 288.5,136.5C 288.5,133.5 288.5,130.5 288.5,127.5C 303.515,127.833 318.515,127.499 333.5,126.5C 333.376,125.893 333.043,125.56 332.5,125.5C 330.735,122.291 328.735,119.291 326.5,116.5C 314.011,115.505 301.344,115.171 288.5,115.5C 288.5,112.5 288.5,109.5 288.5,106.5C 298.681,106.827 308.681,106.494 318.5,105.5C 317.986,103.634 317.32,101.8 316.5,100C 317.856,98.4329 318.523,96.5996 318.5,94.5C 308.681,93.506 298.681,93.1726 288.5,93.5C 288.5,90.5 288.5,87.5 288.5,84.5C 301.171,84.6666 313.838,84.4999 326.5,84C 329.08,80.8416 331.413,77.5082 333.5,74C 318.656,72.5174 303.656,72.0174 288.5,72.5C 288.5,69.5 288.5,66.5 288.5,63.5C 305.837,63.6666 323.17,63.4999 340.5,63C 343.205,59.758 345.539,56.258 347.5,52.5C 337.856,51.5016 328.19,51.1682 318.5,51.5C 318.175,43.6484 318.508,35.9818 319.5,28.5C 321.948,32.5586 324.281,36.7253 326.5,41C 329.554,41.8214 332.554,41.6548 335.5,40.5C 339,33.5 342.5,26.5 346,19.5C 346.5,26.8258 346.666,34.1591 346.5,41.5C 349.5,41.5 352.5,41.5 355.5,41.5C 355.5,30.8333 355.5,20.1667 355.5,9.5C 351.486,9.33449 347.486,9.50115 343.5,10C 338.968,17.0353 334.635,24.2019 330.5,31.5C 326.488,24.1396 322.488,16.8063 318.5,9.5C 318.5,6.16667 318.5,2.83333 318.5,-0.5 Z"/></g>
<g><path style="opacity:1" fill="#fbfbfd" d="M 97.5,1.5 C 101.039,1.84342 104.539,2.51009 108,3.5C 111.461,2.51009 114.961,1.84342 118.5,1.5C 117.993,7.85964 114.493,10.193 108,8.5C 101.563,10.1973 98.0631,7.86401 97.5,1.5 Z"/></g>
<g><path style="opacity:1" fill="#fbfbfd" d="M 3.5,9.5 C 6.5,9.5 9.5,9.5 12.5,9.5C 12.5,20.1667 12.5,30.8333 12.5,41.5C 9.5,41.5 6.5,41.5 3.5,41.5C 3.5,30.8333 3.5,20.1667 3.5,9.5 Z"/></g>
<g><path style="opacity:1" fill="#fafbfc" d="M 32.5,9.5 C 35.5,9.5 38.5,9.5 41.5,9.5C 41.5,20.1667 41.5,30.8333 41.5,41.5C 38.5,41.5 35.5,41.5 32.5,41.5C 32.5,37.1667 32.5,32.8333 32.5,28.5C 27.8333,28.5 23.1667,28.5 18.5,28.5C 18.4139,26.323 17.7472,24.323 16.5,22.5C 21.7921,21.5052 27.1254,21.1718 32.5,21.5C 32.5,17.5 32.5,13.5 32.5,9.5 Z"/></g>
<g><path style="opacity:1" fill="#fcfdfd" d="M 51.5,9.5 C 61.5,9.5 71.5,9.5 81.5,9.5C 81.5,11.8333 81.5,14.1667 81.5,16.5C 73.5,16.5 65.5,16.5 57.5,16.5C 57.5,22.5 57.5,28.5 57.5,34.5C 65.5,34.5 73.5,34.5 81.5,34.5C 81.5,36.8333 81.5,39.1667 81.5,41.5C 71.4944,41.6665 61.4944,41.4998 51.5,41C 50.6667,40.1667 49.8333,39.3333 49,38.5C 48.3333,29.8333 48.3333,21.1667 49,12.5C 50.045,11.6266 50.8783,10.6266 51.5,9.5 Z"/></g>
<g><path style="opacity:1" fill="#f9f9fc" d="M 126.5,9.5 C 126.5,20.1667 126.5,30.8333 126.5,41.5C 123.5,41.5 120.5,41.5 117.5,41.5C 117.666,34.825 117.5,28.1583 117,21.5C 111.532,27.9689 105.699,34.1356 99.5,40C 96.3117,41.3158 92.9783,41.8158 89.5,41.5C 89.5,30.8333 89.5,20.1667 89.5,9.5C 92.5,9.5 95.5,9.5 98.5,9.5C 98.3337,16.175 98.5004,22.8417 99,29.5C 104.801,22.6975 110.968,16.1975 117.5,10C 120.482,9.50204 123.482,9.33537 126.5,9.5 Z"/></g>
<g><path style="opacity:1" fill="#f8f9fb" d="M 134.5,9.5 C 144.172,9.33353 153.839,9.5002 163.5,10C 168.257,12.3458 170.257,16.1791 169.5,21.5C 170.329,27.3528 167.996,31.1861 162.5,33C 158.179,33.499 153.846,33.6657 149.5,33.5C 148.833,30.8333 148.167,28.1667 147.5,25.5C 151.514,25.6655 155.514,25.4988 159.5,25C 161.013,22.0844 160.68,19.4177 158.5,17C 153.511,16.5007 148.511,16.3341 143.5,16.5C 143.5,24.8333 143.5,33.1667 143.5,41.5C 140.5,41.5 137.5,41.5 134.5,41.5C 134.5,30.8333 134.5,20.1667 134.5,9.5 Z"/></g>
<g><path style="opacity:1" fill="#f8f9fb" d="M 184.5,8.5 C 190.842,8.33379 197.175,8.50046 203.5,9C 207.066,9.69983 209.9,11.5332 212,14.5C 212.667,21.5 212.667,28.5 212,35.5C 211.215,37.286 210.049,38.786 208.5,40C 199.576,41.58 190.576,41.9133 181.5,41C 179,39.8333 177.167,38 176,35.5C 175.333,28.8333 175.333,22.1667 176,15.5C 177.851,11.8432 180.684,9.50991 184.5,8.5 Z"/></g>
<g><path style="opacity:1" fill="#f8f9fb" d="M 221.5,9.5 C 224.5,9.5 227.5,9.5 230.5,9.5C 230.5,13.1667 230.5,16.8333 230.5,20.5C 231.552,20.6495 232.552,20.4828 233.5,20C 237.5,16.6667 241.5,13.3333 245.5,10C 249.211,9.17473 252.878,9.3414 256.5,10.5C 251.5,15.1667 246.5,19.8333 241.5,24.5C 247.14,29.4729 252.473,34.8063 257.5,40.5C 253.878,41.6586 250.211,41.8253 246.5,41C 242.101,35.4103 236.767,31.2436 230.5,28.5C 230.5,32.8333 230.5,37.1667 230.5,41.5C 227.5,41.5 224.5,41.5 221.5,41.5C 221.5,30.8333 221.5,20.1667 221.5,9.5 Z"/></g>
<g><path style="opacity:1" fill="#f8f9fb" d="M 269.5,8.5 C 275.509,8.33385 281.509,8.50051 287.5,9C 293.077,9.36065 296.577,12.194 298,17.5C 298.667,22.8333 298.667,28.1667 298,33.5C 297.31,36.196 295.81,38.3626 293.5,40C 284.602,41.6091 275.602,41.9424 266.5,41C 263.619,39.7494 261.786,37.5827 261,34.5C 260.333,28.1667 260.333,21.8333 261,15.5C 262.851,11.8432 265.684,9.50991 269.5,8.5 Z"/></g>
<g><path style="opacity:1" fill="#f7f8fb" d="M 318.5,9.5 C 322.488,16.8063 326.488,24.1396 330.5,31.5C 334.635,24.2019 338.968,17.0353 343.5,10C 347.486,9.50115 351.486,9.33449 355.5,9.5C 355.5,20.1667 355.5,30.8333 355.5,41.5C 352.5,41.5 349.5,41.5 346.5,41.5C 346.666,34.1591 346.5,26.8258 346,19.5C 342.5,26.5 339,33.5 335.5,40.5C 332.554,41.6548 329.554,41.8214 326.5,41C 324.281,36.7253 321.948,32.5586 319.5,28.5C 318.013,25.5266 316.513,22.5266 315,19.5C 314.5,26.8258 314.334,34.1591 314.5,41.5C 311.5,41.5 308.5,41.5 305.5,41.5C 305.5,30.8333 305.5,20.1667 305.5,9.5C 309.833,9.5 314.167,9.5 318.5,9.5 Z"/></g>
<g><path style="opacity:1" fill="#315092" d="M 186.5,16.5 C 191.511,16.3341 196.511,16.5007 201.5,17C 202,17.5 202.5,18 203,18.5C 203.667,23.1667 203.667,27.8333 203,32.5C 202.5,33 202,33.5 201.5,34C 184.757,38.0944 179.757,32.261 186.5,16.5 Z"/></g>
<g><path style="opacity:1" fill="#34508f" d="M 271.5,16.5 C 276.511,16.3341 281.511,16.5007 286.5,17C 287.416,17.3742 288.25,17.8742 289,18.5C 289.984,23.6996 289.484,28.6996 287.5,33.5C 270.315,38.6522 264.982,32.9855 271.5,16.5 Z"/></g>
<g><path style="opacity:1" fill="#fdfdfe" d="M 78.5,26.5 C 73.6946,27.4872 68.6946,27.8205 63.5,27.5C 62.962,25.8828 62.6287,24.2161 62.5,22.5C 67.5111,22.3341 72.5111,22.5007 77.5,23C 78.3366,24.0113 78.67,25.1779 78.5,26.5 Z"/></g>
<g><path style="opacity:1" fill="#c2cbe0" d="M 78.5,26.5 C 79.0431,26.56 79.3764,26.8933 79.5,27.5C 74.0136,28.8147 68.6803,28.8147 63.5,27.5C 68.6946,27.8205 73.6946,27.4872 78.5,26.5 Z"/></g>
<g><path style="opacity:1" fill="#f7f8fb" d="M 3.5,51.5 C 28.8333,51.5 54.1667,51.5 79.5,51.5C 79.5,55.5 79.5,59.5 79.5,63.5C 54.1667,63.5 28.8333,63.5 3.5,63.5C 3.5,59.5 3.5,55.5 3.5,51.5 Z"/></g>
<g><path style="opacity:1" fill="#f7f8fa" d="M 220.5,51.5 C 225.833,51.5 231.167,51.5 236.5,51.5C 236.5,55.5 236.5,59.5 236.5,63.5C 231.167,63.5 225.833,63.5 220.5,63.5C 200.5,63.5 180.5,63.5 160.5,63.5C 160.5,59.5 160.5,55.5 160.5,51.5C 180.5,51.5 200.5,51.5 220.5,51.5 Z"/></g>
<g><path style="opacity:1" fill="#f6f7fa" d="M 318.5,51.5 C 328.19,51.1682 337.856,51.5016 347.5,52.5C 345.539,56.258 343.205,59.758 340.5,63C 323.17,63.4999 305.837,63.6666 288.5,63.5C 279.167,63.5 269.833,63.5 260.5,63.5C 261.791,59.3541 263.791,55.5208 266.5,52C 283.83,51.5001 301.163,51.3334 318.5,51.5 Z"/></g>
<g><path style="opacity:1" fill="#fafbfc" d="M 122.5,65.5 C 132.001,66.0832 139.668,70.0832 145.5,77.5C 138.469,83.1822 130.803,84.5155 122.5,81.5C 121.067,78.3575 120.401,75.0242 120.5,71.5C 120.539,69.0478 121.206,67.0478 122.5,65.5 Z"/></g>
<g><path style="opacity:1" fill="#f7f8fb" d="M 111.5,65.5 C 113.5,65.5 115.5,65.5 117.5,65.5C 119.332,88.3324 109.665,95.3324 88.5,86.5C 93.3615,76.3 101.028,69.3 111.5,65.5 Z"/></g>
<g><path style="opacity:1" fill="#f6f7fa" d="M 3.5,72.5 C 28.8355,72.3334 54.1689,72.5 79.5,73C 80.4601,76.73 80.7935,80.5633 80.5,84.5C 54.8333,84.5 29.1667,84.5 3.5,84.5C 3.5,80.5 3.5,76.5 3.5,72.5 Z"/></g>
<g><path style="opacity:1" fill="#f7f8fb" d="M 220.5,72.5 C 225.833,72.5 231.167,72.5 236.5,72.5C 236.5,76.5 236.5,80.5 236.5,84.5C 231.167,84.5 225.833,84.5 220.5,84.5C 200.5,84.5 180.5,84.5 160.5,84.5C 160.5,80.5 160.5,76.5 160.5,72.5C 180.5,72.5 200.5,72.5 220.5,72.5 Z"/></g>
<g><path style="opacity:1" fill="#f6f7fa" d="M 288.5,72.5 C 303.656,72.0174 318.656,72.5174 333.5,74C 331.413,77.5082 329.08,80.8416 326.5,84C 313.838,84.4999 301.171,84.6666 288.5,84.5C 274.151,84.8326 259.818,84.4993 245.5,83.5C 247.957,80.086 250.291,76.586 252.5,73C 264.495,72.5001 276.495,72.3335 288.5,72.5 Z"/></g>
<g><path style="opacity:1" fill="#fafbfc" d="M 147.5,81.5 C 150.298,83.7339 152.131,86.7339 153,90.5C 154.796,100.48 153.129,109.813 148,118.5C 146.04,120.785 143.874,122.785 141.5,124.5C 135.404,115.721 132.904,106.054 134,95.5C 137.359,89.6428 141.859,84.9761 147.5,81.5 Z"/></g>
<g><path style="opacity:1" fill="#f8f9fb" d="M 86.5,91.5 C 92.4118,92.7304 98.0785,94.7304 103.5,97.5C 104.583,98.365 104.749,99.365 104,100.5C 99.2429,104.131 94.0762,107.131 88.5,109.5C 87.7492,108.624 87.2492,107.624 87,106.5C 86.5007,101.511 86.3341,96.5111 86.5,91.5 Z"/></g>
<g><path style="opacity:1" fill="#fefefe" d="M 3.5,94.5 C 28.8333,94.5 54.1667,94.5 79.5,94.5C 79.5,98.1667 79.5,101.833 79.5,105.5C 54.1667,105.5 28.8333,105.5 3.5,105.5C 3.5,101.833 3.5,98.1667 3.5,94.5 Z"/></g>
<g><path style="opacity:1" fill="#fefefe" d="M 318.5,94.5 C 318.523,96.5996 317.856,98.4329 316.5,100C 317.32,101.8 317.986,103.634 318.5,105.5C 265.833,105.5 213.167,105.5 160.5,105.5C 160.5,101.833 160.5,98.1667 160.5,94.5C 213.167,94.5 265.833,94.5 318.5,94.5 Z"/></g>
<g><path style="opacity:1" fill="#314f8f" d="M 288.5,106.5 C 288.5,109.5 288.5,112.5 288.5,115.5C 274.151,115.167 259.818,115.501 245.5,116.5C 245.624,117.107 245.957,117.44 246.5,117.5C 248.265,120.709 250.265,123.709 252.5,126.5C 264.322,127.495 276.322,127.828 288.5,127.5C 288.5,130.5 288.5,133.5 288.5,136.5C 306.008,136.17 323.341,136.503 340.5,137.5C 313.833,137.5 287.167,137.5 260.5,137.5C 261.572,141.471 263.572,144.971 266.5,148C 293.165,148.5 319.831,148.667 346.5,148.5C 327.341,149.497 308.007,149.83 288.5,149.5C 288.5,152.5 288.5,155.5 288.5,158.5C 280.721,158.068 273.054,158.568 265.5,160C 261.074,163.788 259.408,168.622 260.5,174.5C 259.067,182.132 261.734,187.632 268.5,191C 275.158,191.5 281.825,191.666 288.5,191.5C 288.5,193.5 288.5,195.5 288.5,197.5C 265.833,197.5 243.167,197.5 220.5,197.5C 220.19,194.287 220.523,191.287 221.5,188.5C 223.14,189.32 224.807,190.153 226.5,191C 234.167,191.667 241.833,191.667 249.5,191C 253.601,190.075 255.601,187.575 255.5,183.5C 246.808,183.831 238.141,183.498 229.5,182.5C 228.386,177.554 228.219,172.554 229,167.5C 229.5,167 230,166.5 230.5,166C 238.827,165.5 247.16,165.334 255.5,165.5C 255.918,161.749 254.251,159.582 250.5,159C 242.167,158.333 233.833,158.333 225.5,159C 224.016,159.662 222.683,160.496 221.5,161.5C 220.517,157.702 220.183,153.702 220.5,149.5C 225.695,149.821 230.695,149.487 235.5,148.5C 236.482,145.038 236.815,141.371 236.5,137.5C 231.36,136.512 226.026,136.179 220.5,136.5C 220.5,133.5 220.5,130.5 220.5,127.5C 225.833,127.5 231.167,127.5 236.5,127.5C 236.5,123.5 236.5,119.5 236.5,115.5C 231.167,115.5 225.833,115.5 220.5,115.5C 220.5,112.5 220.5,109.5 220.5,106.5C 243.167,106.5 265.833,106.5 288.5,106.5 Z"/></g>
<g><path style="opacity:1" fill="#fcfcfd" d="M 123.5,111.5 C 129.204,115.874 133.871,121.207 137.5,127.5C 130.193,132.065 122.193,133.732 113.5,132.5C 104.632,130.481 97.4657,125.814 92,118.5C 88.0431,114.249 88.8765,111.415 94.5,110C 104.464,106.332 114.131,106.832 123.5,111.5 Z"/></g>
<g><path style="opacity:1" fill="#cfd6e5" d="M 288.5,115.5 C 301.344,115.171 314.011,115.505 326.5,116.5C 299.661,116.169 272.995,116.502 246.5,117.5C 245.957,117.44 245.624,117.107 245.5,116.5C 259.818,115.501 274.151,115.167 288.5,115.5 Z"/></g>
<g><path style="opacity:1" fill="#f6f7fa" d="M 3.5,115.5 C 28.8355,115.333 54.1689,115.5 79.5,116C 80.8333,119.667 80.8333,123.333 79.5,127C 54.1689,127.5 28.8355,127.667 3.5,127.5C 3.5,123.5 3.5,119.5 3.5,115.5 Z"/></g>
<g><path style="opacity:1" fill="#f7f8fb" d="M 220.5,115.5 C 225.833,115.5 231.167,115.5 236.5,115.5C 236.5,119.5 236.5,123.5 236.5,127.5C 231.167,127.5 225.833,127.5 220.5,127.5C 200.5,127.5 180.5,127.5 160.5,127.5C 160.5,123.5 160.5,119.5 160.5,115.5C 180.5,115.5 200.5,115.5 220.5,115.5 Z"/></g>
<g><path style="opacity:1" fill="#fefefe" d="M 326.5,116.5 C 328.735,119.291 330.735,122.291 332.5,125.5C 306.005,126.498 279.339,126.831 252.5,126.5C 250.265,123.709 248.265,120.709 246.5,117.5C 272.995,116.502 299.661,116.169 326.5,116.5 Z"/></g>
<g><path style="opacity:1" fill="#cad2e2" d="M 332.5,125.5 C 333.043,125.56 333.376,125.893 333.5,126.5C 318.515,127.499 303.515,127.833 288.5,127.5C 276.322,127.828 264.322,127.495 252.5,126.5C 279.339,126.831 306.005,126.498 332.5,125.5 Z"/></g>
<g><path style="opacity:1" fill="#fefefe" d="M 3.5,137.5 C 28.8333,137.5 54.1667,137.5 79.5,137.5C 79.5,141.167 79.5,144.833 79.5,148.5C 54.1667,148.5 28.8333,148.5 3.5,148.5C 3.5,144.833 3.5,141.167 3.5,137.5 Z"/></g>
<g><path style="opacity:1" fill="#fefefe" d="M 236.5,137.5 C 236.815,141.371 236.482,145.038 235.5,148.5C 210.5,148.5 185.5,148.5 160.5,148.5C 160.5,144.833 160.5,141.167 160.5,137.5C 185.833,137.5 211.167,137.5 236.5,137.5 Z"/></g>
<g><path style="opacity:1" fill="#fefefe" d="M 340.5,137.5 C 342.645,140.433 344.812,143.433 347,146.5C 347.692,147.437 347.525,148.103 346.5,148.5C 319.831,148.667 293.165,148.5 266.5,148C 263.572,144.971 261.572,141.471 260.5,137.5C 287.167,137.5 313.833,137.5 340.5,137.5 Z"/></g>
<g><path style="opacity:1" fill="#fafbfc" d="M 3.5,158.5 C 7.96709,158.133 12.3004,158.633 16.5,160C 22.0276,166.227 27.1942,172.727 32,179.5C 32.4996,172.508 32.6663,165.508 32.5,158.5C 35.5,158.5 38.5,158.5 41.5,158.5C 41.5,169.167 41.5,179.833 41.5,190.5C 37.8183,190.665 34.1516,190.499 30.5,190C 24.6667,182.833 18.8333,175.667 13,168.5C 12.5003,175.826 12.3337,183.159 12.5,190.5C 9.5,190.5 6.5,190.5 3.5,190.5C 3.5,179.833 3.5,169.167 3.5,158.5 Z"/></g>
<g><path style="opacity:1" fill="#fafbfc" d="M 81.5,165.5 C 73.5,165.5 65.5,165.5 57.5,165.5C 57.1771,171.69 57.5104,177.69 58.5,183.5C 66.1667,183.5 73.8333,183.5 81.5,183.5C 81.5,185.833 81.5,188.167 81.5,190.5C 71.4944,190.666 61.4944,190.5 51.5,190C 50.2986,189.097 49.4652,187.931 49,186.5C 48.3333,178.5 48.3333,170.5 49,162.5C 49.4652,161.069 50.2986,159.903 51.5,159C 61.4944,158.5 71.4944,158.334 81.5,158.5C 81.5,160.833 81.5,163.167 81.5,165.5 Z"/></g>
<g><path style="opacity:1" fill="#f8f9fb" d="M 113.5,183.5 C 114.822,183.67 115.989,183.337 117,182.5C 117.5,174.507 117.666,166.507 117.5,158.5C 120.5,158.5 123.5,158.5 126.5,158.5C 126.666,167.173 126.5,175.84 126,184.5C 125.401,187.254 123.901,189.254 121.5,190.5C 112.868,191.578 104.202,191.744 95.5,191C 93.9194,190.293 92.4194,189.46 91,188.5C 89.5505,178.605 89.0505,168.605 89.5,158.5C 92.1667,158.5 94.8333,158.5 97.5,158.5C 97.3336,166.174 97.5003,173.841 98,181.5C 98.5,182 99,182.5 99.5,183C 104.155,183.499 108.821,183.666 113.5,183.5 Z"/></g>
<g><path style="opacity:1" fill="#f8f9fb" d="M 134.5,158.5 C 144.172,158.334 153.839,158.5 163.5,159C 165.492,159.574 166.992,160.741 168,162.5C 168.667,166.167 168.667,169.833 168,173.5C 167.097,174.701 165.931,175.535 164.5,176C 165.931,176.465 167.097,177.299 168,178.5C 168.499,182.486 168.666,186.486 168.5,190.5C 165.833,190.5 163.167,190.5 160.5,190.5C 160.665,187.482 160.498,184.482 160,181.5C 159.5,181 159,180.5 158.5,180C 155.447,179.821 152.447,179.321 149.5,178.5C 148.833,177.167 148.167,175.833 147.5,174.5C 151.122,173.675 154.789,173.175 158.5,173C 160.325,171.534 160.825,169.701 160,167.5C 154.593,166.527 149.093,166.193 143.5,166.5C 143.5,174.5 143.5,182.5 143.5,190.5C 140.5,190.5 137.5,190.5 134.5,190.5C 134.5,179.833 134.5,169.167 134.5,158.5 Z"/></g>
<g><path style="opacity:1" fill="#f8f9fb" d="M 182.5,158.5 C 191.235,158.124 199.902,158.624 208.5,160C 212.844,163.87 214.511,168.703 213.5,174.5C 214.201,179.953 212.868,184.787 209.5,189C 201.035,191.5 192.369,192.167 183.5,191C 180.898,190.117 178.731,188.617 177,186.5C 175.409,179.608 175.076,172.608 176,165.5C 177.018,161.985 179.185,159.652 182.5,158.5 Z"/></g>
<g><path style="opacity:1" fill="#f8f9fb" d="M 221.5,188.5 C 218.864,179.474 218.864,170.474 221.5,161.5C 222.683,160.496 224.016,159.662 225.5,159C 233.833,158.333 242.167,158.333 250.5,159C 254.251,159.582 255.918,161.749 255.5,165.5C 247.16,165.334 238.827,165.5 230.5,166C 230,166.5 229.5,167 229,167.5C 228.219,172.554 228.386,177.554 229.5,182.5C 238.141,183.498 246.808,183.831 255.5,183.5C 255.601,187.575 253.601,190.075 249.5,191C 241.833,191.667 234.167,191.667 226.5,191C 224.807,190.153 223.14,189.32 221.5,188.5 Z"/></g>
<g><path style="opacity:1" fill="#f8f9fb" d="M 288.5,158.5 C 296.877,160.688 300.21,166.188 298.5,175C 299.833,183.523 296.5,189.023 288.5,191.5C 281.825,191.666 275.158,191.5 268.5,191C 261.734,187.632 259.067,182.132 260.5,174.5C 259.408,168.622 261.074,163.788 265.5,160C 273.054,158.568 280.721,158.068 288.5,158.5 Z"/></g>
<g><path style="opacity:1" fill="#f7f8fb" d="M 305.5,158.5 C 309.514,158.334 313.514,158.501 317.5,159C 318.667,160.167 319.833,161.333 321,162.5C 323.912,168.658 327.079,174.658 330.5,180.5C 334.708,173.25 339.041,166.084 343.5,159C 347.486,158.501 351.486,158.334 355.5,158.5C 355.5,169.167 355.5,179.833 355.5,190.5C 352.5,190.5 349.5,190.5 346.5,190.5C 346.666,183.492 346.5,176.492 346,169.5C 342.245,176.009 338.745,182.676 335.5,189.5C 332.167,190.833 328.833,190.833 325.5,189.5C 322.255,182.676 318.755,176.009 315,169.5C 314.5,176.492 314.334,183.492 314.5,190.5C 311.5,190.5 308.5,190.5 305.5,190.5C 305.5,179.833 305.5,169.167 305.5,158.5 Z"/></g>
<g><path style="opacity:1" fill="#7e92be" d="M 81.5,165.5 C 74.0182,166.492 66.3516,166.825 58.5,166.5C 58.5,172.167 58.5,177.833 58.5,183.5C 57.5104,177.69 57.1771,171.69 57.5,165.5C 65.5,165.5 73.5,165.5 81.5,165.5 Z"/></g>
<g><path style="opacity:1" fill="#385495" d="M 186.5,165.5 C 202.7,161.857 208.033,167.691 202.5,183C 197.167,183.667 191.833,183.667 186.5,183C 186,182.5 185.5,182 185,181.5C 183.946,175.886 184.446,170.552 186.5,165.5 Z"/></g>
<g><path style="opacity:1" fill="#365190" d="M 271.5,165.5 C 286.304,161.478 292.138,166.811 289,181.5C 288.5,182 288,182.5 287.5,183C 282.167,183.667 276.833,183.667 271.5,183C 271,182.5 270.5,182 270,181.5C 268.946,175.886 269.446,170.552 271.5,165.5 Z"/></g>
<g><path style="opacity:1" fill="#f9f9fc" d="M 62.5,171.5 C 67.5111,171.334 72.5111,171.501 77.5,172C 78.8613,173.584 79.528,175.418 79.5,177.5C 74.1667,177.5 68.8333,177.5 63.5,177.5C 63.1667,175.5 62.8333,173.5 62.5,171.5 Z"/></g>
</svg>
