<?xml version="1.0" encoding="UTF-8"?>
<!DOCTYPE svg PUBLIC "-//W3C//DTD SVG 1.1//EN" "http://www.w3.org/Graphics/SVG/1.1/DTD/svg11.dtd">
<svg xmlns="http://www.w3.org/2000/svg" version="1.1" width="3840px" height="2160px" style="shape-rendering:geometricPrecision; text-rendering:geometricPrecision; image-rendering:optimizeQuality; fill-rule:evenodd; clip-rule:evenodd" xmlns:xlink="http://www.w3.org/1999/xlink">
<g><path style="opacity:1" fill="#79bf43" d="M 3092.5,872.5 C 3089.39,872.736 3086.39,872.403 3083.5,871.5C 3065.22,750.22 3047.22,628.887 3029.5,507.5C 3027.23,507.141 3025.4,507.808 3024,509.5C 3006.4,629.557 2988.56,749.557 2970.5,869.5C 2969.6,870.29 2968.93,871.29 2968.5,872.5C 2965.61,872.958 2963.11,872.291 2961,870.5C 2946.5,759.166 2932,647.833 2917.5,536.5C 2920.29,529.589 2924.13,523.256 2929,517.5C 2966.29,476.739 3011.79,463.239 3065.5,477C 3096.92,487.344 3120.92,506.677 3137.5,535C 3122.93,647.703 3107.93,760.203 3092.5,872.5 Z"/></g>
<g><path style="opacity:1" fill="#7d8081" d="M 1206.5,666.5 C 1294.28,663.944 1380.61,673.777 1465.5,696C 1533.05,714.448 1595.72,743.115 1653.5,782C 1658.24,785.031 1662.57,788.531 1666.5,792.5C 1634.52,828.316 1602.35,863.983 1570,899.5C 1487.65,855.493 1400.15,827.327 1307.5,815C 1246.1,807.848 1184.77,808.515 1123.5,817C 1093.61,821.184 1065.28,830.184 1038.5,844C 1027.09,850.742 1017.59,859.575 1010,870.5C 996.511,901.384 1004.34,925.218 1033.5,942C 1053.28,952.593 1074.28,959.593 1096.5,963C 1112.43,965.8 1128.43,968.133 1144.5,970C 1207.14,974.932 1269.81,979.599 1332.5,984C 1400.5,987.095 1467.17,998.095 1532.5,1017C 1571.24,1028.7 1606.57,1046.7 1638.5,1071C 1679.13,1106.43 1700.96,1151.26 1704,1205.5C 1708.22,1304.25 1667.72,1378.08 1582.5,1427C 1531.37,1454.26 1477.04,1471.93 1419.5,1480C 1306.48,1495.24 1193.81,1492.9 1081.5,1473C 993.712,1457.64 913.046,1425.31 839.5,1376C 828.024,1367.36 816.69,1358.52 805.5,1349.5C 834.168,1310.68 863.334,1272.35 893,1234.5C 1058.12,1337.92 1236.29,1370.09 1427.5,1331C 1458.17,1323.66 1485.5,1310 1509.5,1290C 1535.51,1264.13 1542.01,1233.97 1529,1199.5C 1521.88,1186.05 1511.72,1175.55 1498.5,1168C 1471.76,1154.53 1443.42,1146.53 1413.5,1144C 1388.88,1140.89 1364.21,1138.23 1339.5,1136C 1264.46,1130.4 1189.46,1124.4 1114.5,1118C 1064.46,1112.99 1015.46,1102.99 967.5,1088C 874.681,1056.1 831.847,990.938 839,892.5C 843.956,840.089 865.789,796.256 904.5,761C 942.346,728.902 985.346,705.902 1033.5,692C 1090.25,676.346 1147.91,667.846 1206.5,666.5 Z"/></g>
<g><path style="opacity:1" fill="#7c8082" d="M 158.5,1325.5 C 329.666,1326.5 500.999,1326.83 672.5,1326.5C 672.5,1374.83 672.5,1423.17 672.5,1471.5C 448.833,1472.83 225.167,1472.83 1.5,1471.5C 1.5,1209.83 1.5,948.167 1.5,686.5C 53.5,686.5 105.5,686.5 157.5,686.5C 157.167,899.667 157.5,1112.67 158.5,1325.5 Z"/></g>
<g><path style="opacity:0.737" fill="#798d7c" d="M 158.5,1325.5 C 157.5,1112.67 157.167,899.667 157.5,686.5C 105.5,686.5 53.5,686.5 1.5,686.5C 1.5,948.167 1.5,1209.83 1.5,1471.5C 0.500213,1209.67 0.166879,947.667 0.5,685.5C 53.1667,685.5 105.833,685.5 158.5,685.5C 158.5,898.833 158.5,1112.17 158.5,1325.5 Z"/></g>
<g><path style="opacity:0.737" fill="#788d7d" d="M 2084.5,1471.5 C 2032.34,1472.5 1980,1472.83 1927.5,1472.5C 1927.5,1210.17 1927.5,947.833 1927.5,685.5C 1980.17,685.5 2032.83,685.5 2085.5,685.5C 2085.83,947.667 2085.5,1209.67 2084.5,1471.5 Z"/></g>
<g><path style="opacity:1" fill="#7c8081" d="M 2084.5,1471.5 C 2032.5,1471.5 1980.5,1471.5 1928.5,1471.5C 1928.5,1209.83 1928.5,948.167 1928.5,686.5C 1980.5,686.5 2032.5,686.5 2084.5,686.5C 2084.5,948.167 2084.5,1209.83 2084.5,1471.5 Z"/></g>
<g><path style="opacity:0.996" fill="#07abda" d="M 2590.5,688.5 C 2598.84,688.334 2607.17,688.5 2615.5,689C 2698.72,765.85 2782.22,842.35 2866,918.5C 2865.87,921.098 2864.87,923.431 2863,925.5C 2861.95,926.517 2860.78,926.684 2859.5,926C 2749.7,870.682 2639.87,816.182 2530,762.5C 2529.02,763.759 2528.68,765.092 2529,766.5C 2618.17,851 2707.33,935.5 2796.5,1020C 2794.67,1022.5 2792.83,1025 2791,1027.5C 2690.37,974.518 2589.7,921.852 2489,869.5C 2468.5,820.545 2474.5,775.212 2507,733.5C 2529.39,708.387 2557.23,693.387 2590.5,688.5 Z"/></g>
<g><path style="opacity:0.997" fill="#f59828" d="M 3433.5,688.5 C 3498.54,687.414 3542.7,717.081 3566,777.5C 3575.34,808.427 3573.67,838.761 3561,868.5C 3462.91,920.127 3364.75,971.627 3266.5,1023C 3259.38,1028.74 3255.21,1027.24 3254,1018.5C 3342.67,934.5 3431.33,850.5 3520,766.5C 3520.72,764.339 3520.05,762.672 3518,761.5C 3408.58,816.461 3299.08,871.295 3189.5,926C 3188.36,926.749 3187.36,926.583 3186.5,925.5C 3184.73,923.298 3183.57,920.965 3183,918.5C 3265.83,843 3348.67,767.5 3431.5,692C 3432.82,691.184 3433.49,690.017 3433.5,688.5 Z"/></g>
<g><path style="opacity:1" fill="#7c8081" d="M 3639.5,761.5 C 3665.83,761.5 3692.17,761.5 3718.5,761.5C 3718.5,765.167 3718.5,768.833 3718.5,772.5C 3707.5,772.5 3696.5,772.5 3685.5,772.5C 3685.5,804.5 3685.5,836.5 3685.5,868.5C 3681.17,868.5 3676.83,868.5 3672.5,868.5C 3672.83,836.662 3672.5,804.996 3671.5,773.5C 3661.01,772.506 3650.35,772.172 3639.5,772.5C 3639.5,768.833 3639.5,765.167 3639.5,761.5 Z"/></g>
<g><path style="opacity:1" fill="#7d8181" d="M 3734.5,761.5 C 3740.87,761.17 3747.2,761.504 3753.5,762.5C 3764.42,790.685 3773.92,819.352 3782,848.5C 3790.81,819.404 3800.81,790.738 3812,762.5C 3818.41,761.522 3824.91,761.189 3831.5,761.5C 3833.67,797.491 3835.67,833.491 3837.5,869.5C 3832.35,870.074 3827.52,869.407 3823,867.5C 3821.29,838.168 3819.63,808.835 3818,779.5C 3808.06,809.306 3797.73,838.973 3787,868.5C 3783,869.833 3779,869.833 3775,868.5C 3765.11,839.163 3755.44,809.83 3746,780.5C 3744.64,810.176 3743.14,839.843 3741.5,869.5C 3736.5,869.5 3731.5,869.5 3726.5,869.5C 3729.36,833.524 3732.02,797.524 3734.5,761.5 Z"/></g>
<g><path style="opacity:0.737" fill="#818e73" d="M 3639.5,761.5 C 3639.5,765.167 3639.5,768.833 3639.5,772.5C 3650.35,772.172 3661.01,772.506 3671.5,773.5C 3660.5,773.5 3649.5,773.5 3638.5,773.5C 3638.18,769.298 3638.52,765.298 3639.5,761.5 Z"/></g>
<g><path style="opacity:0.255" fill="#788f7e" d="M 3718.5,761.5 C 3719.48,765.298 3719.82,769.298 3719.5,773.5C 3708.5,773.5 3697.5,773.5 3686.5,773.5C 3686.5,805.5 3686.5,837.5 3686.5,869.5C 3681.5,869.5 3676.5,869.5 3671.5,869.5C 3671.5,837.5 3671.5,805.5 3671.5,773.5C 3672.5,804.996 3672.83,836.662 3672.5,868.5C 3676.83,868.5 3681.17,868.5 3685.5,868.5C 3685.5,836.5 3685.5,804.5 3685.5,772.5C 3696.5,772.5 3707.5,772.5 3718.5,772.5C 3718.5,768.833 3718.5,765.167 3718.5,761.5 Z"/></g>
<g><path style="opacity:0.482" fill="#8c916a" d="M 2970.5,869.5 C 2970.71,871.179 2970.05,872.179 2968.5,872.5C 2968.93,871.29 2969.6,870.29 2970.5,869.5 Z"/></g>
<g><path style="opacity:0.255" fill="#739084" d="M 3083.5,871.5 C 3086.39,872.403 3089.39,872.736 3092.5,872.5C 3091.21,873.158 3089.71,873.492 3088,873.5C 3086.01,873.431 3084.51,872.765 3083.5,871.5 Z"/></g>
<g><path style="opacity:0.997" fill="#f59828" d="M 2789.5,1131.5 C 2793.48,1132.65 2795.31,1135.32 2795,1139.5C 2706.33,1223.5 2617.67,1307.5 2529,1391.5C 2528.78,1393.42 2529.45,1395.09 2531,1396.5C 2640.42,1341.54 2749.92,1286.71 2859.5,1232C 2860.64,1231.25 2861.64,1231.42 2862.5,1232.5C 2864.27,1234.7 2865.43,1237.03 2866,1239.5C 2782.41,1315.72 2698.91,1392.05 2615.5,1468.5C 2563.39,1471.36 2523.23,1451.03 2495,1407.5C 2476.83,1375.64 2472.5,1341.97 2482,1306.5C 2483.68,1300.64 2485.84,1294.97 2488.5,1289.5C 2588.74,1236.55 2689.07,1183.88 2789.5,1131.5 Z"/></g>
<g><path style="opacity:0.995" fill="#08abda" d="M 3257.5,1130.5 C 3358.72,1183.36 3459.89,1236.36 3561,1289.5C 3582.83,1347.35 3571.33,1397.52 3526.5,1440C 3499.4,1461.86 3468.4,1471.53 3433.5,1469C 3350.28,1392.15 3266.78,1315.65 3183,1239.5C 3183.57,1237.03 3184.73,1234.7 3186.5,1232.5C 3187.36,1231.42 3188.36,1231.25 3189.5,1232C 3298.38,1286.6 3407.38,1340.94 3516.5,1395C 3517.64,1395.75 3518.64,1395.58 3519.5,1394.5C 3520.64,1393.11 3520.64,1391.78 3519.5,1390.5C 3430.82,1306.99 3342.32,1223.32 3254,1139.5C 3253.33,1138.5 3253.33,1137.5 3254,1136.5C 3255.44,1134.61 3256.61,1132.61 3257.5,1130.5 Z"/></g>
<g><path style="opacity:1" fill="#79bf43" d="M 2961.5,1285.5 C 2964.5,1285.5 2967.5,1285.5 2970.5,1285.5C 2988.11,1406.52 3005.95,1527.52 3024,1648.5C 3025.4,1650.19 3027.23,1650.86 3029.5,1650.5C 3047.31,1528.8 3065.31,1407.14 3083.5,1285.5C 3086.83,1285.5 3090.17,1285.5 3093.5,1285.5C 3107.84,1398.04 3122.51,1510.54 3137.5,1623C 3112.57,1663.98 3075.9,1685.15 3027.5,1686.5C 2980.28,1684.98 2943.78,1664.65 2918,1625.5C 2931.68,1512.08 2946.18,1398.75 2961.5,1285.5 Z"/></g>
<g><path style="opacity:0.255" fill="#849376" d="M 158.5,1325.5 C 330.167,1325.5 501.833,1325.5 673.5,1325.5C 673.832,1374.34 673.499,1423 672.5,1471.5C 672.5,1423.17 672.5,1374.83 672.5,1326.5C 500.999,1326.83 329.666,1326.5 158.5,1325.5 Z"/></g>
</svg>
