<svg width="138" height="42" viewBox="0 0 138 42" fill="none" xmlns="http://www.w3.org/2000/svg">
<path d="M67.3005 8.80005C63.9554 8.80005 60.9474 10.8365 59.7049 13.9422L52.0005 33.2H58.0005L64.6447 16.5763C65.6032 14.1782 68.9977 14.1782 69.9562 16.5763L76.6004 33.2H82.6004L74.896 13.9422C73.6535 10.8365 70.6455 8.80005 67.3005 8.80005Z" fill="#161C27"/>
<path d="M94.7996 8.80005V33.1998H88.5996V8.80005H94.7996Z" fill="#161C27"/>
<path d="M114.357 8.80005C119.52 8.80005 123.8 12.9367 123.8 18.1C123.8 21.5756 121.809 24.6573 118.994 26.2685L118.892 26.3262L118.984 26.4261C120.702 28.3084 121.947 30.6288 122.533 33.2001L116.092 33.2C114.776 29.9027 112.186 27.4013 108.239 27.4013L108.089 27.4001H106.6V21.4001H114.357C116.22 21.4001 117.8 19.9632 117.8 18.1C117.8 16.2583 116.254 14.8342 114.421 14.8H114.357H102.8V8.80005H114.357Z" fill="#161C27"/>
<path d="M138.001 8.80005V33.1998H131.801V8.80005H138.001Z" fill="#161C27"/>
<path d="M21 0C32.598 0 42 9.40202 42 21C42 32.598 32.598 42 21 42C9.40203 42 0 32.598 0 21C0 9.40202 9.40203 0 21 0ZM21 1.27273C10.1049 1.27273 2.86943 9.13935 2.86943 20.0344C2.86943 26.3326 7.69724 28.7785 12.2925 32.3903C15.6465 35.0265 17.9781 38.7961 22.575 38.7961C33.4701 38.7961 32.6383 31.1935 36.1166 21C38.1794 14.9545 38.2871 10.1164 34.3898 6.51262C30.8725 3.26023 26.1683 1.27273 21 1.27273Z" fill="url(#paint0_linear_252_2717)"/>
<path fill-rule="evenodd" clip-rule="evenodd" d="M21.0009 11.1366L30.8645 21.0002L21.0009 30.8639L11.1372 21.0002L21.0009 11.1366Z" fill="url(#paint1_linear_252_2717)"/>
<defs>
<linearGradient id="paint0_linear_252_2717" x1="5.01175" y1="-3.52737e-07" x2="44.9415" y2="48.4914" gradientUnits="userSpaceOnUse">
<stop stop-color="#14D6BC"/>
<stop offset="1" stop-color="#161C27"/>
</linearGradient>
<linearGradient id="paint1_linear_252_2717" x1="21.0009" y1="11.1366" x2="30.8645" y2="29.3864" gradientUnits="userSpaceOnUse">
<stop stop-color="#14D6BC"/>
<stop offset="1" stop-color="#015A60"/>
</linearGradient>
</defs>
</svg>
